  0
SECTION
  2
HEADER
  9
$ACADVER
  1
AC1014
  9
$ACADMAINTVER
 70
     9
  9
$DWGCODEPAGE
  3
ANSI_1252
  9
$INSBASE
 10
0.0
 20
0.0
 30
0.0
  9
$EXTMIN
 10
0.1019
 20
-0.0081
 30
0.0
  9
$EXTMAX
 10
77.8781
 20
62.398
 30
0.0
  9
$LIMMIN
 10
0.0
 20
0.0
  9
$LIMMAX
 10
12.0
 20
9.0
  9
$ORTHOMODE
 70
     0
  9
$REGENMODE
 70
     1
  9
$FILLMODE
 70
     1
  9
$QTEXTMODE
 70
     0
  9
$MIRRTEXT
 70
     1
  9
$DRAGMODE
 70
     2
  9
$LTSCALE
 40
1.0
  9
$OSMODE
 70
    37
  9
$ATTMODE
 70
     1
  9
$TEXTSIZE
 40
0.2
  9
$TRACEWID
 40
0.05
  9
$TEXTSTYLE
  7
STANDARD
  9
$CLAYER
  8
0
  9
$CELTYPE
  6
BYBLOCK
  9
$CECOLOR
 62
   256
  9
$CELTSCALE
 40
1.0
  9
$DELOBJ
 70
     1
  9
$DISPSILH
 70
     0
  9
$DIMSCALE
 40
1.0
  9
$DIMASZ
 40
0.18
  9
$DIMEXO
 40
0.0625
  9
$DIMDLI
 40
0.38
  9
$DIMRND
 40
0.0
  9
$DIMDLE
 40
0.0
  9
$DIMEXE
 40
0.18
  9
$DIMTP
 40
0.0
  9
$DIMTM
 40
0.0
  9
$DIMTXT
 40
0.18
  9
$DIMCEN
 40
0.09
  9
$DIMTSZ
 40
0.0
  9
$DIMTOL
 70
     0
  9
$DIMLIM
 70
     0
  9
$DIMTIH
 70
     1
  9
$DIMTOH
 70
     1
  9
$DIMSE1
 70
     0
  9
$DIMSE2
 70
     0
  9
$DIMTAD
 70
     0
  9
$DIMZIN
 70
     0
  9
$DIMBLK
  1

  9
$DIMASO
 70
     1
  9
$DIMSHO
 70
     1
  9
$DIMPOST
  1

  9
$DIMAPOST
  1

  9
$DIMALT
 70
     0
  9
$DIMALTD
 70
     2
  9
$DIMALTF
 40
25.4
  9
$DIMLFAC
 40
1.0
  9
$DIMTOFL
 70
     0
  9
$DIMTVP
 40
0.0
  9
$DIMTIX
 70
     0
  9
$DIMSOXD
 70
     0
  9
$DIMSAH
 70
     0
  9
$DIMBLK1
  1

  9
$DIMBLK2
  1

  9
$DIMSTYLE
  2
STANDARD
  9
$DIMCLRD
 70
     0
  9
$DIMCLRE
 70
     0
  9
$DIMCLRT
 70
     0
  9
$DIMTFAC
 40
1.0
  9
$DIMGAP
 40
0.09
  9
$DIMJUST
 70
     0
  9
$DIMSD1
 70
     0
  9
$DIMSD2
 70
     0
  9
$DIMTOLJ
 70
     1
  9
$DIMTZIN
 70
     0
  9
$DIMALTZ
 70
     0
  9
$DIMALTTZ
 70
     0
  9
$DIMFIT
 70
     5
  9
$DIMUPT
 70
     0
  9
$DIMUNIT
 70
     2
  9
$DIMDEC
 70
     4
  9
$DIMTDEC
 70
     4
  9
$DIMALTU
 70
     2
  9
$DIMALTTD
 70
     2
  9
$DIMTXSTY
  7
STANDARD
  9
$DIMAUNIT
 70
     0
  9
$LUNITS
 70
     2
  9
$LUPREC
 70
     4
  9
$SKETCHINC
 40
0.1
  9
$FILLETRAD
 40
0.5
  9
$AUNITS
 70
     0
  9
$AUPREC
 70
     0
  9
$MENU
  1
.
  9
$ELEVATION
 40
0.0
  9
$PELEVATION
 40
0.0
  9
$THICKNESS
 40
0.0
  9
$LIMCHECK
 70
     0
  9
$CHAMFERA
 40
0.0
  9
$CHAMFERB
 40
0.0
  9
$CHAMFERC
 40
0.0
  9
$CHAMFERD
 40
0.0
  9
$SKPOLY
 70
     0
  9
$TDCREATE
 40
2457939.655405822
  9
$TDUPDATE
 40
2457939.655406366
  9
$TDINDWG
 40
0.0000000116
  9
$TDUSRTIMER
 40
0.0000000116
  9
$USRTIMER
 70
     1
  9
$ANGBASE
 50
0.0
  9
$ANGDIR
 70
     0
  9
$PDMODE
 70
     0
  9
$PDSIZE
 40
0.0
  9
$PLINEWID
 40
0.0
  9
$COORDS
 70
     1
  9
$SPLFRAME
 70
     0
  9
$SPLINETYPE
 70
     6
  9
$SPLINESEGS
 70
     8
  9
$ATTDIA
 70
     0
  9
$ATTREQ
 70
     1
  9
$HANDLING
 70
     1
  9
$HANDSEED
  5
385
  9
$SURFTAB1
 70
     6
  9
$SURFTAB2
 70
     6
  9
$SURFTYPE
 70
     6
  9
$SURFU
 70
     6
  9
$SURFV
 70
     6
  9
$UCSNAME
  2

  9
$UCSORG
 10
0.0
 20
0.0
 30
0.0
  9
$UCSXDIR
 10
1.0
 20
0.0
 30
0.0
  9
$UCSYDIR
 10
0.0
 20
1.0
 30
0.0
  9
$PUCSNAME
  2

  9
$PUCSORG
 10
0.0
 20
0.0
 30
0.0
  9
$PUCSXDIR
 10
1.0
 20
0.0
 30
0.0
  9
$PUCSYDIR
 10
0.0
 20
1.0
 30
0.0
  9
$USERI1
 70
     0
  9
$USERI2
 70
     0
  9
$USERI3
 70
     0
  9
$USERI4
 70
     0
  9
$USERI5
 70
     0
  9
$USERR1
 40
0.0
  9
$USERR2
 40
0.0
  9
$USERR3
 40
0.0
  9
$USERR4
 40
0.0
  9
$USERR5
 40
0.0
  9
$WORLDVIEW
 70
     1
  9
$SHADEDGE
 70
     3
  9
$SHADEDIF
 70
    70
  9
$TILEMODE
 70
     1
  9
$MAXACTVP
 70
    64
  9
$PINSBASE
 10
0.0
 20
0.0
 30
0.0
  9
$PLIMCHECK
 70
     0
  9
$PEXTMIN
 10
1.000000000000000E+20
 20
1.000000000000000E+20
 30
1.000000000000000E+20
  9
$PEXTMAX
 10
-1.000000000000000E+20
 20
-1.000000000000000E+20
 30
-1.000000000000000E+20
  9
$PLIMMIN
 10
0.0
 20
0.0
  9
$PLIMMAX
 10
12.0
 20
9.0
  9
$UNITMODE
 70
     0
  9
$VISRETAIN
 70
     1
  9
$PLINEGEN
 70
     0
  9
$PSLTSCALE
 70
     1
  9
$TREEDEPTH
 70
  3020
  9
$PICKSTYLE
 70
     1
  9
$CMLSTYLE
  2
STANDARD
  9
$CMLJUST
 70
     0
  9
$CMLSCALE
 40
1.0
  9
$PROXYGRAPHICS
 70
     1
  9
$MEASUREMENT
 70
     0
  0
ENDSEC
  0
SECTION
  2
CLASSES
  0
CLASS
  1
ACDBDICTIONARYWDFLT
  2
AcDbDictionaryWithDefault
  3
ObjectDBX Classes
 90
        0
280
     0
281
     0
  0
CLASS
  1
SCALE
  2
AcDbScale
  3
ObjectDBX Classes
 90
     1153
280
     0
281
     0
  0
CLASS
  1
VISUALSTYLE
  2
AcDbVisualStyle
  3
ObjectDBX Classes
 90
     4095
280
     0
281
     0
  0
CLASS
  1
MATERIAL
  2
AcDbMaterial
  3
ObjectDBX Classes
 90
     1153
280
     0
281
     0
  0
CLASS
  1
TABLESTYLE
  2
AcDbTableStyle
  3
ObjectDBX Classes
 90
     4095
280
     0
281
     0
  0
CLASS
  1
MLEADERSTYLE
  2
AcDbMLeaderStyle
  3
ACDB_MLEADERSTYLE_CLASS
 90
     4095
280
     0
281
     0
  0
CLASS
  1
DICTIONARYVAR
  2
AcDbDictionaryVar
  3
ObjectDBX Classes
 90
        0
280
     0
281
     0
  0
CLASS
  1
XRECORD
  2
AcDbXrecord
  3
ObjectDBX Classes
 90
        0
280
     0
281
     0
  0
CLASS
  1
LWPOLYLINE
  2
AcDbPolyline
  3
ObjectDBX Classes
 90
        0
280
     0
281
     1
  0
CLASS
  1
HATCH
  2
AcDbHatch
  3
ObjectDBX Classes
 90
        0
280
     0
281
     1
  0
CLASS
  1
ACDBPLACEHOLDER
  2
AcDbPlaceHolder
  3
ObjectDBX Classes
 90
        0
280
     0
281
     0
  0
CLASS
  1
LAYOUT
  2
AcDbLayout
  3
ObjectDBX Classes
 90
        0
280
     0
281
     0
  0
ENDSEC
  0
SECTION
  2
TABLES
  0
TABLE
  2
VPORT
  5
8
102
{ACAD_XDICTIONARY
360
37B
102
}
330
0
100
AcDbSymbolTable
 70
     1
  0
VPORT
  5
23
330
8
100
AcDbSymbolTableRecord
100
AcDbViewportTableRecord
  2
*ACTIVE
 70
     0
 10
0.0
 20
0.0
 11
1.0
 21
1.0
 12
10.42990654205607
 22
4.5
 13
0.0
 23
0.0
 14
0.5
 24
0.5
 15
0.5
 25
0.5
 16
0.0
 26
0.0
 36
1.0
 17
0.0
 27
0.0
 37
0.0
 40
9.0
 41
1.972972972850329
 42
50.0
 43
0.0
 44
0.0
 50
0.0
 51
0.0
 71
     0
 72
   100
 73
     1
 74
     3
 75
     0
 76
     0
 77
     0
 78
     0
  0
ENDTAB
  0
TABLE
  2
LTYPE
  5
5
330
0
100
AcDbSymbolTable
 70
     1
  0
LTYPE
  5
14
330
5
100
AcDbSymbolTableRecord
100
AcDbLinetypeTableRecord
  2
BYBLOCK
 70
     0
  3

 72
    65
 73
     0
 40
0.0
  0
LTYPE
  5
15
330
5
100
AcDbSymbolTableRecord
100
AcDbLinetypeTableRecord
  2
BYLAYER
 70
     0
  3

 72
    65
 73
     0
 40
0.0
  0
LTYPE
  5
16
330
5
100
AcDbSymbolTableRecord
100
AcDbLinetypeTableRecord
  2
CONTINUOUS
 70
     0
  3
Solid line
 72
    65
 73
     0
 40
0.0
  0
ENDTAB
  0
TABLE
  2
LAYER
  5
2
330
0
100
AcDbSymbolTable
 70
     2
  0
LAYER
  5
10
330
2
100
AcDbSymbolTableRecord
100
AcDbLayerTableRecord
  2
0
 70
     0
 62
     7
  6
CONTINUOUS
  0
LAYER
  5
21
330
2
100
AcDbSymbolTableRecord
100
AcDbLayerTableRecord
  2
20
 70
     0
 62
   178
  6
CONTINUOUS
  0
ENDTAB
  0
TABLE
  2
STYLE
  5
3
330
0
100
AcDbSymbolTable
 70
     1
  0
STYLE
  5
11
330
3
100
AcDbSymbolTableRecord
100
AcDbTextStyleTableRecord
  2
STANDARD
 70
     0
 40
0.0
 41
1.0
 50
0.0
 71
     0
 42
0.2
  3
txt
  4

  0
ENDTAB
  0
TABLE
  2
VIEW
  5
6
330
0
100
AcDbSymbolTable
 70
     0
  0
ENDTAB
  0
TABLE
  2
UCS
  5
7
330
0
100
AcDbSymbolTable
 70
     0
  0
ENDTAB
  0
TABLE
  2
APPID
  5
9
330
0
100
AcDbSymbolTable
 70
     2
  0
APPID
  5
12
330
9
100
AcDbSymbolTableRecord
100
AcDbRegAppTableRecord
  2
ACAD
 70
     0
  0
APPID
  5
384
330
9
100
AcDbSymbolTableRecord
100
AcDbRegAppTableRecord
  2
ACAD_MLEADERVER
 70
     0
  0
ENDTAB
  0
TABLE
  2
DIMSTYLE
  5
A
330
0
100
AcDbSymbolTable
 70
     1
  0
DIMSTYLE
105
22
330
A
100
AcDbSymbolTableRecord
100
AcDbDimStyleTableRecord
  2
STANDARD
 70
     0
  3

  4

  5

  6

  7

 40
1.0
 41
0.18
 42
0.0625
 43
0.38
 44
0.18
 45
0.0
 46
0.0
 47
0.0
 48
0.0
140
0.18
141
0.09
142
0.0
143
25.4
144
1.0
145
0.0
146
1.0
147
0.09
 71
     0
 72
     0
 73
     1
 74
     1
 75
     0
 76
     0
 77
     0
 78
     0
170
     0
171
     2
172
     0
173
     0
174
     0
175
     0
176
     0
177
     0
178
     0
270
     2
271
     4
272
     4
273
     2
274
     2
340
11
275
     0
280
     0
281
     0
282
     0
283
     1
284
     0
285
     0
286
     0
287
     3
288
     0
  0
ENDTAB
  0
TABLE
  2
BLOCK_RECORD
  5
1
330
0
100
AcDbSymbolTable
 70
    13
  0
BLOCK_RECORD
  5
1D
330
1
100
AcDbSymbolTableRecord
100
AcDbBlockTableRecord
  2
*MODEL_SPACE
  0
BLOCK_RECORD
  5
1B
330
1
100
AcDbSymbolTableRecord
100
AcDbBlockTableRecord
  2
*PAPER_SPACE
  0
BLOCK_RECORD
  5
25
330
1
100
AcDbSymbolTableRecord
100
AcDbBlockTableRecord
  2
RECT
  0
BLOCK_RECORD
  5
29
330
1
100
AcDbSymbolTableRecord
100
AcDbBlockTableRecord
  2
PIE
  0
BLOCK_RECORD
  5
31
330
1
100
AcDbSymbolTableRecord
100
AcDbBlockTableRecord
  2
OCTAGONP
  0
BLOCK_RECORD
  5
40
330
1
100
AcDbSymbolTableRecord
100
AcDbBlockTableRecord
  2
SQUAREP
  0
BLOCK_RECORD
  5
44
330
1
100
AcDbSymbolTableRecord
100
AcDbBlockTableRecord
  2
ROUNDP
  0
BLOCK_RECORD
  5
4C
330
1
100
AcDbSymbolTableRecord
100
AcDbBlockTableRecord
  2
ANNULUSP
  0
BLOCK_RECORD
  5
54
330
1
100
AcDbSymbolTableRecord
100
AcDbBlockTableRecord
  2
THERMALP
  0
BLOCK_RECORD
  5
87
330
1
100
AcDbSymbolTableRecord
100
AcDbBlockTableRecord
  2
OCTAGONV
  0
BLOCK_RECORD
  5
96
330
1
100
AcDbSymbolTableRecord
100
AcDbBlockTableRecord
  2
SQUAREV
  0
BLOCK_RECORD
  5
9A
330
1
100
AcDbSymbolTableRecord
100
AcDbBlockTableRecord
  2
ROUNDV
  0
BLOCK_RECORD
  5
A2
330
1
100
AcDbSymbolTableRecord
100
AcDbBlockTableRecord
  2
ANNULUSV
  0
BLOCK_RECORD
  5
AA
330
1
100
AcDbSymbolTableRecord
100
AcDbBlockTableRecord
  2
THERMALV
  0
BLOCK_RECORD
  5
DD
330
1
100
AcDbSymbolTableRecord
100
AcDbBlockTableRecord
  2
LONGP100
  0
ENDTAB
  0
ENDSEC
  0
SECTION
  2
BLOCKS
  0
BLOCK
  5
32D
330
1D
100
AcDbEntity
  8
0
100
AcDbBlockBegin
  2
*MODEL_SPACE
 70
     0
 10
0.0
 20
0.0
 30
0.0
  3
*MODEL_SPACE
  1

  0
ENDBLK
  5
32E
330
1D
100
AcDbEntity
  8
0
100
AcDbBlockEnd
  0
BLOCK
  5
32F
330
1B
100
AcDbEntity
 67
     1
  8
0
100
AcDbBlockBegin
  2
*PAPER_SPACE
 70
     0
 10
0.0
 20
0.0
 30
0.0
  3
*PAPER_SPACE
  1

  0
ENDBLK
  5
330
330
1B
100
AcDbEntity
 67
     1
  8
0
100
AcDbBlockEnd
  0
BLOCK
  5
24
330
25
100
AcDbEntity
  8
0
100
AcDbBlockBegin
  2
RECT
 70
     0
 10
0.0
 20
0.0
 30
0.0
  3
RECT
  1

  0
SOLID
  5
26
330
25
100
AcDbEntity
  8
0
100
AcDbTrace
 10
-0.5
 20
-0.5
 30
0.0
 11
0.5
 21
-0.5
 31
0.0
 12
-0.5
 22
0.5
 32
0.0
 13
0.5
 23
0.5
 33
0.0
  0
ENDBLK
  5
27
330
25
100
AcDbEntity
  8
0
100
AcDbBlockEnd
  0
BLOCK
  5
28
330
29
100
AcDbEntity
  8
0
100
AcDbBlockBegin
  2
PIE
 70
     0
 10
0.0
 20
0.0
 30
0.0
  3
PIE
  1

  0
LWPOLYLINE
  5
2A
330
29
100
AcDbEntity
  8
0
100
AcDbPolyline
 90
        3
 70
     0
 43
0.5
 10
0.0
 20
-0.25
 42
1.0
 10
0.0
 20
0.25
 42
1.0
 10
0.0
 20
-0.25
  0
ENDBLK
  5
2F
330
29
100
AcDbEntity
  8
0
100
AcDbBlockEnd
  0
BLOCK
  5
30
330
31
100
AcDbEntity
  8
0
100
AcDbBlockBegin
  2
OCTAGONP
 70
     0
 10
0.0
 20
0.0
 30
0.0
  3
OCTAGONP
  1

  0
LWPOLYLINE
  5
32
330
31
100
AcDbEntity
  8
0
100
AcDbPolyline
 90
       10
 70
     0
 43
0.5
 10
-0.25
 20
-0.1036
 10
-0.25
 20
0.1036
 10
-0.1036
 20
0.25
 10
0.1036
 20
0.25
 10
0.25
 20
0.1036
 10
0.25
 20
-0.1036
 10
0.1036
 20
-0.25
 10
-0.1036
 20
-0.25
 10
-0.25
 20
-0.1036
 10
-0.25
 20
0.1036
  0
ENDBLK
  5
3E
330
31
100
AcDbEntity
  8
0
100
AcDbBlockEnd
  0
BLOCK
  5
3F
330
40
100
AcDbEntity
  8
0
100
AcDbBlockBegin
  2
SQUAREP
 70
     0
 10
0.0
 20
0.0
 30
0.0
  3
SQUAREP
  1

  0
SOLID
  5
41
330
40
100
AcDbEntity
  8
0
100
AcDbTrace
 10
-0.5
 20
-0.5
 30
0.0
 11
0.5
 21
-0.5
 31
0.0
 12
-0.5
 22
0.5
 32
0.0
 13
0.5
 23
0.5
 33
0.0
  0
ENDBLK
  5
42
330
40
100
AcDbEntity
  8
0
100
AcDbBlockEnd
  0
BLOCK
  5
43
330
44
100
AcDbEntity
  8
0
100
AcDbBlockBegin
  2
ROUNDP
 70
     0
 10
0.0
 20
0.0
 30
0.0
  3
ROUNDP
  1

  0
LWPOLYLINE
  5
45
330
44
100
AcDbEntity
  8
0
100
AcDbPolyline
 90
        3
 70
     0
 43
0.5
 10
0.0
 20
-0.25
 42
1.0
 10
0.0
 20
0.25
 42
1.0
 10
0.0
 20
-0.25
  0
ENDBLK
  5
4A
330
44
100
AcDbEntity
  8
0
100
AcDbBlockEnd
  0
BLOCK
  5
4B
330
4C
100
AcDbEntity
  8
0
100
AcDbBlockBegin
  2
ANNULUSP
 70
     0
 10
0.0
 20
0.0
 30
0.0
  3
ANNULUSP
  1

  0
LWPOLYLINE
  5
4D
330
4C
100
AcDbEntity
  8
0
100
AcDbPolyline
 90
        3
 70
     0
 43
0.5
 10
0.0
 20
-0.25
 42
1.0
 10
0.0
 20
0.25
 42
1.0
 10
0.0
 20
-0.25
  0
ENDBLK
  5
52
330
4C
100
AcDbEntity
  8
0
100
AcDbBlockEnd
  0
BLOCK
  5
53
330
54
100
AcDbEntity
  8
0
100
AcDbBlockBegin
  2
THERMALP
 70
     0
 10
0.0
 20
0.0
 30
0.0
  3
THERMALP
  1

  0
LWPOLYLINE
  5
55
330
54
100
AcDbEntity
  8
0
100
AcDbPolyline
 90
        2
 70
     0
 43
0.1
 10
-0.2379
 20
0.45
 10
0.2379
 20
0.45
  0
LWPOLYLINE
  5
59
330
54
100
AcDbEntity
  8
0
100
AcDbPolyline
 90
        2
 70
     0
 43
0.05
 10
0.2379
 20
0.425
 42
1.0
 10
0.2379
 20
0.475
  0
LWPOLYLINE
  5
5D
330
54
100
AcDbEntity
  8
0
100
AcDbPolyline
 90
        2
 70
     0
 43
0.05
 10
-0.2379
 20
0.475
 42
1.0
 10
-0.2379
 20
0.425
  0
LWPOLYLINE
  5
61
330
54
100
AcDbEntity
  8
0
100
AcDbPolyline
 90
        2
 70
     0
 43
0.1
 10
0.45
 20
0.2379
 10
0.45
 20
-0.2379
  0
LWPOLYLINE
  5
65
330
54
100
AcDbEntity
  8
0
100
AcDbPolyline
 90
        2
 70
     0
 43
0.05
 10
0.425
 20
-0.2379
 42
1.0
 10
0.475
 20
-0.2379
  0
LWPOLYLINE
  5
69
330
54
100
AcDbEntity
  8
0
100
AcDbPolyline
 90
        2
 70
     0
 43
0.05
 10
0.475
 20
0.2379
 42
1.0
 10
0.425
 20
0.2379
  0
LWPOLYLINE
  5
6D
330
54
100
AcDbEntity
  8
0
100
AcDbPolyline
 90
        2
 70
     0
 43
0.1
 10
0.2379
 20
-0.45
 10
-0.2379
 20
-0.45
  0
LWPOLYLINE
  5
71
330
54
100
AcDbEntity
  8
0
100
AcDbPolyline
 90
        2
 70
     0
 43
0.05
 10
-0.2379
 20
-0.425
 42
1.0
 10
-0.2379
 20
-0.475
  0
LWPOLYLINE
  5
75
330
54
100
AcDbEntity
  8
0
100
AcDbPolyline
 90
        2
 70
     0
 43
0.05
 10
0.2379
 20
-0.475
 42
1.0
 10
0.2379
 20
-0.425
  0
LWPOLYLINE
  5
79
330
54
100
AcDbEntity
  8
0
100
AcDbPolyline
 90
        2
 70
     0
 43
0.1
 10
-0.45
 20
-0.2379
 10
-0.45
 20
0.2379
  0
LWPOLYLINE
  5
7D
330
54
100
AcDbEntity
  8
0
100
AcDbPolyline
 90
        2
 70
     0
 43
0.05
 10
-0.425
 20
0.2379
 42
1.0
 10
-0.475
 20
0.2379
  0
LWPOLYLINE
  5
81
330
54
100
AcDbEntity
  8
0
100
AcDbPolyline
 90
        2
 70
     0
 43
0.05
 10
-0.475
 20
-0.2379
 42
1.0
 10
-0.425
 20
-0.2379
  0
ENDBLK
  5
85
330
54
100
AcDbEntity
  8
0
100
AcDbBlockEnd
  0
BLOCK
  5
86
330
87
100
AcDbEntity
  8
0
100
AcDbBlockBegin
  2
OCTAGONV
 70
     0
 10
0.0
 20
0.0
 30
0.0
  3
OCTAGONV
  1

  0
LWPOLYLINE
  5
88
330
87
100
AcDbEntity
  8
0
100
AcDbPolyline
 90
       10
 70
     0
 43
0.5
 10
-0.25
 20
-0.1036
 10
-0.25
 20
0.1036
 10
-0.1036
 20
0.25
 10
0.1036
 20
0.25
 10
0.25
 20
0.1036
 10
0.25
 20
-0.1036
 10
0.1036
 20
-0.25
 10
-0.1036
 20
-0.25
 10
-0.25
 20
-0.1036
 10
-0.25
 20
0.1036
  0
ENDBLK
  5
94
330
87
100
AcDbEntity
  8
0
100
AcDbBlockEnd
  0
BLOCK
  5
95
330
96
100
AcDbEntity
  8
0
100
AcDbBlockBegin
  2
SQUAREV
 70
     0
 10
0.0
 20
0.0
 30
0.0
  3
SQUAREV
  1

  0
SOLID
  5
97
330
96
100
AcDbEntity
  8
0
100
AcDbTrace
 10
-0.5
 20
-0.5
 30
0.0
 11
0.5
 21
-0.5
 31
0.0
 12
-0.5
 22
0.5
 32
0.0
 13
0.5
 23
0.5
 33
0.0
  0
ENDBLK
  5
98
330
96
100
AcDbEntity
  8
0
100
AcDbBlockEnd
  0
BLOCK
  5
99
330
9A
100
AcDbEntity
  8
0
100
AcDbBlockBegin
  2
ROUNDV
 70
     0
 10
0.0
 20
0.0
 30
0.0
  3
ROUNDV
  1

  0
LWPOLYLINE
  5
9B
330
9A
100
AcDbEntity
  8
0
100
AcDbPolyline
 90
        3
 70
     0
 43
0.5
 10
0.0
 20
-0.25
 42
1.0
 10
0.0
 20
0.25
 42
1.0
 10
0.0
 20
-0.25
  0
ENDBLK
  5
A0
330
9A
100
AcDbEntity
  8
0
100
AcDbBlockEnd
  0
BLOCK
  5
A1
330
A2
100
AcDbEntity
  8
0
100
AcDbBlockBegin
  2
ANNULUSV
 70
     0
 10
0.0
 20
0.0
 30
0.0
  3
ANNULUSV
  1

  0
LWPOLYLINE
  5
A3
330
A2
100
AcDbEntity
  8
0
100
AcDbPolyline
 90
        3
 70
     0
 43
0.5
 10
0.0
 20
-0.25
 42
1.0
 10
0.0
 20
0.25
 42
1.0
 10
0.0
 20
-0.25
  0
ENDBLK
  5
A8
330
A2
100
AcDbEntity
  8
0
100
AcDbBlockEnd
  0
BLOCK
  5
A9
330
AA
100
AcDbEntity
  8
0
100
AcDbBlockBegin
  2
THERMALV
 70
     0
 10
0.0
 20
0.0
 30
0.0
  3
THERMALV
  1

  0
LWPOLYLINE
  5
AB
330
AA
100
AcDbEntity
  8
0
100
AcDbPolyline
 90
        2
 70
     0
 43
0.1
 10
-0.2379
 20
0.45
 10
0.2379
 20
0.45
  0
LWPOLYLINE
  5
AF
330
AA
100
AcDbEntity
  8
0
100
AcDbPolyline
 90
        2
 70
     0
 43
0.05
 10
0.2379
 20
0.425
 42
1.0
 10
0.2379
 20
0.475
  0
LWPOLYLINE
  5
B3
330
AA
100
AcDbEntity
  8
0
100
AcDbPolyline
 90
        2
 70
     0
 43
0.05
 10
-0.2379
 20
0.475
 42
1.0
 10
-0.2379
 20
0.425
  0
LWPOLYLINE
  5
B7
330
AA
100
AcDbEntity
  8
0
100
AcDbPolyline
 90
        2
 70
     0
 43
0.1
 10
0.45
 20
0.2379
 10
0.45
 20
-0.2379
  0
LWPOLYLINE
  5
BB
330
AA
100
AcDbEntity
  8
0
100
AcDbPolyline
 90
        2
 70
     0
 43
0.05
 10
0.425
 20
-0.2379
 42
1.0
 10
0.475
 20
-0.2379
  0
LWPOLYLINE
  5
BF
330
AA
100
AcDbEntity
  8
0
100
AcDbPolyline
 90
        2
 70
     0
 43
0.05
 10
0.475
 20
0.2379
 42
1.0
 10
0.425
 20
0.2379
  0
LWPOLYLINE
  5
C3
330
AA
100
AcDbEntity
  8
0
100
AcDbPolyline
 90
        2
 70
     0
 43
0.1
 10
0.2379
 20
-0.45
 10
-0.2379
 20
-0.45
  0
LWPOLYLINE
  5
C7
330
AA
100
AcDbEntity
  8
0
100
AcDbPolyline
 90
        2
 70
     0
 43
0.05
 10
-0.2379
 20
-0.425
 42
1.0
 10
-0.2379
 20
-0.475
  0
LWPOLYLINE
  5
CB
330
AA
100
AcDbEntity
  8
0
100
AcDbPolyline
 90
        2
 70
     0
 43
0.05
 10
0.2379
 20
-0.475
 42
1.0
 10
0.2379
 20
-0.425
  0
LWPOLYLINE
  5
CF
330
AA
100
AcDbEntity
  8
0
100
AcDbPolyline
 90
        2
 70
     0
 43
0.1
 10
-0.45
 20
-0.2379
 10
-0.45
 20
0.2379
  0
LWPOLYLINE
  5
D3
330
AA
100
AcDbEntity
  8
0
100
AcDbPolyline
 90
        2
 70
     0
 43
0.05
 10
-0.425
 20
0.2379
 42
1.0
 10
-0.475
 20
0.2379
  0
LWPOLYLINE
  5
D7
330
AA
100
AcDbEntity
  8
0
100
AcDbPolyline
 90
        2
 70
     0
 43
0.05
 10
-0.475
 20
-0.2379
 42
1.0
 10
-0.425
 20
-0.2379
  0
ENDBLK
  5
DB
330
AA
100
AcDbEntity
  8
0
100
AcDbBlockEnd
  0
BLOCK
  5
DC
330
DD
100
AcDbEntity
  8
0
100
AcDbBlockBegin
  2
LONGP100
 70
     0
 10
0.0
 20
0.0
 30
0.0
  3
LONGP100
  1

  0
LWPOLYLINE
  5
DE
330
DD
100
AcDbEntity
  8
0
100
AcDbPolyline
 90
        2
 70
     0
 43
1.0
 10
-0.5
 20
0.0
 10
0.5
 20
0.0
  0
LWPOLYLINE
  5
E2
330
DD
100
AcDbEntity
  8
0
100
AcDbPolyline
 90
        2
 70
     0
 43
0.5
 10
0.5
 20
-0.25
 42
1.0
 10
0.5
 20
0.25
  0
LWPOLYLINE
  5
E6
330
DD
100
AcDbEntity
  8
0
100
AcDbPolyline
 90
        2
 70
     0
 43
0.5
 10
-0.5
 20
0.25
 42
1.0
 10
-0.5
 20
-0.25
  0
ENDBLK
  5
EA
330
DD
100
AcDbEntity
  8
0
100
AcDbBlockEnd
  0
ENDSEC
  0
SECTION
  2
ENTITIES
  0
LWPOLYLINE
  5
EB
330
1D
100
AcDbEntity
  8
20
100
AcDbPolyline
 90
        2
 70
     0
 43
0.0762
 10
7.9189
 20
58.9681
 10
7.9002
 20
4.6147
  0
LWPOLYLINE
  5
EF
330
1D
100
AcDbEntity
  8
20
100
AcDbPolyline
 90
        2
 70
     0
 43
0.0381
 10
7.8812
 20
4.6148
 42
1.0
 10
7.9193
 20
4.6147
  0
LWPOLYLINE
  5
F3
330
1D
100
AcDbEntity
  8
20
100
AcDbPolyline
 90
        2
 70
     0
 43
0.0381
 10
7.938
 20
58.9681
 42
1.0
 10
7.8999
 20
58.9681
  0
LWPOLYLINE
  5
F7
330
1D
100
AcDbEntity
  8
20
100
AcDbPolyline
 90
        2
 70
     0
 43
0.0762
 10
7.2495
 20
3.96
 42
0.4141
 10
7.9002
 20
4.6147
  0
LWPOLYLINE
  5
FB
330
1D
100
AcDbEntity
  8
20
100
AcDbPolyline
 90
        2
 70
     0
 43
0.0381
 10
7.2495
 20
3.979
 42
1.0
 10
7.2496
 20
3.941
  0
LWPOLYLINE
  5
FF
330
1D
100
AcDbEntity
  8
20
100
AcDbPolyline
 90
        2
 70
     0
 43
0.0381
 10
7.9193
 20
4.6148
 42
1.0
 10
7.8812
 20
4.6147
  0
LWPOLYLINE
  5
103
330
1D
100
AcDbEntity
  8
20
100
AcDbPolyline
 90
        2
 70
     0
 43
0.0762
 10
7.2495
 20
3.96
 10
1.1026
 20
3.96
  0
LWPOLYLINE
  5
107
330
1D
100
AcDbEntity
  8
20
100
AcDbPolyline
 90
        2
 70
     0
 43
0.0381
 10
1.1026
 20
3.9791
 42
1.0
 10
1.1026
 20
3.941
  0
LWPOLYLINE
  5
10B
330
1D
100
AcDbEntity
  8
20
100
AcDbPolyline
 90
        2
 70
     0
 43
0.0381
 10
7.2495
 20
3.941
 42
1.0
 10
7.2495
 20
3.9791
  0
LWPOLYLINE
  5
10F
330
1D
100
AcDbEntity
  8
20
100
AcDbPolyline
 90
        2
 70
     0
 43
0.0762
 10
11.1097
 20
62.16
 42
0.4141
 10
7.9189
 20
58.9681
  0
LWPOLYLINE
  5
113
330
1D
100
AcDbEntity
  8
20
100
AcDbPolyline
 90
        2
 70
     0
 43
0.0381
 10
11.1097
 20
62.141
 42
1.0
 10
11.1097
 20
62.179
  0
LWPOLYLINE
  5
117
330
1D
100
AcDbEntity
  8
20
100
AcDbPolyline
 90
        2
 70
     0
 43
0.0381
 10
7.8999
 20
58.9681
 42
1.0
 10
7.938
 20
58.9681
  0
LWPOLYLINE
  5
11B
330
1D
100
AcDbEntity
  8
20
100
AcDbPolyline
 90
        2
 70
     0
 43
0.0762
 10
11.1097
 20
62.16
 10
66.9277
 20
62.16
  0
LWPOLYLINE
  5
11F
330
1D
100
AcDbEntity
  8
20
100
AcDbPolyline
 90
        2
 70
     0
 43
0.0381
 10
66.9277
 20
62.141
 42
1.0
 10
66.9277
 20
62.1791
  0
LWPOLYLINE
  5
123
330
1D
100
AcDbEntity
  8
20
100
AcDbPolyline
 90
        2
 70
     0
 43
0.0381
 10
11.1097
 20
62.1791
 42
1.0
 10
11.1097
 20
62.141
  0
LWPOLYLINE
  5
127
330
1D
100
AcDbEntity
  8
20
100
AcDbPolyline
 90
        2
 70
     0
 43
0.0762
 10
70.07
 20
59.0177
 42
0.4142
 10
66.9277
 20
62.16
  0
LWPOLYLINE
  5
12B
330
1D
100
AcDbEntity
  8
20
100
AcDbPolyline
 90
        2
 70
     0
 43
0.0381
 10
70.051
 20
59.0177
 42
1.0
 10
70.0891
 20
59.0177
  0
LWPOLYLINE
  5
12F
330
1D
100
AcDbEntity
  8
20
100
AcDbPolyline
 90
        2
 70
     0
 43
0.0381
 10
66.9277
 20
62.1791
 42
1.0
 10
66.9277
 20
62.141
  0
LWPOLYLINE
  5
133
330
1D
100
AcDbEntity
  8
20
100
AcDbPolyline
 90
        2
 70
     0
 43
0.0762
 10
1.1026
 20
3.96
 42
0.4142
 10
0.14
 20
2.9974
  0
LWPOLYLINE
  5
137
330
1D
100
AcDbEntity
  8
20
100
AcDbPolyline
 90
        2
 70
     0
 43
0.0381
 10
1.1026
 20
3.941
 42
1.0
 10
1.1026
 20
3.9791
  0
LWPOLYLINE
  5
13B
330
1D
100
AcDbEntity
  8
20
100
AcDbPolyline
 90
        2
 70
     0
 43
0.0381
 10
0.121
 20
2.9974
 42
1.0
 10
0.1591
 20
2.9974
  0
LWPOLYLINE
  5
13F
330
1D
100
AcDbEntity
  8
20
100
AcDbPolyline
 90
        2
 70
     0
 43
0.0762
 10
0.14
 20
2.9974
 10
0.14
 20
0.8919
  0
LWPOLYLINE
  5
143
330
1D
100
AcDbEntity
  8
20
100
AcDbPolyline
 90
        2
 70
     0
 43
0.0381
 10
0.121
 20
0.8919
 42
1.0
 10
0.1591
 20
0.8919
  0
LWPOLYLINE
  5
147
330
1D
100
AcDbEntity
  8
20
100
AcDbPolyline
 90
        2
 70
     0
 43
0.0381
 10
0.1591
 20
2.9974
 42
1.0
 10
0.121
 20
2.9974
  0
LWPOLYLINE
  5
14B
330
1D
100
AcDbEntity
  8
20
100
AcDbPolyline
 90
        2
 70
     0
 43
0.0762
 10
0.14
 20
0.8919
 42
0.4142
 10
0.9719
 20
0.06
  0
LWPOLYLINE
  5
14F
330
1D
100
AcDbEntity
  8
20
100
AcDbPolyline
 90
        2
 70
     0
 43
0.0381
 10
0.1591
 20
0.8919
 42
1.0
 10
0.121
 20
0.8919
  0
LWPOLYLINE
  5
153
330
1D
100
AcDbEntity
  8
20
100
AcDbPolyline
 90
        2
 70
     0
 43
0.0381
 10
0.9719
 20
0.041
 42
1.0
 10
0.9719
 20
0.0791
  0
LWPOLYLINE
  5
157
330
1D
100
AcDbEntity
  8
20
100
AcDbPolyline
 90
        2
 70
     0
 43
0.0762
 10
0.9719
 20
0.06
 10
24.2733
 20
0.06
  0
LWPOLYLINE
  5
15B
330
1D
100
AcDbEntity
  8
20
100
AcDbPolyline
 90
        2
 70
     0
 43
0.0381
 10
24.2733
 20
0.041
 42
1.0
 10
24.2733
 20
0.0791
  0
LWPOLYLINE
  5
15F
330
1D
100
AcDbEntity
  8
20
100
AcDbPolyline
 90
        2
 70
     0
 43
0.0381
 10
0.9719
 20
0.0791
 42
1.0
 10
0.9719
 20
0.041
  0
LWPOLYLINE
  5
163
330
1D
100
AcDbEntity
  8
20
100
AcDbPolyline
 90
        2
 70
     0
 43
0.0762
 10
24.2733
 20
0.06
 42
0.4142
 10
25.0
 20
0.7867
  0
LWPOLYLINE
  5
167
330
1D
100
AcDbEntity
  8
20
100
AcDbPolyline
 90
        2
 70
     0
 43
0.0381
 10
24.2733
 20
0.0791
 42
1.0
 10
24.2733
 20
0.041
  0
LWPOLYLINE
  5
16B
330
1D
100
AcDbEntity
  8
20
100
AcDbPolyline
 90
        2
 70
     0
 43
0.0381
 10
25.0191
 20
0.7867
 42
1.0
 10
24.9809
 20
0.7867
  0
LWPOLYLINE
  5
16F
330
1D
100
AcDbEntity
  8
20
100
AcDbPolyline
 90
        2
 70
     0
 43
0.0762
 10
25.0
 20
0.7867
 10
25.0
 20
3.156
  0
LWPOLYLINE
  5
173
330
1D
100
AcDbEntity
  8
20
100
AcDbPolyline
 90
        2
 70
     0
 43
0.0381
 10
25.0191
 20
3.156
 42
1.0
 10
24.9809
 20
3.156
  0
LWPOLYLINE
  5
177
330
1D
100
AcDbEntity
  8
20
100
AcDbPolyline
 90
        2
 70
     0
 43
0.0381
 10
24.9809
 20
0.7867
 42
1.0
 10
25.0191
 20
0.7867
  0
LWPOLYLINE
  5
17B
330
1D
100
AcDbEntity
  8
20
100
AcDbPolyline
 90
        2
 70
     0
 43
0.0762
 10
25.0
 20
3.156
 42
0.4142
 10
24.206
 20
3.95
  0
LWPOLYLINE
  5
17F
330
1D
100
AcDbEntity
  8
20
100
AcDbPolyline
 90
        2
 70
     0
 43
0.0381
 10
24.9809
 20
3.156
 42
1.0
 10
25.0191
 20
3.156
  0
LWPOLYLINE
  5
183
330
1D
100
AcDbEntity
  8
20
100
AcDbPolyline
 90
        2
 70
     0
 43
0.0381
 10
24.206
 20
3.9691
 42
1.0
 10
24.206
 20
3.931
  0
LWPOLYLINE
  5
187
330
1D
100
AcDbEntity
  8
20
100
AcDbPolyline
 90
        2
 70
     0
 43
0.0762
 10
24.206
 20
3.95
 10
21.131
 20
3.95
  0
LWPOLYLINE
  5
18B
330
1D
100
AcDbEntity
  8
20
100
AcDbPolyline
 90
        2
 70
     0
 43
0.0381
 10
21.131
 20
3.9691
 42
1.0
 10
21.131
 20
3.931
  0
LWPOLYLINE
  5
18F
330
1D
100
AcDbEntity
  8
20
100
AcDbPolyline
 90
        2
 70
     0
 43
0.0381
 10
24.206
 20
3.931
 42
1.0
 10
24.206
 20
3.9691
  0
LWPOLYLINE
  5
193
330
1D
100
AcDbEntity
  8
20
100
AcDbPolyline
 90
        2
 70
     0
 43
0.0762
 10
20.35
 20
4.731
 42
0.4142
 10
21.131
 20
3.95
  0
LWPOLYLINE
  5
197
330
1D
100
AcDbEntity
  8
20
100
AcDbPolyline
 90
        2
 70
     0
 43
0.0381
 10
20.3691
 20
4.731
 42
1.0
 10
20.331
 20
4.731
  0
LWPOLYLINE
  5
19B
330
1D
100
AcDbEntity
  8
20
100
AcDbPolyline
 90
        2
 70
     0
 43
0.0381
 10
21.131
 20
3.931
 42
1.0
 10
21.131
 20
3.9691
  0
LWPOLYLINE
  5
19F
330
1D
100
AcDbEntity
  8
20
100
AcDbPolyline
 90
        2
 70
     0
 43
0.0762
 10
20.35
 20
4.731
 10
20.35
 20
6.8498
  0
LWPOLYLINE
  5
1A3
330
1D
100
AcDbEntity
  8
20
100
AcDbPolyline
 90
        2
 70
     0
 43
0.0381
 10
20.3691
 20
6.8498
 42
1.0
 10
20.331
 20
6.8498
  0
LWPOLYLINE
  5
1A7
330
1D
100
AcDbEntity
  8
20
100
AcDbPolyline
 90
        2
 70
     0
 43
0.0381
 10
20.331
 20
4.731
 42
1.0
 10
20.3691
 20
4.731
  0
LWPOLYLINE
  5
1AB
330
1D
100
AcDbEntity
  8
20
100
AcDbPolyline
 90
        2
 70
     0
 43
0.0762
 10
21.2402
 20
7.74
 42
0.4142
 10
20.35
 20
6.8498
  0
LWPOLYLINE
  5
1AF
330
1D
100
AcDbEntity
  8
20
100
AcDbPolyline
 90
        2
 70
     0
 43
0.0381
 10
21.2402
 20
7.721
 42
1.0
 10
21.2402
 20
7.7591
  0
LWPOLYLINE
  5
1B3
330
1D
100
AcDbEntity
  8
20
100
AcDbPolyline
 90
        2
 70
     0
 43
0.0381
 10
20.331
 20
6.8498
 42
1.0
 10
20.3691
 20
6.8498
  0
LWPOLYLINE
  5
1B7
330
1D
100
AcDbEntity
  8
20
100
AcDbPolyline
 90
        2
 70
     0
 43
0.0762
 10
57.64
 20
6.8695
 42
0.4142
 10
56.7695
 20
7.74
  0
LWPOLYLINE
  5
1BB
330
1D
100
AcDbEntity
  8
20
100
AcDbPolyline
 90
        2
 70
     0
 43
0.0381
 10
57.621
 20
6.8695
 42
1.0
 10
57.6591
 20
6.8695
  0
LWPOLYLINE
  5
1BF
330
1D
100
AcDbEntity
  8
20
100
AcDbPolyline
 90
        2
 70
     0
 43
0.0381
 10
56.7695
 20
7.7591
 42
1.0
 10
56.7695
 20
7.721
  0
LWPOLYLINE
  5
1C3
330
1D
100
AcDbEntity
  8
20
100
AcDbPolyline
 90
        2
 70
     0
 43
0.0762
 10
57.64
 20
6.8695
 10
57.64
 20
4.6941
  0
LWPOLYLINE
  5
1C7
330
1D
100
AcDbEntity
  8
20
100
AcDbPolyline
 90
        2
 70
     0
 43
0.0381
 10
57.621
 20
4.6941
 42
1.0
 10
57.6591
 20
4.6941
  0
LWPOLYLINE
  5
1CB
330
1D
100
AcDbEntity
  8
20
100
AcDbPolyline
 90
        2
 70
     0
 43
0.0381
 10
57.6591
 20
6.8695
 42
1.0
 10
57.621
 20
6.8695
  0
LWPOLYLINE
  5
1CF
330
1D
100
AcDbEntity
  8
20
100
AcDbPolyline
 90
        2
 70
     0
 43
0.0762
 10
56.9059
 20
3.96
 42
0.4142
 10
57.64
 20
4.6941
  0
LWPOLYLINE
  5
1D3
330
1D
100
AcDbEntity
  8
20
100
AcDbPolyline
 90
        2
 70
     0
 43
0.0381
 10
56.9059
 20
3.9791
 42
1.0
 10
56.9059
 20
3.941
  0
LWPOLYLINE
  5
1D7
330
1D
100
AcDbEntity
  8
20
100
AcDbPolyline
 90
        2
 70
     0
 43
0.0381
 10
57.6591
 20
4.6941
 42
1.0
 10
57.621
 20
4.6941
  0
LWPOLYLINE
  5
1DB
330
1D
100
AcDbEntity
  8
20
100
AcDbPolyline
 90
        2
 70
     0
 43
0.0762
 10
56.9059
 20
3.96
 10
53.8001
 20
3.96
  0
LWPOLYLINE
  5
1DF
330
1D
100
AcDbEntity
  8
20
100
AcDbPolyline
 90
        2
 70
     0
 43
0.0381
 10
53.8001
 20
3.9791
 42
1.0
 10
53.8001
 20
3.941
  0
LWPOLYLINE
  5
1E3
330
1D
100
AcDbEntity
  8
20
100
AcDbPolyline
 90
        2
 70
     0
 43
0.0381
 10
56.9059
 20
3.941
 42
1.0
 10
56.9059
 20
3.9791
  0
LWPOLYLINE
  5
1E7
330
1D
100
AcDbEntity
  8
20
100
AcDbPolyline
 90
        2
 70
     0
 43
0.0762
 10
53.8001
 20
3.96
 42
0.4142
 10
52.98
 20
3.1399
  0
LWPOLYLINE
  5
1EB
330
1D
100
AcDbEntity
  8
20
100
AcDbPolyline
 90
        2
 70
     0
 43
0.0381
 10
53.8001
 20
3.941
 42
1.0
 10
53.8001
 20
3.9791
  0
LWPOLYLINE
  5
1EF
330
1D
100
AcDbEntity
  8
20
100
AcDbPolyline
 90
        2
 70
     0
 43
0.0381
 10
52.961
 20
3.1399
 42
1.0
 10
52.9991
 20
3.1399
  0
LWPOLYLINE
  5
1F3
330
1D
100
AcDbEntity
  8
20
100
AcDbPolyline
 90
        2
 70
     0
 43
0.0762
 10
52.98
 20
3.1399
 10
52.98
 20
3.13
  0
LWPOLYLINE
  5
1F7
330
1D
100
AcDbEntity
  8
20
100
AcDbPolyline
 90
        2
 70
     0
 43
0.0381
 10
52.961
 20
3.13
 42
1.0
 10
52.9991
 20
3.13
  0
LWPOLYLINE
  5
1FB
330
1D
100
AcDbEntity
  8
20
100
AcDbPolyline
 90
        2
 70
     0
 43
0.0381
 10
52.9991
 20
3.1399
 42
1.0
 10
52.961
 20
3.1399
  0
LWPOLYLINE
  5
1FF
330
1D
100
AcDbEntity
  8
20
100
AcDbPolyline
 90
        2
 70
     0
 43
0.0762
 10
52.98
 20
3.11
 10
52.98
 20
0.8088
  0
LWPOLYLINE
  5
203
330
1D
100
AcDbEntity
  8
20
100
AcDbPolyline
 90
        2
 70
     0
 43
0.0381
 10
52.961
 20
0.8088
 42
1.0
 10
52.9991
 20
0.8088
  0
LWPOLYLINE
  5
207
330
1D
100
AcDbEntity
  8
20
100
AcDbPolyline
 90
        2
 70
     0
 43
0.0381
 10
52.9991
 20
3.11
 42
1.0
 10
52.961
 20
3.11
  0
LWPOLYLINE
  5
20B
330
1D
100
AcDbEntity
  8
20
100
AcDbPolyline
 90
        2
 70
     0
 43
0.0762
 10
52.98
 20
0.8088
 42
0.4142
 10
53.7588
 20
0.03
  0
LWPOLYLINE
  5
20F
330
1D
100
AcDbEntity
  8
20
100
AcDbPolyline
 90
        2
 70
     0
 43
0.0381
 10
52.9991
 20
0.8088
 42
1.0
 10
52.961
 20
0.8088
  0
LWPOLYLINE
  5
213
330
1D
100
AcDbEntity
  8
20
100
AcDbPolyline
 90
        2
 70
     0
 43
0.0381
 10
53.7588
 20
0.011
 42
1.0
 10
53.7588
 20
0.0491
  0
LWPOLYLINE
  5
217
330
1D
100
AcDbEntity
  8
20
100
AcDbPolyline
 90
        2
 70
     0
 43
0.0762
 10
53.7588
 20
0.03
 10
76.998
 20
0.03
  0
LWPOLYLINE
  5
21B
330
1D
100
AcDbEntity
  8
20
100
AcDbPolyline
 90
        2
 70
     0
 43
0.0381
 10
76.998
 20
0.011
 42
1.0
 10
76.998
 20
0.0491
  0
LWPOLYLINE
  5
21F
330
1D
100
AcDbEntity
  8
20
100
AcDbPolyline
 90
        2
 70
     0
 43
0.0381
 10
53.7588
 20
0.0491
 42
1.0
 10
53.7588
 20
0.011
  0
LWPOLYLINE
  5
223
330
1D
100
AcDbEntity
  8
20
100
AcDbPolyline
 90
        2
 70
     0
 43
0.0762
 10
76.998
 20
0.03
 42
0.4142
 10
77.84
 20
0.872
  0
LWPOLYLINE
  5
227
330
1D
100
AcDbEntity
  8
20
100
AcDbPolyline
 90
        2
 70
     0
 43
0.0381
 10
76.998
 20
0.0491
 42
1.0
 10
76.998
 20
0.011
  0
LWPOLYLINE
  5
22B
330
1D
100
AcDbEntity
  8
20
100
AcDbPolyline
 90
        2
 70
     0
 43
0.0381
 10
77.859
 20
0.872
 42
1.0
 10
77.821
 20
0.872
  0
LWPOLYLINE
  5
22F
330
1D
100
AcDbEntity
  8
20
100
AcDbPolyline
 90
        2
 70
     0
 43
0.0762
 10
77.84
 20
0.872
 10
77.84
 20
3.0619
  0
LWPOLYLINE
  5
233
330
1D
100
AcDbEntity
  8
20
100
AcDbPolyline
 90
        2
 70
     0
 43
0.0381
 10
77.859
 20
3.0619
 42
1.0
 10
77.821
 20
3.0619
  0
LWPOLYLINE
  5
237
330
1D
100
AcDbEntity
  8
20
100
AcDbPolyline
 90
        2
 70
     0
 43
0.0381
 10
77.821
 20
0.872
 42
1.0
 10
77.859
 20
0.872
  0
LWPOLYLINE
  5
23B
330
1D
100
AcDbEntity
  8
20
100
AcDbPolyline
 90
        2
 70
     0
 43
0.0762
 10
77.84
 20
3.0619
 42
0.4142
 10
76.9419
 20
3.96
  0
LWPOLYLINE
  5
23F
330
1D
100
AcDbEntity
  8
20
100
AcDbPolyline
 90
        2
 70
     0
 43
0.0381
 10
77.821
 20
3.0619
 42
1.0
 10
77.859
 20
3.0619
  0
LWPOLYLINE
  5
243
330
1D
100
AcDbEntity
  8
20
100
AcDbPolyline
 90
        2
 70
     0
 43
0.0381
 10
76.9419
 20
3.9791
 42
1.0
 10
76.9419
 20
3.941
  0
LWPOLYLINE
  5
247
330
1D
100
AcDbEntity
  8
20
100
AcDbPolyline
 90
        2
 70
     0
 43
0.0762
 10
76.9419
 20
3.96
 10
70.7832
 20
3.96
  0
LWPOLYLINE
  5
24B
330
1D
100
AcDbEntity
  8
20
100
AcDbPolyline
 90
        2
 70
     0
 43
0.0381
 10
70.7832
 20
3.9791
 42
1.0
 10
70.7832
 20
3.941
  0
LWPOLYLINE
  5
24F
330
1D
100
AcDbEntity
  8
20
100
AcDbPolyline
 90
        2
 70
     0
 43
0.0381
 10
76.9419
 20
3.941
 42
1.0
 10
76.9419
 20
3.9791
  0
LWPOLYLINE
  5
253
330
1D
100
AcDbEntity
  8
20
100
AcDbPolyline
 90
        2
 70
     0
 43
0.0762
 10
70.07
 20
4.6732
 42
0.4142
 10
70.7832
 20
3.96
  0
LWPOLYLINE
  5
257
330
1D
100
AcDbEntity
  8
20
100
AcDbPolyline
 90
        2
 70
     0
 43
0.0381
 10
70.0891
 20
4.6732
 42
1.0
 10
70.051
 20
4.6732
  0
LWPOLYLINE
  5
25B
330
1D
100
AcDbEntity
  8
20
100
AcDbPolyline
 90
        2
 70
     0
 43
0.0381
 10
70.7832
 20
3.941
 42
1.0
 10
70.7832
 20
3.9791
  0
LWPOLYLINE
  5
25F
330
1D
100
AcDbEntity
  8
20
100
AcDbPolyline
 90
        2
 70
     0
 43
0.0762
 10
70.07
 20
4.6732
 10
70.07
 20
59.0177
  0
LWPOLYLINE
  5
263
330
1D
100
AcDbEntity
  8
20
100
AcDbPolyline
 90
        2
 70
     0
 43
0.0381
 10
70.0891
 20
59.0177
 42
1.0
 10
70.051
 20
59.0177
  0
LWPOLYLINE
  5
267
330
1D
100
AcDbEntity
  8
20
100
AcDbPolyline
 90
        2
 70
     0
 43
0.0381
 10
70.051
 20
4.6732
 42
1.0
 10
70.0891
 20
4.6732
  0
LWPOLYLINE
  5
26B
330
1D
100
AcDbEntity
  8
20
100
AcDbPolyline
 90
        2
 70
     0
 43
0.0762
 10
21.255
 20
7.737
 10
28.77
 20
6.78
  0
LWPOLYLINE
  5
26F
330
1D
100
AcDbEntity
  8
20
100
AcDbPolyline
 90
        2
 70
     0
 43
0.0381
 10
28.7676
 20
6.7611
 42
1.0
 10
28.7724
 20
6.7989
  0
LWPOLYLINE
  5
273
330
1D
100
AcDbEntity
  8
20
100
AcDbPolyline
 90
        2
 70
     0
 43
0.0381
 10
21.2574
 20
7.7559
 42
1.0
 10
21.2526
 20
7.7181
  0
LWPOLYLINE
  5
277
330
1D
100
AcDbEntity
  8
20
100
AcDbPolyline
 90
        2
 70
     0
 43
0.0762
 10
28.77
 20
6.78
 42
0.0303
 10
33.97
 20
6.44
  0
LWPOLYLINE
  5
27B
330
1D
100
AcDbEntity
  8
20
100
AcDbPolyline
 90
        2
 70
     0
 43
0.0381
 10
28.7724
 20
6.7989
 42
1.0
 10
28.7676
 20
6.7611
  0
LWPOLYLINE
  5
27F
330
1D
100
AcDbEntity
  8
20
100
AcDbPolyline
 90
        2
 70
     0
 43
0.0381
 10
33.9699
 20
6.421
 42
1.0
 10
33.9701
 20
6.459
  0
LWPOLYLINE
  5
283
330
1D
100
AcDbEntity
  8
20
100
AcDbPolyline
 90
        2
 70
     0
 43
0.0762
 10
35.68
 20
6.37
 42
0.0181
 10
33.97
 20
6.44
  0
LWPOLYLINE
  5
287
330
1D
100
AcDbEntity
  8
20
100
AcDbPolyline
 90
        2
 70
     0
 43
0.0381
 10
35.6785
 20
6.351
 42
1.0
 10
35.6815
 20
6.389
  0
LWPOLYLINE
  5
28B
330
1D
100
AcDbEntity
  8
20
100
AcDbPolyline
 90
        2
 70
     0
 43
0.0381
 10
33.9701
 20
6.459
 42
1.0
 10
33.9699
 20
6.421
  0
LWPOLYLINE
  5
28F
330
1D
100
AcDbEntity
  8
20
100
AcDbPolyline
 90
        2
 70
     0
 43
0.0762
 10
35.68
 20
6.37
 42
0.0332
 10
39.42
 20
6.33
  0
LWPOLYLINE
  5
293
330
1D
100
AcDbEntity
  8
20
100
AcDbPolyline
 90
        2
 70
     0
 43
0.0381
 10
35.6815
 20
6.389
 42
1.0
 10
35.6785
 20
6.351
  0
LWPOLYLINE
  5
297
330
1D
100
AcDbEntity
  8
20
100
AcDbPolyline
 90
        2
 70
     0
 43
0.0381
 10
39.4211
 20
6.311
 42
1.0
 10
39.4189
 20
6.349
  0
LWPOLYLINE
  5
29B
330
1D
100
AcDbEntity
  8
20
100
AcDbPolyline
 90
        2
 70
     0
 43
0.0762
 10
40.5
 20
6.32
 42
0.0325
 10
39.42
 20
6.33
  0
LWPOLYLINE
  5
29F
330
1D
100
AcDbEntity
  8
20
100
AcDbPolyline
 90
        2
 70
     0
 43
0.0381
 10
40.4986
 20
6.301
 42
1.0
 10
40.5014
 20
6.339
  0
LWPOLYLINE
  5
2A3
330
1D
100
AcDbEntity
  8
20
100
AcDbPolyline
 90
        2
 70
     0
 43
0.0381
 10
39.4189
 20
6.349
 42
1.0
 10
39.4211
 20
6.311
  0
LWPOLYLINE
  5
2A7
330
1D
100
AcDbEntity
  8
20
100
AcDbPolyline
 90
        2
 70
     0
 43
0.0762
 10
40.5
 20
6.32
 42
0.0371
 10
41.24
 20
6.32
  0
LWPOLYLINE
  5
2AB
330
1D
100
AcDbEntity
  8
20
100
AcDbPolyline
 90
        2
 70
     0
 43
0.0381
 10
40.5014
 20
6.339
 42
1.0
 10
40.4986
 20
6.301
  0
LWPOLYLINE
  5
2AF
330
1D
100
AcDbEntity
  8
20
100
AcDbPolyline
 90
        2
 70
     0
 43
0.0381
 10
41.2414
 20
6.301
 42
1.0
 10
41.2386
 20
6.339
  0
LWPOLYLINE
  5
2B3
330
1D
100
AcDbEntity
  8
20
100
AcDbPolyline
 90
        2
 70
     0
 43
0.0762
 10
42.85
 20
6.37
 42
0.0216
 10
41.24
 20
6.32
  0
LWPOLYLINE
  5
2B7
330
1D
100
AcDbEntity
  8
20
100
AcDbPolyline
 90
        2
 70
     0
 43
0.0381
 10
42.8498
 20
6.351
 42
1.0
 10
42.8502
 20
6.389
  0
LWPOLYLINE
  5
2BB
330
1D
100
AcDbEntity
  8
20
100
AcDbPolyline
 90
        2
 70
     0
 43
0.0381
 10
41.2386
 20
6.339
 42
1.0
 10
41.2414
 20
6.301
  0
LWPOLYLINE
  5
2BF
330
1D
100
AcDbEntity
  8
20
100
AcDbPolyline
 90
        2
 70
     0
 43
0.0762
 10
42.85
 20
6.37
 42
0.0239
 10
44.81
 20
6.44
  0
LWPOLYLINE
  5
2C3
330
1D
100
AcDbEntity
  8
20
100
AcDbPolyline
 90
        2
 70
     0
 43
0.0381
 10
42.8502
 20
6.389
 42
1.0
 10
42.8498
 20
6.351
  0
LWPOLYLINE
  5
2C7
330
1D
100
AcDbEntity
  8
20
100
AcDbPolyline
 90
        2
 70
     0
 43
0.0381
 10
44.8116
 20
6.421
 42
1.0
 10
44.8084
 20
6.459
  0
LWPOLYLINE
  5
2CB
330
1D
100
AcDbEntity
  8
20
100
AcDbPolyline
 90
        2
 70
     0
 43
0.0762
 10
45.85
 20
6.5
 42
0.0129
 10
44.81
 20
6.44
  0
LWPOLYLINE
  5
2CF
330
1D
100
AcDbEntity
  8
20
100
AcDbPolyline
 90
        2
 70
     0
 43
0.0381
 10
45.8506
 20
6.481
 42
1.0
 10
45.8494
 20
6.519
  0
LWPOLYLINE
  5
2D3
330
1D
100
AcDbEntity
  8
20
100
AcDbPolyline
 90
        2
 70
     0
 43
0.0381
 10
44.8084
 20
6.459
 42
1.0
 10
44.8116
 20
6.421
  0
LWPOLYLINE
  5
2D7
330
1D
100
AcDbEntity
  8
20
100
AcDbPolyline
 90
        2
 70
     0
 43
0.0762
 10
45.85
 20
6.5
 42
0.0244
 10
50.06
 20
6.84
  0
LWPOLYLINE
  5
2DB
330
1D
100
AcDbEntity
  8
20
100
AcDbPolyline
 90
        2
 70
     0
 43
0.0381
 10
45.8494
 20
6.519
 42
1.0
 10
45.8506
 20
6.481
  0
LWPOLYLINE
  5
2DF
330
1D
100
AcDbEntity
  8
20
100
AcDbPolyline
 90
        2
 70
     0
 43
0.0381
 10
50.0625
 20
6.8211
 42
1.0
 10
50.0575
 20
6.8589
  0
LWPOLYLINE
  5
2E3
330
1D
100
AcDbEntity
  8
20
100
AcDbPolyline
 90
        2
 70
     0
 43
0.0762
 10
51.14
 20
6.94
 42
0.0186
 10
50.06
 20
6.84
  0
LWPOLYLINE
  5
2E7
330
1D
100
AcDbEntity
  8
20
100
AcDbPolyline
 90
        2
 70
     0
 43
0.0381
 10
51.1411
 20
6.921
 42
1.0
 10
51.1389
 20
6.959
  0
LWPOLYLINE
  5
2EB
330
1D
100
AcDbEntity
  8
20
100
AcDbPolyline
 90
        2
 70
     0
 43
0.0381
 10
50.0575
 20
6.8589
 42
1.0
 10
50.0625
 20
6.8211
  0
LWPOLYLINE
  5
2EF
330
1D
100
AcDbEntity
  8
20
100
AcDbPolyline
 90
        2
 70
     0
 43
0.0762
 10
51.15
 20
6.94
 10
54.67
 20
7.42
  0
LWPOLYLINE
  5
2F3
330
1D
100
AcDbEntity
  8
20
100
AcDbPolyline
 90
        2
 70
     0
 43
0.0381
 10
54.6726
 20
7.4011
 42
1.0
 10
54.6674
 20
7.4389
  0
LWPOLYLINE
  5
2F7
330
1D
100
AcDbEntity
  8
20
100
AcDbPolyline
 90
        2
 70
     0
 43
0.0381
 10
51.1474
 20
6.9589
 42
1.0
 10
51.1526
 20
6.9211
  0
LWPOLYLINE
  5
2FB
330
1D
100
AcDbEntity
  8
20
100
AcDbPolyline
 90
        2
 70
     0
 43
0.0762
 10
54.67
 20
7.42
 42
0.0075
 10
56.78
 20
7.74
  0
LWPOLYLINE
  5
2FF
330
1D
100
AcDbEntity
  8
20
100
AcDbPolyline
 90
        2
 70
     0
 43
0.0381
 10
54.6674
 20
7.4389
 42
1.0
 10
54.6726
 20
7.4011
  0
LWPOLYLINE
  5
303
330
1D
100
AcDbEntity
  8
20
100
AcDbPolyline
 90
        2
 70
     0
 43
0.0381
 10
56.7831
 20
7.7212
 42
1.0
 10
56.7769
 20
7.7588
  0
CIRCLE
  5
307
330
1D
100
AcDbEntity
  8
20
100
AcDbCircle
 10
10.7389
 20
59.1468
 30
0.0
 40
1.45
  0
CIRCLE
  5
308
330
1D
100
AcDbEntity
  8
20
100
AcDbCircle
 10
67.2365
 20
59.0877
 30
0.0
 40
1.45
  0
CIRCLE
  5
309
330
1D
100
AcDbEntity
  8
20
100
AcDbCircle
 10
67.2365
 20
8.7638
 30
0.0
 40
1.45
  0
CIRCLE
  5
30A
330
1D
100
AcDbEntity
  8
20
100
AcDbCircle
 10
10.4195
 20
7.8388
 30
0.0
 40
1.45
  0
ENDSEC
  0
SECTION
  2
OBJECTS
  0
DICTIONARY
  5
C
330
0
100
AcDbDictionary
  3
ACAD_GROUP
350
D
  3
ACAD_LAYOUT
350
1A
  3
ACAD_MATERIAL
350
34A
  3
ACAD_MLEADERSTYLE
350
350
  3
ACAD_MLINESTYLE
350
17
  3
ACAD_PLOTSETTINGS
350
19
  3
ACAD_SCALELIST
350
30B
  3
ACAD_VISUALSTYLE
350
331
  3
ACDBHEADERROUNDTRIPXREC
350
352
  3
ACDBVARIABLEDICTIONARY
350
373
  0
DICTIONARY
  5
37B
330
8
100
AcDbDictionary
280
     1
  3
ACAD_XREC_ROUNDTRIP
360
37C
  0
DICTIONARY
  5
D
102
{ACAD_REACTORS
330
C
102
}
330
C
100
AcDbDictionary
  0
DICTIONARY
  5
1A
102
{ACAD_REACTORS
330
C
102
}
330
C
100
AcDbDictionary
  0
DICTIONARY
  5
34A
102
{ACAD_REACTORS
330
C
102
}
330
C
100
AcDbDictionary
  3
BYBLOCK
350
34C
  3
BYLAYER
350
34B
  3
GLOBAL
350
34D
  0
DICTIONARY
  5
350
102
{ACAD_REACTORS
330
C
102
}
330
C
100
AcDbDictionary
  3
STANDARD
350
351
  0
DICTIONARY
  5
17
102
{ACAD_REACTORS
330
C
102
}
330
C
100
AcDbDictionary
  3
STANDARD
350
18
  0
DICTIONARY
  5
19
102
{ACAD_REACTORS
330
C
102
}
330
C
100
AcDbDictionary
  0
DICTIONARY
  5
30B
102
{ACAD_REACTORS
330
C
102
}
330
C
100
AcDbDictionary
  3
A0
350
30C
  3
A1
350
30D
  3
A2
350
30E
  3
A3
350
30F
  3
A4
350
310
  3
A5
350
311
  3
A6
350
312
  3
A7
350
313
  3
A8
350
314
  3
A9
350
315
  3
B0
350
316
  3
B1
350
317
  3
B2
350
318
  3
B3
350
319
  3
B4
350
31A
  3
B5
350
31B
  3
B6
350
31C
  3
B7
350
31D
  3
B8
350
31E
  3
B9
350
31F
  3
C0
350
320
  3
C1
350
321
  3
C2
350
322
  3
C3
350
323
  3
C4
350
324
  3
C5
350
325
  3
C6
350
326
  3
C7
350
327
  3
C8
350
328
  3
C9
350
329
  3
D0
350
32A
  3
D1
350
32B
  3
D2
350
32C
  0
DICTIONARY
  5
331
102
{ACAD_REACTORS
330
C
102
}
330
C
100
AcDbDictionary
  3
2DWIREFRAME
350
336
  3
BASIC
350
339
  3
BRIGHTEN
350
33D
  3
COLORCHANGE
350
341
  3
CONCEPTUAL
350
33B
  3
DIM
350
33C
  3
EDGECOLOROFF
350
344
  3
FACEPATTERN
350
340
  3
FLAT
350
332
  3
FLATWITHEDGES
350
333
  3
GOURAUD
350
334
  3
GOURAUDWITHEDGES
350
335
  3
HIDDEN
350
338
  3
JITTEROFF
350
342
  3
LINEPATTERN
350
33F
  3
OVERHANGOFF
350
343
  3
REALISTIC
350
33A
  3
SHADED
350
349
  3
SHADED_WITH_EDGES
350
348
  3
SHADES_OF_GRAY
350
345
  3
SKETCHY
350
346
  3
THICKEN
350
33E
  3
WIREFRAME
350
337
  3
X-RAY
350
347
  0
DICTIONARY
  5
352
102
{ACAD_REACTORS
330
C
102
}
330
C
100
AcDbDictionary
  3
CEPSNID
350
35C
  3
CEPSNTYPE
350
35B
  3
DIMSTYLEDATA
350
372
  3
FINGERPRINTGUID
350
35D
  3
HYPERLINKBASE
350
355
  3
INSUNITS
350
35A
  3
LAYOUTDICT
350
357
  3
LWETCUNION
350
359
  3
PLOTSETDICT
350
358
  3
PSVPSCALE
350
35F
  3
PUCSBASE
350
362
  3
PUCSORGBACK
350
368
  3
PUCSORGBOTTOM
350
364
  3
PUCSORGFRONT
350
367
  3
PUCSORGLEFT
350
365
  3
PUCSORGRIGHT
350
366
  3
PUCSORGTOP
350
363
  3
PUCSORTHOREF
350
360
  3
PUCSORTHOVIEW
350
361
  3
STYLESHEET
350
356
  3
TSTACKALIGN
350
353
  3
TSTACKSIZE
350
354
  3
UCSBASE
350
36B
  3
UCSORGBACK
350
371
  3
UCSORGBOTTOM
350
36D
  3
UCSORGFRONT
350
370
  3
UCSORGLEFT
350
36E
  3
UCSORGRIGHT
350
36F
  3
UCSORGTOP
350
36C
  3
UCSORTHOREF
350
369
  3
UCSORTHOVIEW
350
36A
  3
VERSIONGUID
350
35E
  0
DICTIONARY
  5
373
102
{ACAD_REACTORS
330
C
102
}
330
C
100
AcDbDictionary
  3
CANNOSCALE
350
37D
  3
CMLEADERSTYLE
350
375
  3
CTABLESTYLE
350
374
  3
DIMASSOC
350
379
  3
HIDETEXT
350
37A
  3
MSLTSCALE
350
376
  0
XRECORD
  5
37C
102
{ACAD_REACTORS
330
37B
102
}
330
37B
100
AcDbXrecord
102
VTR_0.000_0.000_1.000_1.000_VISUALSTYLE
340
336
102
VTR_0.000_0.000_1.000_1.000_GRIDDISPLAY
 70
     3
102
VTR_0.000_0.000_1.000_1.000_GRIDMAJOR
 70
     5
102
VTR_0.000_0.000_1.000_1.000_DEFAULTLIGHTING
280
     1
102
VTR_0.000_0.000_1.000_1.000_DEFAULTLIGHTINGTYPE
 70
     1
102
VTR_0.000_0.000_1.000_1.000_BRIGHTNESS
141
0.0
102
VTR_0.000_0.000_1.000_1.000_CONTRAST
142
0.0
  0
MATERIAL
  5
34C
102
{ACAD_REACTORS
330
34A
102
}
102
{ACAD_XDICTIONARY
360
380
102
}
330
34A
100
AcDbMaterial
  1
BYBLOCK
  0
MATERIAL
  5
34B
102
{ACAD_REACTORS
330
34A
102
}
102
{ACAD_XDICTIONARY
360
37E
102
}
330
34A
100
AcDbMaterial
  1
BYLAYER
  0
MATERIAL
  5
34D
102
{ACAD_REACTORS
330
34A
102
}
102
{ACAD_XDICTIONARY
360
382
102
}
330
34A
100
AcDbMaterial
  1
GLOBAL
  0
ACAD_PROXY_OBJECT
  5
351
102
{ACAD_REACTORS
330
350
102
}
330
350
100
AcDbProxyObject
 90
      499
 91
      505
 93
      610
310
40901902A4063FBFFFFFE056BD1B81E855B9FC0AD7A3703D0AD73F4214DD185B99185C9900AD7A3703D0AC73F90141901A02B5E8DC0F42B1CFC02B5E8DC0F42B1CFE5764000000000000300FC0
340
14
340
0
340
11
340
0
 94
        0
1001
ACAD_MLEADERVER
1070
     2
  0
MLINESTYLE
  5
18
102
{ACAD_REACTORS
330
17
102
}
330
17
100
AcDbMlineStyle
  2
Standard
 70
     0
  3

 62
   256
 51
90.0
 52
90.0
 71
     2
 49
0.5
 62
   256
  6
BYLAYER
 49
-0.5
 62
   256
  6
BYLAYER
  0
ACAD_PROXY_OBJECT
  5
30C
102
{ACAD_REACTORS
330
30B
102
}
330
30B
100
AcDbProxyObject
 90
      499
 91
      501
 93
       41
310
903313A31580
  0
ACAD_PROXY_OBJECT
  5
30D
102
{ACAD_REACTORS
330
30B
102
}
330
30B
100
AcDbProxyObject
 90
      499
 91
      501
 93
      105
310
903313A324000000000000004000
  0
ACAD_PROXY_OBJECT
  5
30E
102
{ACAD_REACTORS
330
30B
102
}
330
30B
100
AcDbProxyObject
 90
      499
 91
      501
 93
      105
310
903313A344000000000000104000
  0
ACAD_PROXY_OBJECT
  5
30F
102
{ACAD_REACTORS
330
30B
102
}
330
30B
100
AcDbProxyObject
 90
      499
 91
      501
 93
      105
310
903313A354000000000000144000
  0
ACAD_PROXY_OBJECT
  5
310
102
{ACAD_REACTORS
330
30B
102
}
330
30B
100
AcDbProxyObject
 90
      499
 91
      501
 93
      105
310
903313A384000000000000204000
  0
ACAD_PROXY_OBJECT
  5
311
102
{ACAD_REACTORS
330
30B
102
}
330
30B
100
AcDbProxyObject
 90
      499
 91
      501
 93
      113
310
904313A31304000000000000244000
  0
ACAD_PROXY_OBJECT
  5
312
102
{ACAD_REACTORS
330
30B
102
}
330
30B
100
AcDbProxyObject
 90
      499
 91
      501
 93
      113
310
904313A31364000000000000304000
  0
ACAD_PROXY_OBJECT
  5
313
102
{ACAD_REACTORS
330
30B
102
}
330
30B
100
AcDbProxyObject
 90
      499
 91
      501
 93
      113
310
904313A32304000000000000344000
  0
ACAD_PROXY_OBJECT
  5
314
102
{ACAD_REACTORS
330
30B
102
}
330
30B
100
AcDbProxyObject
 90
      499
 91
      501
 93
      113
310
904313A333040000000000003E4000
  0
ACAD_PROXY_OBJECT
  5
315
102
{ACAD_REACTORS
330
30B
102
}
330
30B
100
AcDbProxyObject
 90
      499
 91
      501
 93
      113
310
904313A34304000000000000444000
  0
ACAD_PROXY_OBJECT
  5
316
102
{ACAD_REACTORS
330
30B
102
}
330
30B
100
AcDbProxyObject
 90
      499
 91
      501
 93
      113
310
904313A35304000000000000494000
  0
ACAD_PROXY_OBJECT
  5
317
102
{ACAD_REACTORS
330
30B
102
}
330
30B
100
AcDbProxyObject
 90
      499
 91
      501
 93
      121
310
905313A3130304000000000000594000
  0
ACAD_PROXY_OBJECT
  5
318
102
{ACAD_REACTORS
330
30B
102
}
330
30B
100
AcDbProxyObject
 90
      499
 91
      501
 93
      105
310
903323A310000000000000010100
  0
ACAD_PROXY_OBJECT
  5
319
102
{ACAD_REACTORS
330
30B
102
}
330
30B
100
AcDbProxyObject
 90
      499
 91
      501
 93
      105
310
903343A310000000000000410100
  0
ACAD_PROXY_OBJECT
  5
31A
102
{ACAD_REACTORS
330
30B
102
}
330
30B
100
AcDbProxyObject
 90
      499
 91
      501
 93
      105
310
903383A310000000000000810100
  0
ACAD_PROXY_OBJECT
  5
31B
102
{ACAD_REACTORS
330
30B
102
}
330
30B
100
AcDbProxyObject
 90
      499
 91
      501
 93
      113
310
90431303A310000000000000910100
  0
ACAD_PROXY_OBJECT
  5
31C
102
{ACAD_REACTORS
330
30B
102
}
330
30B
100
AcDbProxyObject
 90
      499
 91
      501
 93
      121
310
9053130303A310000000000001650100
  0
ACAD_PROXY_OBJECT
  5
31D
102
{ACAD_REACTORS
330
30B
102
}
330
30B
100
AcDbProxyObject
 90
      499
 91
      501
 93
      257
310
90E312F31323822203D2031272D3022000000000000200FC000000000000284000
  0
ACAD_PROXY_OBJECT
  5
31E
102
{ACAD_REACTORS
330
30B
102
}
330
30B
100
AcDbProxyObject
 90
      499
 91
      501
 93
      249
310
90D312F363422203D2031272D3022000000000000240FC000000000000284000
  0
ACAD_PROXY_OBJECT
  5
31F
102
{ACAD_REACTORS
330
30B
102
}
330
30B
100
AcDbProxyObject
 90
      499
 91
      501
 93
      249
310
90D312F333222203D2031272D3022000000000000280FC000000000000284000
  0
ACAD_PROXY_OBJECT
  5
320
102
{ACAD_REACTORS
330
30B
102
}
330
30B
100
AcDbProxyObject
 90
      499
 91
      501
 93
      249
310
90D312F313622203D2031272D30220000000000002C0FC000000000000284000
  0
ACAD_PROXY_OBJECT
  5
321
102
{ACAD_REACTORS
330
30B
102
}
330
30B
100
AcDbProxyObject
 90
      499
 91
      501
 93
      249
310
90D332F333222203D2031272D30220000000000002E0FC000000000000284000
  0
ACAD_PROXY_OBJECT
  5
322
102
{ACAD_REACTORS
330
30B
102
}
330
30B
100
AcDbProxyObject
 90
      499
 91
      501
 93
      241
310
90C312F3822203D2031272D3022000000000000300FC000000000000284000
  0
ACAD_PROXY_OBJECT
  5
323
102
{ACAD_REACTORS
330
30B
102
}
330
30B
100
AcDbProxyObject
 90
      499
 91
      501
 93
      249
310
90D332F313622203D2031272D3022000000000000320FC000000000000284000
  0
ACAD_PROXY_OBJECT
  5
324
102
{ACAD_REACTORS
330
30B
102
}
330
30B
100
AcDbProxyObject
 90
      499
 91
      501
 93
      241
310
90C312F3422203D2031272D3022000000000000340FC000000000000284000
  0
ACAD_PROXY_OBJECT
  5
325
102
{ACAD_REACTORS
330
30B
102
}
330
30B
100
AcDbProxyObject
 90
      499
 91
      501
 93
      241
310
90C332F3822203D2031272D3022000000000000360FC000000000000284000
  0
ACAD_PROXY_OBJECT
  5
326
102
{ACAD_REACTORS
330
30B
102
}
330
30B
100
AcDbProxyObject
 90
      499
 91
      501
 93
      241
310
90C312F3222203D2031272D3022000000000000380FC000000000000284000
  0
ACAD_PROXY_OBJECT
  5
327
102
{ACAD_REACTORS
330
30B
102
}
330
30B
100
AcDbProxyObject
 90
      499
 91
      501
 93
      241
310
90C332F3422203D2031272D30220000000000003A0FC000000000000284000
  0
ACAD_PROXY_OBJECT
  5
328
102
{ACAD_REACTORS
330
30B
102
}
330
30B
100
AcDbProxyObject
 90
      499
 91
      501
 93
      161
310
90A3122203D2031272D30224000000000000284000
  0
ACAD_PROXY_OBJECT
  5
329
102
{ACAD_REACTORS
330
30B
102
}
330
30B
100
AcDbProxyObject
 90
      499
 91
      501
 93
      257
310
90E312D312F3222203D2031272D30220000000000003E0FC000000000000284000
  0
ACAD_PROXY_OBJECT
  5
32A
102
{ACAD_REACTORS
330
30B
102
}
330
30B
100
AcDbProxyObject
 90
      499
 91
      501
 93
      225
310
90A3322203D2031272D302200000000000002100000000000000284000
  0
ACAD_PROXY_OBJECT
  5
32B
102
{ACAD_REACTORS
330
30B
102
}
330
30B
100
AcDbProxyObject
 90
      499
 91
      501
 93
      225
310
90A3622203D2031272D302200000000000006100000000000000284000
  0
ACAD_PROXY_OBJECT
  5
32C
102
{ACAD_REACTORS
330
30B
102
}
330
30B
100
AcDbProxyObject
 90
      499
 91
      501
 93
      249
310
90D31272D3022203D2031272D30220000000000000A100000000000000284000
  0
ACAD_PROXY_OBJECT
  5
336
102
{ACAD_REACTORS
330
331
102
}
330
331
100
AcDbProxyObject
 90
      499
 91
      502
 93
      436
310
42CC9915DA5C99599C985B595049028333333333333E33F0000000000000F90107901411070040501600405405064090741402480A0340
1001
ACAD
1000
AcDbSavedByObjectVersion
1070
     0
  0
ACAD_PROXY_OBJECT
  5
339
102
{ACAD_REACTORS
330
331
102
}
330
331
100
AcDbProxyObject
 90
      499
 91
      502
 93
      388
310
4150985CDA58D07406404333333333333E33F0000000000000F90107A41107004050150841D405064090741402480A0350
1001
ACAD
1000
AcDbSavedByObjectVersion
1070
     0
  0
ACAD_PROXY_OBJECT
  5
33D
102
{ACAD_REACTORS
330
331
102
}
330
331
100
AcDbProxyObject
 90
      499
 91
      502
 93
      428
310
42109C9A59DA1D195B90C409028333333333333E33F0000000000000F9010790141107004050150841D405064090741402480A029950
1001
ACAD
1000
AcDbSavedByObjectVersion
1070
     0
  0
ACAD_PROXY_OBJECT
  5
341
102
{ACAD_REACTORS
330
331
102
}
330
331
100
AcDbProxyObject
 90
      499
 91
      502
 93
      452
310
42D0DBDB1BDC90DA185B99D95104090240C333333333333E33F0000000000000F90108901411070040501508421405064090741402480A0350
1001
ACAD
1000
AcDbSavedByObjectVersion
1070
     0
  0
ACAD_PROXY_OBJECT
  5
33B
102
{ACAD_REACTORS
330
331
102
}
330
331
100
AcDbProxyObject
 90
      499
 91
      502
 93
      500
310
4290DBDB98D95C1D1D585B10940D028333333333333E33F0000000000000F90107902409070040501000000000018199010841D405064090740C02480A0340
1001
ACAD
1000
AcDbSavedByObjectVersion
1070
     0
  0
ACAD_PROXY_OBJECT
  5
33C
102
{ACAD_REACTORS
330
331
102
}
330
331
100
AcDbProxyObject
 90
      499
 91
      502
 93
      412
310
40D11A5B50B409028333333333333E33F0000000000000F9010790141107004050150841D405064090741402480A02677FFFFFD0
1001
ACAD
1000
AcDbSavedByObjectVersion
1070
     0
  0
ACAD_PROXY_OBJECT
  5
344
102
{ACAD_REACTORS
330
331
102
}
330
331
100
AcDbProxyObject
 90
      499
 91
      502
 93
      452
310
43115919D950DBDB1BDC93D999916409028333333333333E33F0000000000000F9010790141107004050150841D405064090741402480A0350
1001
ACAD
1000
AcDbSavedByObjectVersion
1070
     0
  0
ACAD_PROXY_OBJECT
  5
340
102
{ACAD_REACTORS
330
331
102
}
330
331
100
AcDbProxyObject
 90
      499
 91
      502
 93
      444
310
42D19858D95C185D1D195C9B90F409028333333333333E33F0000000000000F9010790141107004050150841D405064090741402480A0350
1001
ACAD
1000
AcDbSavedByObjectVersion
1070
     0
  0
ACAD_PROXY_OBJECT
  5
332
102
{ACAD_REACTORS
330
331
102
}
330
331
100
AcDbProxyObject
 90
      499
 91
      502
 93
      380
310
41119B185D240901404333333333333E33F0000000000000F9010740A907004050150841D405064090741402480A1B50
1001
ACAD
1000
AcDbSavedByObjectVersion
1070
     0
  0
ACAD_PROXY_OBJECT
  5
333
102
{ACAD_REACTORS
330
331
102
}
330
331
100
AcDbProxyObject
 90
      499
 91
      502
 93
      468
310
43519B185D15DA5D1A115919D95CD0140901404333333333333E33F0000000000000F90107409019070040501600405405064090741402480A1B50
1001
ACAD
1000
AcDbSavedByObjectVersion
1070
     0
  0
ACAD_PROXY_OBJECT
  5
334
102
{ACAD_REACTORS
330
331
102
}
330
331
100
AcDbProxyObject
 90
      499
 91
      502
 93
      404
310
41D1DBDD5C985D5910240902404333333333333E33F0000000000000F9010740A9070040501641D405064090741402480A1B50
1001
ACAD
1000
AcDbSavedByObjectVersion
1070
     0
  0
ACAD_PROXY_OBJECT
  5
335
102
{ACAD_REACTORS
330
331
102
}
330
331
100
AcDbProxyObject
 90
      499
 91
      502
 93
      492
310
4411DBDD5C985D5915DA5D1A115919D95CD0340902404333333333333E33F0000000000000F90107409019070040501600405405064090741402480A1B50
1001
ACAD
1000
AcDbSavedByObjectVersion
1070
     0
  0
ACAD_PROXY_OBJECT
  5
338
102
{ACAD_REACTORS
330
331
102
}
330
331
100
AcDbProxyObject
 90
      499
 91
      502
 93
      476
310
41921A5919195B90640502408333333333333E33F0000000000000F901079024090700405020000000000001110200405405064090740C02480A0340
1001
ACAD
1000
AcDbSavedByObjectVersion
1070
     0
  0
ACAD_PROXY_OBJECT
  5
342
102
{ACAD_REACTORS
330
331
102
}
330
331
100
AcDbProxyObject
 90
      499
 91
      502
 93
      428
310
42529A5D1D195C93D999914409028333333333333E33F0000000000000F9010790141107004050150A41D405064090741402480A0350
1001
ACAD
1000
AcDbSavedByObjectVersion
1070
     0
  0
ACAD_PROXY_OBJECT
  5
33F
102
{ACAD_REACTORS
330
331
102
}
330
331
100
AcDbProxyObject
 90
      499
 91
      502
 93
      444
310
42D31A5B995C185D1D195C9B90E409028333333333333E33F0000000000000F9010790141107004050750841D405064090741402483A0350
1001
ACAD
1000
AcDbSavedByObjectVersion
1070
     0
  0
ACAD_PROXY_OBJECT
  5
343
102
{ACAD_REACTORS
330
331
102
}
330
331
100
AcDbProxyObject
 90
      499
 91
      502
 93
      444
310
42D3DD995C9A185B99D3D999915409028333333333333E33F0000000000000F9010790141107004050150941D405064090741402480A0350
1001
ACAD
1000
AcDbSavedByObjectVersion
1070
     0
  0
ACAD_PROXY_OBJECT
  5
33A
102
{ACAD_REACTORS
330
331
102
}
330
331
100
AcDbProxyObject
 90
      499
 91
      502
 93
      428
310
425499585B1A5CDD1A58D08409038333333333333E33F0000000000000F9010740A907004050150800405405064090740C02480A1B40
1001
ACAD
1000
AcDbSavedByObjectVersion
1070
     0
  0
ACAD_PROXY_OBJECT
  5
349
102
{ACAD_REACTORS
330
331
102
}
330
331
100
AcDbProxyObject
 90
      499
 91
      502
 93
      420
310
4194DA1859195911B40902404333333333333E33F0000000000000F9010740A41107004050150800405405064090840C02480A0B40
1001
ACAD
1000
AcDbSavedByObjectVersion
1070
     0
  0
ACAD_PROXY_OBJECT
  5
348
102
{ACAD_REACTORS
330
331
102
}
330
331
100
AcDbProxyObject
 90
      499
 91
      502
 93
      516
310
4454DA18591959081DDA5D1A08195919D95CD1A40902404333333333333E33F0000000000000F901074090142907004050250800405405064090740C02480A0B40
1001
ACAD
1000
AcDbSavedByObjectVersion
1070
     0
  0
ACAD_PROXY_OBJECT
  5
345
102
{ACAD_REACTORS
330
331
102
}
330
331
100
AcDbProxyObject
 90
      499
 91
      502
 93
      532
310
4394DA1859195CC81BD98811DC985E5174090240C333333333333E33F0000000000000F901079024090741D01000000000000111010841D405064090740C02480A0340
1001
ACAD
1000
AcDbSavedByObjectVersion
1070
     0
  0
ACAD_PROXY_OBJECT
  5
346
102
{ACAD_REACTORS
330
331
102
}
330
331
100
AcDbProxyObject
 90
      499
 91
      502
 93
      476
310
41D4DAD95D18DA1E51840502408333333333333E33F0000000000000F901079024090741D01000000000000111010B41D405064090741802480A0340
1001
ACAD
1000
AcDbSavedByObjectVersion
1070
     0
  0
ACAD_PROXY_OBJECT
  5
33E
102
{ACAD_REACTORS
330
331
102
}
330
331
100
AcDbProxyObject
 90
      499
 91
      502
 93
      412
310
41D51A1A58DAD95B90D409028333333333333E33F0000000000000F9010790141107004050150C41D405064090741402480A0350
1001
ACAD
1000
AcDbSavedByObjectVersion
1070
     0
  0
ACAD_PROXY_OBJECT
  5
337
102
{ACAD_REACTORS
330
331
102
}
330
331
100
AcDbProxyObject
 90
      499
 91
      502
 93
      420
310
4255DA5C99599C985B595059028333333333333E33F0000000000000F90107901411070040501600405405064090740C02480A0340
1001
ACAD
1000
AcDbSavedByObjectVersion
1070
     0
  0
ACAD_PROXY_OBJECT
  5
347
102
{ACAD_REACTORS
330
331
102
}
330
331
100
AcDbProxyObject
 90
      499
 91
      502
 93
      404
310
41560B54985E51940902404000000000000E03F0000000000000F9010740501907004050150841D405064090740C02480A1B40
1001
ACAD
1000
AcDbSavedByObjectVersion
1070
     0
  0
XRECORD
  5
35C
102
{ACAD_REACTORS
330
352
102
}
330
352
100
AcDbXrecord
340
0
  0
XRECORD
  5
35B
102
{ACAD_REACTORS
330
352
102
}
330
352
100
AcDbXrecord
 90
        0
  0
XRECORD
  5
372
102
{ACAD_REACTORS
330
352
102
}
330
352
100
AcDbXrecord
1000
DSTYLE
1002
{
1070
   279
 70
     2
1070
   340
340
11
1002
}
  0
XRECORD
  5
35D
102
{ACAD_REACTORS
330
352
102
}
330
352
100
AcDbXrecord
  1
{928A0350-4CD1-4AE1-8740-C0AF46D988AD}
  0
XRECORD
  5
355
102
{ACAD_REACTORS
330
352
102
}
330
352
100
AcDbXrecord
  1

  0
XRECORD
  5
35A
102
{ACAD_REACTORS
330
352
102
}
330
352
100
AcDbXrecord
 90
        0
  0
XRECORD
  5
357
102
{ACAD_REACTORS
330
352
102
}
330
352
100
AcDbXrecord
340
1A
  0
XRECORD
  5
359
102
{ACAD_REACTORS
330
352
102
}
330
352
100
AcDbXrecord
 90
    10781
  0
XRECORD
  5
358
102
{ACAD_REACTORS
330
352
102
}
330
352
100
AcDbXrecord
340
19
  0
XRECORD
  5
35F
102
{ACAD_REACTORS
330
352
102
}
330
352
100
AcDbXrecord
 40
0.0
  0
XRECORD
  5
362
102
{ACAD_REACTORS
330
352
102
}
330
352
100
AcDbXrecord
340
0
  0
XRECORD
  5
368
102
{ACAD_REACTORS
330
352
102
}
330
352
100
AcDbXrecord
 10
0.0
 20
0.0
 30
0.0
  0
XRECORD
  5
364
102
{ACAD_REACTORS
330
352
102
}
330
352
100
AcDbXrecord
 10
0.0
 20
0.0
 30
0.0
  0
XRECORD
  5
367
102
{ACAD_REACTORS
330
352
102
}
330
352
100
AcDbXrecord
 10
0.0
 20
0.0
 30
0.0
  0
XRECORD
  5
365
102
{ACAD_REACTORS
330
352
102
}
330
352
100
AcDbXrecord
 10
0.0
 20
0.0
 30
0.0
  0
XRECORD
  5
366
102
{ACAD_REACTORS
330
352
102
}
330
352
100
AcDbXrecord
 10
0.0
 20
0.0
 30
0.0
  0
XRECORD
  5
363
102
{ACAD_REACTORS
330
352
102
}
330
352
100
AcDbXrecord
 10
0.0
 20
0.0
 30
0.0
  0
XRECORD
  5
360
102
{ACAD_REACTORS
330
352
102
}
330
352
100
AcDbXrecord
340
0
  0
XRECORD
  5
361
102
{ACAD_REACTORS
330
352
102
}
330
352
100
AcDbXrecord
 70
     0
  0
XRECORD
  5
356
102
{ACAD_REACTORS
330
352
102
}
330
352
100
AcDbXrecord
  1

  0
XRECORD
  5
353
102
{ACAD_REACTORS
330
352
102
}
330
352
100
AcDbXrecord
 90
        1
  0
XRECORD
  5
354
102
{ACAD_REACTORS
330
352
102
}
330
352
100
AcDbXrecord
 90
       70
  0
XRECORD
  5
36B
102
{ACAD_REACTORS
330
352
102
}
330
352
100
AcDbXrecord
340
0
  0
XRECORD
  5
371
102
{ACAD_REACTORS
330
352
102
}
330
352
100
AcDbXrecord
 10
0.0
 20
0.0
 30
0.0
  0
XRECORD
  5
36D
102
{ACAD_REACTORS
330
352
102
}
330
352
100
AcDbXrecord
 10
0.0
 20
0.0
 30
0.0
  0
XRECORD
  5
370
102
{ACAD_REACTORS
330
352
102
}
330
352
100
AcDbXrecord
 10
0.0
 20
0.0
 30
0.0
  0
XRECORD
  5
36E
102
{ACAD_REACTORS
330
352
102
}
330
352
100
AcDbXrecord
 10
0.0
 20
0.0
 30
0.0
  0
XRECORD
  5
36F
102
{ACAD_REACTORS
330
352
102
}
330
352
100
AcDbXrecord
 10
0.0
 20
0.0
 30
0.0
  0
XRECORD
  5
36C
102
{ACAD_REACTORS
330
352
102
}
330
352
100
AcDbXrecord
 10
0.0
 20
0.0
 30
0.0
  0
XRECORD
  5
369
102
{ACAD_REACTORS
330
352
102
}
330
352
100
AcDbXrecord
340
0
  0
XRECORD
  5
36A
102
{ACAD_REACTORS
330
352
102
}
330
352
100
AcDbXrecord
 70
     0
  0
XRECORD
  5
35E
102
{ACAD_REACTORS
330
352
102
}
330
352
100
AcDbXrecord
  1
{FAEB1C32-E019-11D5-929B-00C0DF256EC4}
  0
DICTIONARYVAR
  5
37D
102
{ACAD_REACTORS
330
373
102
}
330
373
100
DictionaryVariables
280
     0
  1
1:1
  0
DICTIONARYVAR
  5
375
102
{ACAD_REACTORS
330
373
102
}
330
373
100
DictionaryVariables
280
     0
  1
Standard
  0
DICTIONARYVAR
  5
374
102
{ACAD_REACTORS
330
373
102
}
330
373
100
DictionaryVariables
280
     0
  1
Standard
  0
DICTIONARYVAR
  5
379
102
{ACAD_REACTORS
330
373
102
}
330
373
100
DictionaryVariables
280
     0
  1
2
  0
DICTIONARYVAR
  5
37A
102
{ACAD_REACTORS
330
373
102
}
330
373
100
DictionaryVariables
280
     0
  1
1
  0
DICTIONARYVAR
  5
376
102
{ACAD_REACTORS
330
373
102
}
330
373
100
DictionaryVariables
280
     0
  1
0
  0
DICTIONARY
  5
380
330
34C
100
AcDbDictionary
280
     1
  3
ACAD_XREC_ROUNDTRIP
360
381
  0
DICTIONARY
  5
37E
330
34B
100
AcDbDictionary
280
     1
  3
ACAD_XREC_ROUNDTRIP
360
37F
  0
DICTIONARY
  5
382
330
34D
100
AcDbDictionary
280
     1
  3
ACAD_XREC_ROUNDTRIP
360
383
  0
XRECORD
  5
381
102
{ACAD_REACTORS
330
380
102
}
330
380
100
AcDbXrecord
102
MATERIAL
148
0.0
149
0.0
149
0.0
 93
        0
 94
      127
282
     0
 72
     1
 77
     1
171
     1
175
     1
179
     1
273
     0
  0
XRECORD
  5
37F
102
{ACAD_REACTORS
330
37E
102
}
330
37E
100
AcDbXrecord
102
MATERIAL
148
0.0
149
0.0
149
0.0
 93
        0
 94
      127
282
     0
 72
     1
 77
     1
171
     1
175
     1
179
     1
273
     0
  0
XRECORD
  5
383
102
{ACAD_REACTORS
330
382
102
}
330
382
100
AcDbXrecord
102
MATERIAL
148
0.0
149
0.0
149
0.0
 93
        0
 94
      127
282
     0
 72
     1
 77
     1
171
     1
175
     1
179
     1
273
     0
  0
ENDSEC
  0
EOF
