  0
SECTION
  2
HEADER
  9
$ACADVER
  1
AC1009
  9
$FILLMODE
 70
1
  9
$EXTMIN
 10
0.1019
 20
-0.0081
 30
0.0000
  9
$EXTMAX
 10
77.8781
 20
62.3980
 30
0.0000
  0
ENDSEC
  0
SECTION
  2
TABLES
  0
TABLE
  2
LTYPE
 70
1
  0
LTYPE
  2
CONTINUOUS
 70
64
  3
Solid line
 72
65
 73
0
 40
0
  0
ENDTAB
  0
TABLE
  2
LAYER
 70
255
  0
LAYER
  2
20
 70
64
 62
178
  6
CONTINUOUS
  0
ENDTAB
  0
ENDSEC
  0
SECTION
  2
BLOCKS
  0
BLOCK
  8
0
  2
RECT
 70
64
 10
0.0000
 20
0.0000
 30
0.0000
  3
RECT
  0
SOLID
  8
0
 10
-0.5000
 20
-0.5000
 30
0.0000
 11
0.5000
 21
-0.5000
 31
0.0000
 12
-0.5000
 22
0.5000
 32
0.0000
 13
0.5000
 23
0.5000
 33
0.0000
  0
ENDBLK
  8
0
  0
BLOCK
  8
0
  2
PIE
 70
64
 10
0.0000
 20
0.0000
 30
0.0000
  3
PIE
  0
POLYLINE
  8
0
 66
1
 10
0.0000
 20
0.0000
 30
0.0000
 40
0.5000
 41
0.5000
 70
0
  0
VERTEX
  8
0
 10
0.0000
 20
-0.2500
 30
0.0000
 42
1.0000
  0
VERTEX
  8
0
 10
0.0000
 20
0.2500
 30
0.0000
 42
1.0000
  0
VERTEX
  8
0
 10
0.0000
 20
-0.2500
 30
0.0000
  0
SEQEND
  8
0
  0
ENDBLK
  8
0
  0
BLOCK
  8
0
  2
OCTAGONP
 70
64
 10
0.0000
 20
0.0000
 30
0.0000
  3
OCTAGONP
  0
POLYLINE
  8
0
 66
1
 10
0.0000
 20
0.0000
 30
0.0000
 40
0.5000
 41
0.5000
 70
0
  0
VERTEX
  8
0
 10
-0.2500
 20
-0.1036
 30
0.0000
  0
VERTEX
  8
0
 10
-0.2500
 20
0.1036
 30
0.0000
  0
VERTEX
  8
0
 10
-0.1036
 20
0.2500
 30
0.0000
  0
VERTEX
  8
0
 10
0.1036
 20
0.2500
 30
0.0000
  0
VERTEX
  8
0
 10
0.2500
 20
0.1036
 30
0.0000
  0
VERTEX
  8
0
 10
0.2500
 20
-0.1036
 30
0.0000
  0
VERTEX
  8
0
 10
0.1036
 20
-0.2500
 30
0.0000
  0
VERTEX
  8
0
 10
-0.1036
 20
-0.2500
 30
0.0000
  0
VERTEX
  8
0
 10
-0.2500
 20
-0.1036
 30
0.0000
  0
VERTEX
  8
0
 10
-0.2500
 20
0.1036
 30
0.0000
  0
SEQEND
  8
0
  0
ENDBLK
  8
0
  0
BLOCK
  8
0
  2
SQUAREP
 70
64
 10
0.0000
 20
0.0000
 30
0.0000
  3
SQUAREP
  0
SOLID
  8
0
 10
-0.5000
 20
-0.5000
 30
0.0000
 11
0.5000
 21
-0.5000
 31
0.0000
 12
-0.5000
 22
0.5000
 32
0.0000
 13
0.5000
 23
0.5000
 33
0.0000
  0
ENDBLK
  8
0
  0
BLOCK
  8
0
  2
ROUNDP
 70
64
 10
0.0000
 20
0.0000
 30
0.0000
  3
ROUNDP
  0
POLYLINE
  8
0
 66
1
 10
0.0000
 20
0.0000
 30
0.0000
 40
0.5000
 41
0.5000
 70
0
  0
VERTEX
  8
0
 10
0.0000
 20
-0.2500
 30
0.0000
 42
1.0000
  0
VERTEX
  8
0
 10
0.0000
 20
0.2500
 30
0.0000
 42
1.0000
  0
VERTEX
  8
0
 10
0.0000
 20
-0.2500
 30
0.0000
  0
SEQEND
  8
0
  0
ENDBLK
  8
0
  0
BLOCK
  8
0
  2
ANNULUSP
 70
64
 10
0.0000
 20
0.0000
 30
0.0000
  3
ANNULUSP
  0
POLYLINE
  8
0
 66
1
 10
0.0000
 20
0.0000
 30
0.0000
 40
0.5000
 41
0.5000
 70
0
  0
VERTEX
  8
0
 10
0.0000
 20
-0.2500
 30
0.0000
 42
1.0000
  0
VERTEX
  8
0
 10
0.0000
 20
0.2500
 30
0.0000
 42
1.0000
  0
VERTEX
  8
0
 10
0.0000
 20
-0.2500
 30
0.0000
  0
SEQEND
  8
0
  0
ENDBLK
  8
0
  0
BLOCK
  8
0
  2
THERMALP
 70
64
 10
0.0000
 20
0.0000
 30
0.0000
  3
THERMALP
  0
POLYLINE
  8
0
 66
1
 10
0.0000
 20
0.0000
 30
0.0000
 40
0.1000
 41
0.1000
 70
0
  0
VERTEX
  8
0
 10
-0.2379
 20
0.4500
 30
0.0000
  0
VERTEX
  8
0
 10
0.2379
 20
0.4500
 30
0.0000
  0
SEQEND
  8
0
  0
POLYLINE
  8
0
 66
1
 10
0.0000
 20
0.0000
 30
0.0000
 40
0.0500
 41
0.0500
 70
0
  0
VERTEX
  8
0
 10
0.2379
 20
0.4250
 30
0.0000
 42
1.0000
  0
VERTEX
  8
0
 10
0.2379
 20
0.4750
 30
0.0000
  0
SEQEND
  8
0
  0
POLYLINE
  8
0
 66
1
 10
0.0000
 20
0.0000
 30
0.0000
 40
0.0500
 41
0.0500
 70
0
  0
VERTEX
  8
0
 10
-0.2379
 20
0.4750
 30
0.0000
 42
1.0000
  0
VERTEX
  8
0
 10
-0.2379
 20
0.4250
 30
0.0000
  0
SEQEND
  8
0
  0
POLYLINE
  8
0
 66
1
 10
0.0000
 20
0.0000
 30
0.0000
 40
0.1000
 41
0.1000
 70
0
  0
VERTEX
  8
0
 10
0.4500
 20
0.2379
 30
0.0000
  0
VERTEX
  8
0
 10
0.4500
 20
-0.2379
 30
0.0000
  0
SEQEND
  8
0
  0
POLYLINE
  8
0
 66
1
 10
0.0000
 20
0.0000
 30
0.0000
 40
0.0500
 41
0.0500
 70
0
  0
VERTEX
  8
0
 10
0.4250
 20
-0.2379
 30
0.0000
 42
1.0000
  0
VERTEX
  8
0
 10
0.4750
 20
-0.2379
 30
0.0000
  0
SEQEND
  8
0
  0
POLYLINE
  8
0
 66
1
 10
0.0000
 20
0.0000
 30
0.0000
 40
0.0500
 41
0.0500
 70
0
  0
VERTEX
  8
0
 10
0.4750
 20
0.2379
 30
0.0000
 42
1.0000
  0
VERTEX
  8
0
 10
0.4250
 20
0.2379
 30
0.0000
  0
SEQEND
  8
0
  0
POLYLINE
  8
0
 66
1
 10
0.0000
 20
0.0000
 30
0.0000
 40
0.1000
 41
0.1000
 70
0
  0
VERTEX
  8
0
 10
0.2379
 20
-0.4500
 30
0.0000
  0
VERTEX
  8
0
 10
-0.2379
 20
-0.4500
 30
0.0000
  0
SEQEND
  8
0
  0
POLYLINE
  8
0
 66
1
 10
0.0000
 20
0.0000
 30
0.0000
 40
0.0500
 41
0.0500
 70
0
  0
VERTEX
  8
0
 10
-0.2379
 20
-0.4250
 30
0.0000
 42
1.0000
  0
VERTEX
  8
0
 10
-0.2379
 20
-0.4750
 30
0.0000
  0
SEQEND
  8
0
  0
POLYLINE
  8
0
 66
1
 10
0.0000
 20
0.0000
 30
0.0000
 40
0.0500
 41
0.0500
 70
0
  0
VERTEX
  8
0
 10
0.2379
 20
-0.4750
 30
0.0000
 42
1.0000
  0
VERTEX
  8
0
 10
0.2379
 20
-0.4250
 30
0.0000
  0
SEQEND
  8
0
  0
POLYLINE
  8
0
 66
1
 10
0.0000
 20
0.0000
 30
0.0000
 40
0.1000
 41
0.1000
 70
0
  0
VERTEX
  8
0
 10
-0.4500
 20
-0.2379
 30
0.0000
  0
VERTEX
  8
0
 10
-0.4500
 20
0.2379
 30
0.0000
  0
SEQEND
  8
0
  0
POLYLINE
  8
0
 66
1
 10
0.0000
 20
0.0000
 30
0.0000
 40
0.0500
 41
0.0500
 70
0
  0
VERTEX
  8
0
 10
-0.4250
 20
0.2379
 30
0.0000
 42
1.0000
  0
VERTEX
  8
0
 10
-0.4750
 20
0.2379
 30
0.0000
  0
SEQEND
  8
0
  0
POLYLINE
  8
0
 66
1
 10
0.0000
 20
0.0000
 30
0.0000
 40
0.0500
 41
0.0500
 70
0
  0
VERTEX
  8
0
 10
-0.4750
 20
-0.2379
 30
0.0000
 42
1.0000
  0
VERTEX
  8
0
 10
-0.4250
 20
-0.2379
 30
0.0000
  0
SEQEND
  8
0
  0
ENDBLK
  8
0
  0
BLOCK
  8
0
  2
OCTAGONV
 70
64
 10
0.0000
 20
0.0000
 30
0.0000
  3
OCTAGONV
  0
POLYLINE
  8
0
 66
1
 10
0.0000
 20
0.0000
 30
0.0000
 40
0.5000
 41
0.5000
 70
0
  0
VERTEX
  8
0
 10
-0.2500
 20
-0.1036
 30
0.0000
  0
VERTEX
  8
0
 10
-0.2500
 20
0.1036
 30
0.0000
  0
VERTEX
  8
0
 10
-0.1036
 20
0.2500
 30
0.0000
  0
VERTEX
  8
0
 10
0.1036
 20
0.2500
 30
0.0000
  0
VERTEX
  8
0
 10
0.2500
 20
0.1036
 30
0.0000
  0
VERTEX
  8
0
 10
0.2500
 20
-0.1036
 30
0.0000
  0
VERTEX
  8
0
 10
0.1036
 20
-0.2500
 30
0.0000
  0
VERTEX
  8
0
 10
-0.1036
 20
-0.2500
 30
0.0000
  0
VERTEX
  8
0
 10
-0.2500
 20
-0.1036
 30
0.0000
  0
VERTEX
  8
0
 10
-0.2500
 20
0.1036
 30
0.0000
  0
SEQEND
  8
0
  0
ENDBLK
  8
0
  0
BLOCK
  8
0
  2
SQUAREV
 70
64
 10
0.0000
 20
0.0000
 30
0.0000
  3
SQUAREV
  0
SOLID
  8
0
 10
-0.5000
 20
-0.5000
 30
0.0000
 11
0.5000
 21
-0.5000
 31
0.0000
 12
-0.5000
 22
0.5000
 32
0.0000
 13
0.5000
 23
0.5000
 33
0.0000
  0
ENDBLK
  8
0
  0
BLOCK
  8
0
  2
ROUNDV
 70
64
 10
0.0000
 20
0.0000
 30
0.0000
  3
ROUNDV
  0
POLYLINE
  8
0
 66
1
 10
0.0000
 20
0.0000
 30
0.0000
 40
0.5000
 41
0.5000
 70
0
  0
VERTEX
  8
0
 10
0.0000
 20
-0.2500
 30
0.0000
 42
1.0000
  0
VERTEX
  8
0
 10
0.0000
 20
0.2500
 30
0.0000
 42
1.0000
  0
VERTEX
  8
0
 10
0.0000
 20
-0.2500
 30
0.0000
  0
SEQEND
  8
0
  0
ENDBLK
  8
0
  0
BLOCK
  8
0
  2
ANNULUSV
 70
64
 10
0.0000
 20
0.0000
 30
0.0000
  3
ANNULUSV
  0
POLYLINE
  8
0
 66
1
 10
0.0000
 20
0.0000
 30
0.0000
 40
0.5000
 41
0.5000
 70
0
  0
VERTEX
  8
0
 10
0.0000
 20
-0.2500
 30
0.0000
 42
1.0000
  0
VERTEX
  8
0
 10
0.0000
 20
0.2500
 30
0.0000
 42
1.0000
  0
VERTEX
  8
0
 10
0.0000
 20
-0.2500
 30
0.0000
  0
SEQEND
  8
0
  0
ENDBLK
  8
0
  0
BLOCK
  8
0
  2
THERMALV
 70
64
 10
0.0000
 20
0.0000
 30
0.0000
  3
THERMALV
  0
POLYLINE
  8
0
 66
1
 10
0.0000
 20
0.0000
 30
0.0000
 40
0.1000
 41
0.1000
 70
0
  0
VERTEX
  8
0
 10
-0.2379
 20
0.4500
 30
0.0000
  0
VERTEX
  8
0
 10
0.2379
 20
0.4500
 30
0.0000
  0
SEQEND
  8
0
  0
POLYLINE
  8
0
 66
1
 10
0.0000
 20
0.0000
 30
0.0000
 40
0.0500
 41
0.0500
 70
0
  0
VERTEX
  8
0
 10
0.2379
 20
0.4250
 30
0.0000
 42
1.0000
  0
VERTEX
  8
0
 10
0.2379
 20
0.4750
 30
0.0000
  0
SEQEND
  8
0
  0
POLYLINE
  8
0
 66
1
 10
0.0000
 20
0.0000
 30
0.0000
 40
0.0500
 41
0.0500
 70
0
  0
VERTEX
  8
0
 10
-0.2379
 20
0.4750
 30
0.0000
 42
1.0000
  0
VERTEX
  8
0
 10
-0.2379
 20
0.4250
 30
0.0000
  0
SEQEND
  8
0
  0
POLYLINE
  8
0
 66
1
 10
0.0000
 20
0.0000
 30
0.0000
 40
0.1000
 41
0.1000
 70
0
  0
VERTEX
  8
0
 10
0.4500
 20
0.2379
 30
0.0000
  0
VERTEX
  8
0
 10
0.4500
 20
-0.2379
 30
0.0000
  0
SEQEND
  8
0
  0
POLYLINE
  8
0
 66
1
 10
0.0000
 20
0.0000
 30
0.0000
 40
0.0500
 41
0.0500
 70
0
  0
VERTEX
  8
0
 10
0.4250
 20
-0.2379
 30
0.0000
 42
1.0000
  0
VERTEX
  8
0
 10
0.4750
 20
-0.2379
 30
0.0000
  0
SEQEND
  8
0
  0
POLYLINE
  8
0
 66
1
 10
0.0000
 20
0.0000
 30
0.0000
 40
0.0500
 41
0.0500
 70
0
  0
VERTEX
  8
0
 10
0.4750
 20
0.2379
 30
0.0000
 42
1.0000
  0
VERTEX
  8
0
 10
0.4250
 20
0.2379
 30
0.0000
  0
SEQEND
  8
0
  0
POLYLINE
  8
0
 66
1
 10
0.0000
 20
0.0000
 30
0.0000
 40
0.1000
 41
0.1000
 70
0
  0
VERTEX
  8
0
 10
0.2379
 20
-0.4500
 30
0.0000
  0
VERTEX
  8
0
 10
-0.2379
 20
-0.4500
 30
0.0000
  0
SEQEND
  8
0
  0
POLYLINE
  8
0
 66
1
 10
0.0000
 20
0.0000
 30
0.0000
 40
0.0500
 41
0.0500
 70
0
  0
VERTEX
  8
0
 10
-0.2379
 20
-0.4250
 30
0.0000
 42
1.0000
  0
VERTEX
  8
0
 10
-0.2379
 20
-0.4750
 30
0.0000
  0
SEQEND
  8
0
  0
POLYLINE
  8
0
 66
1
 10
0.0000
 20
0.0000
 30
0.0000
 40
0.0500
 41
0.0500
 70
0
  0
VERTEX
  8
0
 10
0.2379
 20
-0.4750
 30
0.0000
 42
1.0000
  0
VERTEX
  8
0
 10
0.2379
 20
-0.4250
 30
0.0000
  0
SEQEND
  8
0
  0
POLYLINE
  8
0
 66
1
 10
0.0000
 20
0.0000
 30
0.0000
 40
0.1000
 41
0.1000
 70
0
  0
VERTEX
  8
0
 10
-0.4500
 20
-0.2379
 30
0.0000
  0
VERTEX
  8
0
 10
-0.4500
 20
0.2379
 30
0.0000
  0
SEQEND
  8
0
  0
POLYLINE
  8
0
 66
1
 10
0.0000
 20
0.0000
 30
0.0000
 40
0.0500
 41
0.0500
 70
0
  0
VERTEX
  8
0
 10
-0.4250
 20
0.2379
 30
0.0000
 42
1.0000
  0
VERTEX
  8
0
 10
-0.4750
 20
0.2379
 30
0.0000
  0
SEQEND
  8
0
  0
POLYLINE
  8
0
 66
1
 10
0.0000
 20
0.0000
 30
0.0000
 40
0.0500
 41
0.0500
 70
0
  0
VERTEX
  8
0
 10
-0.4750
 20
-0.2379
 30
0.0000
 42
1.0000
  0
VERTEX
  8
0
 10
-0.4250
 20
-0.2379
 30
0.0000
  0
SEQEND
  8
0
  0
ENDBLK
  8
0
  0
BLOCK
  8
0
  2
LONGP100
 70
64
 10
0.0000
 20
0.0000
 30
0.0000
  3
LONGP100
  0
POLYLINE
  8
0
 66
1
 10
0.0000
 20
0.0000
 30
0.0000
 40
1.0000
 41
1.0000
 70
0
  0
VERTEX
  8
0
 10
-0.5000
 20
0.0000
 30
0.0000
  0
VERTEX
  8
0
 10
0.5000
 20
0.0000
 30
0.0000
  0
SEQEND
  8
0
  0
POLYLINE
  8
0
 66
1
 10
0.0000
 20
0.0000
 30
0.0000
 40
0.5000
 41
0.5000
 70
0
  0
VERTEX
  8
0
 10
0.5000
 20
-0.2500
 30
0.0000
 42
1.0000
  0
VERTEX
  8
0
 10
0.5000
 20
0.2500
 30
0.0000
  0
SEQEND
  8
0
  0
POLYLINE
  8
0
 66
1
 10
0.0000
 20
0.0000
 30
0.0000
 40
0.5000
 41
0.5000
 70
0
  0
VERTEX
  8
0
 10
-0.5000
 20
0.2500
 30
0.0000
 42
1.0000
  0
VERTEX
  8
0
 10
-0.5000
 20
-0.2500
 30
0.0000
  0
SEQEND
  8
0
  0
ENDBLK
  8
0
  0
ENDSEC
  0
SECTION
  2
ENTITIES
  0
POLYLINE
  8
20
 66
1
 10
0.0000
 20
0.0000
 30
0.0000
 40
0.0762
 41
0.0762
 70
0
  0
VERTEX
  8
20
 10
7.9189
 20
58.9681
 30
0.0000
  0
VERTEX
  8
20
 10
7.9002
 20
4.6147
 30
0.0000
  0
SEQEND
  8
0
  0
POLYLINE
  8
20
 66
1
 10
0.0000
 20
0.0000
 30
0.0000
 40
0.0381
 41
0.0381
 70
0
  0
VERTEX
  8
20
 10
7.8812
 20
4.6148
 30
0.0000
 42
1.0000
  0
VERTEX
  8
20
 10
7.9193
 20
4.6147
 30
0.0000
  0
SEQEND
  8
0
  0
POLYLINE
  8
20
 66
1
 10
0.0000
 20
0.0000
 30
0.0000
 40
0.0381
 41
0.0381
 70
0
  0
VERTEX
  8
20
 10
7.9380
 20
58.9681
 30
0.0000
 42
1.0000
  0
VERTEX
  8
20
 10
7.8999
 20
58.9681
 30
0.0000
  0
SEQEND
  8
0
  0
POLYLINE
  8
20
 66
1
 10
0.0000
 20
0.0000
 30
0.0000
 40
0.0762
 41
0.0762
 70
0
  0
VERTEX
  8
20
 10
7.2495
 20
3.9600
 30
0.0000
 42
0.4141
  0
VERTEX
  8
20
 10
7.9002
 20
4.6147
 30
0.0000
  0
SEQEND
  8
0
  0
POLYLINE
  8
20
 66
1
 10
0.0000
 20
0.0000
 30
0.0000
 40
0.0381
 41
0.0381
 70
0
  0
VERTEX
  8
20
 10
7.2495
 20
3.9790
 30
0.0000
 42
1.0000
  0
VERTEX
  8
20
 10
7.2496
 20
3.9410
 30
0.0000
  0
SEQEND
  8
0
  0
POLYLINE
  8
20
 66
1
 10
0.0000
 20
0.0000
 30
0.0000
 40
0.0381
 41
0.0381
 70
0
  0
VERTEX
  8
20
 10
7.9193
 20
4.6148
 30
0.0000
 42
1.0000
  0
VERTEX
  8
20
 10
7.8812
 20
4.6147
 30
0.0000
  0
SEQEND
  8
0
  0
POLYLINE
  8
20
 66
1
 10
0.0000
 20
0.0000
 30
0.0000
 40
0.0762
 41
0.0762
 70
0
  0
VERTEX
  8
20
 10
7.2495
 20
3.9600
 30
0.0000
  0
VERTEX
  8
20
 10
1.1026
 20
3.9600
 30
0.0000
  0
SEQEND
  8
0
  0
POLYLINE
  8
20
 66
1
 10
0.0000
 20
0.0000
 30
0.0000
 40
0.0381
 41
0.0381
 70
0
  0
VERTEX
  8
20
 10
1.1026
 20
3.9791
 30
0.0000
 42
1.0000
  0
VERTEX
  8
20
 10
1.1026
 20
3.9410
 30
0.0000
  0
SEQEND
  8
0
  0
POLYLINE
  8
20
 66
1
 10
0.0000
 20
0.0000
 30
0.0000
 40
0.0381
 41
0.0381
 70
0
  0
VERTEX
  8
20
 10
7.2495
 20
3.9410
 30
0.0000
 42
1.0000
  0
VERTEX
  8
20
 10
7.2495
 20
3.9791
 30
0.0000
  0
SEQEND
  8
0
  0
POLYLINE
  8
20
 66
1
 10
0.0000
 20
0.0000
 30
0.0000
 40
0.0762
 41
0.0762
 70
0
  0
VERTEX
  8
20
 10
11.1097
 20
62.1600
 30
0.0000
 42
0.4141
  0
VERTEX
  8
20
 10
7.9189
 20
58.9681
 30
0.0000
  0
SEQEND
  8
0
  0
POLYLINE
  8
20
 66
1
 10
0.0000
 20
0.0000
 30
0.0000
 40
0.0381
 41
0.0381
 70
0
  0
VERTEX
  8
20
 10
11.1097
 20
62.1410
 30
0.0000
 42
1.0000
  0
VERTEX
  8
20
 10
11.1097
 20
62.1790
 30
0.0000
  0
SEQEND
  8
0
  0
POLYLINE
  8
20
 66
1
 10
0.0000
 20
0.0000
 30
0.0000
 40
0.0381
 41
0.0381
 70
0
  0
VERTEX
  8
20
 10
7.8999
 20
58.9681
 30
0.0000
 42
1.0000
  0
VERTEX
  8
20
 10
7.9380
 20
58.9681
 30
0.0000
  0
SEQEND
  8
0
  0
POLYLINE
  8
20
 66
1
 10
0.0000
 20
0.0000
 30
0.0000
 40
0.0762
 41
0.0762
 70
0
  0
VERTEX
  8
20
 10
11.1097
 20
62.1600
 30
0.0000
  0
VERTEX
  8
20
 10
66.9277
 20
62.1600
 30
0.0000
  0
SEQEND
  8
0
  0
POLYLINE
  8
20
 66
1
 10
0.0000
 20
0.0000
 30
0.0000
 40
0.0381
 41
0.0381
 70
0
  0
VERTEX
  8
20
 10
66.9277
 20
62.1410
 30
0.0000
 42
1.0000
  0
VERTEX
  8
20
 10
66.9277
 20
62.1791
 30
0.0000
  0
SEQEND
  8
0
  0
POLYLINE
  8
20
 66
1
 10
0.0000
 20
0.0000
 30
0.0000
 40
0.0381
 41
0.0381
 70
0
  0
VERTEX
  8
20
 10
11.1097
 20
62.1791
 30
0.0000
 42
1.0000
  0
VERTEX
  8
20
 10
11.1097
 20
62.1410
 30
0.0000
  0
SEQEND
  8
0
  0
POLYLINE
  8
20
 66
1
 10
0.0000
 20
0.0000
 30
0.0000
 40
0.0762
 41
0.0762
 70
0
  0
VERTEX
  8
20
 10
70.0700
 20
59.0177
 30
0.0000
 42
0.4142
  0
VERTEX
  8
20
 10
66.9277
 20
62.1600
 30
0.0000
  0
SEQEND
  8
0
  0
POLYLINE
  8
20
 66
1
 10
0.0000
 20
0.0000
 30
0.0000
 40
0.0381
 41
0.0381
 70
0
  0
VERTEX
  8
20
 10
70.0510
 20
59.0177
 30
0.0000
 42
1.0000
  0
VERTEX
  8
20
 10
70.0891
 20
59.0177
 30
0.0000
  0
SEQEND
  8
0
  0
POLYLINE
  8
20
 66
1
 10
0.0000
 20
0.0000
 30
0.0000
 40
0.0381
 41
0.0381
 70
0
  0
VERTEX
  8
20
 10
66.9277
 20
62.1791
 30
0.0000
 42
1.0000
  0
VERTEX
  8
20
 10
66.9277
 20
62.1410
 30
0.0000
  0
SEQEND
  8
0
  0
POLYLINE
  8
20
 66
1
 10
0.0000
 20
0.0000
 30
0.0000
 40
0.0762
 41
0.0762
 70
0
  0
VERTEX
  8
20
 10
1.1026
 20
3.9600
 30
0.0000
 42
0.4142
  0
VERTEX
  8
20
 10
0.1400
 20
2.9974
 30
0.0000
  0
SEQEND
  8
0
  0
POLYLINE
  8
20
 66
1
 10
0.0000
 20
0.0000
 30
0.0000
 40
0.0381
 41
0.0381
 70
0
  0
VERTEX
  8
20
 10
1.1026
 20
3.9410
 30
0.0000
 42
1.0000
  0
VERTEX
  8
20
 10
1.1026
 20
3.9791
 30
0.0000
  0
SEQEND
  8
0
  0
POLYLINE
  8
20
 66
1
 10
0.0000
 20
0.0000
 30
0.0000
 40
0.0381
 41
0.0381
 70
0
  0
VERTEX
  8
20
 10
0.1210
 20
2.9974
 30
0.0000
 42
1.0000
  0
VERTEX
  8
20
 10
0.1591
 20
2.9974
 30
0.0000
  0
SEQEND
  8
0
  0
POLYLINE
  8
20
 66
1
 10
0.0000
 20
0.0000
 30
0.0000
 40
0.0762
 41
0.0762
 70
0
  0
VERTEX
  8
20
 10
0.1400
 20
2.9974
 30
0.0000
  0
VERTEX
  8
20
 10
0.1400
 20
0.8919
 30
0.0000
  0
SEQEND
  8
0
  0
POLYLINE
  8
20
 66
1
 10
0.0000
 20
0.0000
 30
0.0000
 40
0.0381
 41
0.0381
 70
0
  0
VERTEX
  8
20
 10
0.1210
 20
0.8919
 30
0.0000
 42
1.0000
  0
VERTEX
  8
20
 10
0.1591
 20
0.8919
 30
0.0000
  0
SEQEND
  8
0
  0
POLYLINE
  8
20
 66
1
 10
0.0000
 20
0.0000
 30
0.0000
 40
0.0381
 41
0.0381
 70
0
  0
VERTEX
  8
20
 10
0.1591
 20
2.9974
 30
0.0000
 42
1.0000
  0
VERTEX
  8
20
 10
0.1210
 20
2.9974
 30
0.0000
  0
SEQEND
  8
0
  0
POLYLINE
  8
20
 66
1
 10
0.0000
 20
0.0000
 30
0.0000
 40
0.0762
 41
0.0762
 70
0
  0
VERTEX
  8
20
 10
0.1400
 20
0.8919
 30
0.0000
 42
0.4142
  0
VERTEX
  8
20
 10
0.9719
 20
0.0600
 30
0.0000
  0
SEQEND
  8
0
  0
POLYLINE
  8
20
 66
1
 10
0.0000
 20
0.0000
 30
0.0000
 40
0.0381
 41
0.0381
 70
0
  0
VERTEX
  8
20
 10
0.1591
 20
0.8919
 30
0.0000
 42
1.0000
  0
VERTEX
  8
20
 10
0.1210
 20
0.8919
 30
0.0000
  0
SEQEND
  8
0
  0
POLYLINE
  8
20
 66
1
 10
0.0000
 20
0.0000
 30
0.0000
 40
0.0381
 41
0.0381
 70
0
  0
VERTEX
  8
20
 10
0.9719
 20
0.0410
 30
0.0000
 42
1.0000
  0
VERTEX
  8
20
 10
0.9719
 20
0.0791
 30
0.0000
  0
SEQEND
  8
0
  0
POLYLINE
  8
20
 66
1
 10
0.0000
 20
0.0000
 30
0.0000
 40
0.0762
 41
0.0762
 70
0
  0
VERTEX
  8
20
 10
0.9719
 20
0.0600
 30
0.0000
  0
VERTEX
  8
20
 10
24.2733
 20
0.0600
 30
0.0000
  0
SEQEND
  8
0
  0
POLYLINE
  8
20
 66
1
 10
0.0000
 20
0.0000
 30
0.0000
 40
0.0381
 41
0.0381
 70
0
  0
VERTEX
  8
20
 10
24.2733
 20
0.0410
 30
0.0000
 42
1.0000
  0
VERTEX
  8
20
 10
24.2733
 20
0.0791
 30
0.0000
  0
SEQEND
  8
0
  0
POLYLINE
  8
20
 66
1
 10
0.0000
 20
0.0000
 30
0.0000
 40
0.0381
 41
0.0381
 70
0
  0
VERTEX
  8
20
 10
0.9719
 20
0.0791
 30
0.0000
 42
1.0000
  0
VERTEX
  8
20
 10
0.9719
 20
0.0410
 30
0.0000
  0
SEQEND
  8
0
  0
POLYLINE
  8
20
 66
1
 10
0.0000
 20
0.0000
 30
0.0000
 40
0.0762
 41
0.0762
 70
0
  0
VERTEX
  8
20
 10
24.2733
 20
0.0600
 30
0.0000
 42
0.4142
  0
VERTEX
  8
20
 10
25.0000
 20
0.7867
 30
0.0000
  0
SEQEND
  8
0
  0
POLYLINE
  8
20
 66
1
 10
0.0000
 20
0.0000
 30
0.0000
 40
0.0381
 41
0.0381
 70
0
  0
VERTEX
  8
20
 10
24.2733
 20
0.0791
 30
0.0000
 42
1.0000
  0
VERTEX
  8
20
 10
24.2733
 20
0.0410
 30
0.0000
  0
SEQEND
  8
0
  0
POLYLINE
  8
20
 66
1
 10
0.0000
 20
0.0000
 30
0.0000
 40
0.0381
 41
0.0381
 70
0
  0
VERTEX
  8
20
 10
25.0191
 20
0.7867
 30
0.0000
 42
1.0000
  0
VERTEX
  8
20
 10
24.9809
 20
0.7867
 30
0.0000
  0
SEQEND
  8
0
  0
POLYLINE
  8
20
 66
1
 10
0.0000
 20
0.0000
 30
0.0000
 40
0.0762
 41
0.0762
 70
0
  0
VERTEX
  8
20
 10
25.0000
 20
0.7867
 30
0.0000
  0
VERTEX
  8
20
 10
25.0000
 20
3.1560
 30
0.0000
  0
SEQEND
  8
0
  0
POLYLINE
  8
20
 66
1
 10
0.0000
 20
0.0000
 30
0.0000
 40
0.0381
 41
0.0381
 70
0
  0
VERTEX
  8
20
 10
25.0191
 20
3.1560
 30
0.0000
 42
1.0000
  0
VERTEX
  8
20
 10
24.9809
 20
3.1560
 30
0.0000
  0
SEQEND
  8
0
  0
POLYLINE
  8
20
 66
1
 10
0.0000
 20
0.0000
 30
0.0000
 40
0.0381
 41
0.0381
 70
0
  0
VERTEX
  8
20
 10
24.9809
 20
0.7867
 30
0.0000
 42
1.0000
  0
VERTEX
  8
20
 10
25.0191
 20
0.7867
 30
0.0000
  0
SEQEND
  8
0
  0
POLYLINE
  8
20
 66
1
 10
0.0000
 20
0.0000
 30
0.0000
 40
0.0762
 41
0.0762
 70
0
  0
VERTEX
  8
20
 10
25.0000
 20
3.1560
 30
0.0000
 42
0.4142
  0
VERTEX
  8
20
 10
24.2060
 20
3.9500
 30
0.0000
  0
SEQEND
  8
0
  0
POLYLINE
  8
20
 66
1
 10
0.0000
 20
0.0000
 30
0.0000
 40
0.0381
 41
0.0381
 70
0
  0
VERTEX
  8
20
 10
24.9809
 20
3.1560
 30
0.0000
 42
1.0000
  0
VERTEX
  8
20
 10
25.0191
 20
3.1560
 30
0.0000
  0
SEQEND
  8
0
  0
POLYLINE
  8
20
 66
1
 10
0.0000
 20
0.0000
 30
0.0000
 40
0.0381
 41
0.0381
 70
0
  0
VERTEX
  8
20
 10
24.2060
 20
3.9691
 30
0.0000
 42
1.0000
  0
VERTEX
  8
20
 10
24.2060
 20
3.9310
 30
0.0000
  0
SEQEND
  8
0
  0
POLYLINE
  8
20
 66
1
 10
0.0000
 20
0.0000
 30
0.0000
 40
0.0762
 41
0.0762
 70
0
  0
VERTEX
  8
20
 10
24.2060
 20
3.9500
 30
0.0000
  0
VERTEX
  8
20
 10
21.1310
 20
3.9500
 30
0.0000
  0
SEQEND
  8
0
  0
POLYLINE
  8
20
 66
1
 10
0.0000
 20
0.0000
 30
0.0000
 40
0.0381
 41
0.0381
 70
0
  0
VERTEX
  8
20
 10
21.1310
 20
3.9691
 30
0.0000
 42
1.0000
  0
VERTEX
  8
20
 10
21.1310
 20
3.9310
 30
0.0000
  0
SEQEND
  8
0
  0
POLYLINE
  8
20
 66
1
 10
0.0000
 20
0.0000
 30
0.0000
 40
0.0381
 41
0.0381
 70
0
  0
VERTEX
  8
20
 10
24.2060
 20
3.9310
 30
0.0000
 42
1.0000
  0
VERTEX
  8
20
 10
24.2060
 20
3.9691
 30
0.0000
  0
SEQEND
  8
0
  0
POLYLINE
  8
20
 66
1
 10
0.0000
 20
0.0000
 30
0.0000
 40
0.0762
 41
0.0762
 70
0
  0
VERTEX
  8
20
 10
20.3500
 20
4.7310
 30
0.0000
 42
0.4142
  0
VERTEX
  8
20
 10
21.1310
 20
3.9500
 30
0.0000
  0
SEQEND
  8
0
  0
POLYLINE
  8
20
 66
1
 10
0.0000
 20
0.0000
 30
0.0000
 40
0.0381
 41
0.0381
 70
0
  0
VERTEX
  8
20
 10
20.3691
 20
4.7310
 30
0.0000
 42
1.0000
  0
VERTEX
  8
20
 10
20.3310
 20
4.7310
 30
0.0000
  0
SEQEND
  8
0
  0
POLYLINE
  8
20
 66
1
 10
0.0000
 20
0.0000
 30
0.0000
 40
0.0381
 41
0.0381
 70
0
  0
VERTEX
  8
20
 10
21.1310
 20
3.9310
 30
0.0000
 42
1.0000
  0
VERTEX
  8
20
 10
21.1310
 20
3.9691
 30
0.0000
  0
SEQEND
  8
0
  0
POLYLINE
  8
20
 66
1
 10
0.0000
 20
0.0000
 30
0.0000
 40
0.0762
 41
0.0762
 70
0
  0
VERTEX
  8
20
 10
20.3500
 20
4.7310
 30
0.0000
  0
VERTEX
  8
20
 10
20.3500
 20
6.8498
 30
0.0000
  0
SEQEND
  8
0
  0
POLYLINE
  8
20
 66
1
 10
0.0000
 20
0.0000
 30
0.0000
 40
0.0381
 41
0.0381
 70
0
  0
VERTEX
  8
20
 10
20.3691
 20
6.8498
 30
0.0000
 42
1.0000
  0
VERTEX
  8
20
 10
20.3310
 20
6.8498
 30
0.0000
  0
SEQEND
  8
0
  0
POLYLINE
  8
20
 66
1
 10
0.0000
 20
0.0000
 30
0.0000
 40
0.0381
 41
0.0381
 70
0
  0
VERTEX
  8
20
 10
20.3310
 20
4.7310
 30
0.0000
 42
1.0000
  0
VERTEX
  8
20
 10
20.3691
 20
4.7310
 30
0.0000
  0
SEQEND
  8
0
  0
POLYLINE
  8
20
 66
1
 10
0.0000
 20
0.0000
 30
0.0000
 40
0.0762
 41
0.0762
 70
0
  0
VERTEX
  8
20
 10
21.2402
 20
7.7400
 30
0.0000
 42
0.4142
  0
VERTEX
  8
20
 10
20.3500
 20
6.8498
 30
0.0000
  0
SEQEND
  8
0
  0
POLYLINE
  8
20
 66
1
 10
0.0000
 20
0.0000
 30
0.0000
 40
0.0381
 41
0.0381
 70
0
  0
VERTEX
  8
20
 10
21.2402
 20
7.7210
 30
0.0000
 42
1.0000
  0
VERTEX
  8
20
 10
21.2402
 20
7.7591
 30
0.0000
  0
SEQEND
  8
0
  0
POLYLINE
  8
20
 66
1
 10
0.0000
 20
0.0000
 30
0.0000
 40
0.0381
 41
0.0381
 70
0
  0
VERTEX
  8
20
 10
20.3310
 20
6.8498
 30
0.0000
 42
1.0000
  0
VERTEX
  8
20
 10
20.3691
 20
6.8498
 30
0.0000
  0
SEQEND
  8
0
  0
POLYLINE
  8
20
 66
1
 10
0.0000
 20
0.0000
 30
0.0000
 40
0.0762
 41
0.0762
 70
0
  0
VERTEX
  8
20
 10
57.6400
 20
6.8695
 30
0.0000
 42
0.4142
  0
VERTEX
  8
20
 10
56.7695
 20
7.7400
 30
0.0000
  0
SEQEND
  8
0
  0
POLYLINE
  8
20
 66
1
 10
0.0000
 20
0.0000
 30
0.0000
 40
0.0381
 41
0.0381
 70
0
  0
VERTEX
  8
20
 10
57.6210
 20
6.8695
 30
0.0000
 42
1.0000
  0
VERTEX
  8
20
 10
57.6591
 20
6.8695
 30
0.0000
  0
SEQEND
  8
0
  0
POLYLINE
  8
20
 66
1
 10
0.0000
 20
0.0000
 30
0.0000
 40
0.0381
 41
0.0381
 70
0
  0
VERTEX
  8
20
 10
56.7695
 20
7.7591
 30
0.0000
 42
1.0000
  0
VERTEX
  8
20
 10
56.7695
 20
7.7210
 30
0.0000
  0
SEQEND
  8
0
  0
POLYLINE
  8
20
 66
1
 10
0.0000
 20
0.0000
 30
0.0000
 40
0.0762
 41
0.0762
 70
0
  0
VERTEX
  8
20
 10
57.6400
 20
6.8695
 30
0.0000
  0
VERTEX
  8
20
 10
57.6400
 20
4.6941
 30
0.0000
  0
SEQEND
  8
0
  0
POLYLINE
  8
20
 66
1
 10
0.0000
 20
0.0000
 30
0.0000
 40
0.0381
 41
0.0381
 70
0
  0
VERTEX
  8
20
 10
57.6210
 20
4.6941
 30
0.0000
 42
1.0000
  0
VERTEX
  8
20
 10
57.6591
 20
4.6941
 30
0.0000
  0
SEQEND
  8
0
  0
POLYLINE
  8
20
 66
1
 10
0.0000
 20
0.0000
 30
0.0000
 40
0.0381
 41
0.0381
 70
0
  0
VERTEX
  8
20
 10
57.6591
 20
6.8695
 30
0.0000
 42
1.0000
  0
VERTEX
  8
20
 10
57.6210
 20
6.8695
 30
0.0000
  0
SEQEND
  8
0
  0
POLYLINE
  8
20
 66
1
 10
0.0000
 20
0.0000
 30
0.0000
 40
0.0762
 41
0.0762
 70
0
  0
VERTEX
  8
20
 10
56.9059
 20
3.9600
 30
0.0000
 42
0.4142
  0
VERTEX
  8
20
 10
57.6400
 20
4.6941
 30
0.0000
  0
SEQEND
  8
0
  0
POLYLINE
  8
20
 66
1
 10
0.0000
 20
0.0000
 30
0.0000
 40
0.0381
 41
0.0381
 70
0
  0
VERTEX
  8
20
 10
56.9059
 20
3.9791
 30
0.0000
 42
1.0000
  0
VERTEX
  8
20
 10
56.9059
 20
3.9410
 30
0.0000
  0
SEQEND
  8
0
  0
POLYLINE
  8
20
 66
1
 10
0.0000
 20
0.0000
 30
0.0000
 40
0.0381
 41
0.0381
 70
0
  0
VERTEX
  8
20
 10
57.6591
 20
4.6941
 30
0.0000
 42
1.0000
  0
VERTEX
  8
20
 10
57.6210
 20
4.6941
 30
0.0000
  0
SEQEND
  8
0
  0
POLYLINE
  8
20
 66
1
 10
0.0000
 20
0.0000
 30
0.0000
 40
0.0762
 41
0.0762
 70
0
  0
VERTEX
  8
20
 10
56.9059
 20
3.9600
 30
0.0000
  0
VERTEX
  8
20
 10
53.8001
 20
3.9600
 30
0.0000
  0
SEQEND
  8
0
  0
POLYLINE
  8
20
 66
1
 10
0.0000
 20
0.0000
 30
0.0000
 40
0.0381
 41
0.0381
 70
0
  0
VERTEX
  8
20
 10
53.8001
 20
3.9791
 30
0.0000
 42
1.0000
  0
VERTEX
  8
20
 10
53.8001
 20
3.9410
 30
0.0000
  0
SEQEND
  8
0
  0
POLYLINE
  8
20
 66
1
 10
0.0000
 20
0.0000
 30
0.0000
 40
0.0381
 41
0.0381
 70
0
  0
VERTEX
  8
20
 10
56.9059
 20
3.9410
 30
0.0000
 42
1.0000
  0
VERTEX
  8
20
 10
56.9059
 20
3.9791
 30
0.0000
  0
SEQEND
  8
0
  0
POLYLINE
  8
20
 66
1
 10
0.0000
 20
0.0000
 30
0.0000
 40
0.0762
 41
0.0762
 70
0
  0
VERTEX
  8
20
 10
53.8001
 20
3.9600
 30
0.0000
 42
0.4142
  0
VERTEX
  8
20
 10
52.9800
 20
3.1399
 30
0.0000
  0
SEQEND
  8
0
  0
POLYLINE
  8
20
 66
1
 10
0.0000
 20
0.0000
 30
0.0000
 40
0.0381
 41
0.0381
 70
0
  0
VERTEX
  8
20
 10
53.8001
 20
3.9410
 30
0.0000
 42
1.0000
  0
VERTEX
  8
20
 10
53.8001
 20
3.9791
 30
0.0000
  0
SEQEND
  8
0
  0
POLYLINE
  8
20
 66
1
 10
0.0000
 20
0.0000
 30
0.0000
 40
0.0381
 41
0.0381
 70
0
  0
VERTEX
  8
20
 10
52.9610
 20
3.1399
 30
0.0000
 42
1.0000
  0
VERTEX
  8
20
 10
52.9991
 20
3.1399
 30
0.0000
  0
SEQEND
  8
0
  0
POLYLINE
  8
20
 66
1
 10
0.0000
 20
0.0000
 30
0.0000
 40
0.0762
 41
0.0762
 70
0
  0
VERTEX
  8
20
 10
52.9800
 20
3.1399
 30
0.0000
  0
VERTEX
  8
20
 10
52.9800
 20
3.1300
 30
0.0000
  0
SEQEND
  8
0
  0
POLYLINE
  8
20
 66
1
 10
0.0000
 20
0.0000
 30
0.0000
 40
0.0381
 41
0.0381
 70
0
  0
VERTEX
  8
20
 10
52.9610
 20
3.1300
 30
0.0000
 42
1.0000
  0
VERTEX
  8
20
 10
52.9991
 20
3.1300
 30
0.0000
  0
SEQEND
  8
0
  0
POLYLINE
  8
20
 66
1
 10
0.0000
 20
0.0000
 30
0.0000
 40
0.0381
 41
0.0381
 70
0
  0
VERTEX
  8
20
 10
52.9991
 20
3.1399
 30
0.0000
 42
1.0000
  0
VERTEX
  8
20
 10
52.9610
 20
3.1399
 30
0.0000
  0
SEQEND
  8
0
  0
POLYLINE
  8
20
 66
1
 10
0.0000
 20
0.0000
 30
0.0000
 40
0.0762
 41
0.0762
 70
0
  0
VERTEX
  8
20
 10
52.9800
 20
3.1100
 30
0.0000
  0
VERTEX
  8
20
 10
52.9800
 20
0.8088
 30
0.0000
  0
SEQEND
  8
0
  0
POLYLINE
  8
20
 66
1
 10
0.0000
 20
0.0000
 30
0.0000
 40
0.0381
 41
0.0381
 70
0
  0
VERTEX
  8
20
 10
52.9610
 20
0.8088
 30
0.0000
 42
1.0000
  0
VERTEX
  8
20
 10
52.9991
 20
0.8088
 30
0.0000
  0
SEQEND
  8
0
  0
POLYLINE
  8
20
 66
1
 10
0.0000
 20
0.0000
 30
0.0000
 40
0.0381
 41
0.0381
 70
0
  0
VERTEX
  8
20
 10
52.9991
 20
3.1100
 30
0.0000
 42
1.0000
  0
VERTEX
  8
20
 10
52.9610
 20
3.1100
 30
0.0000
  0
SEQEND
  8
0
  0
POLYLINE
  8
20
 66
1
 10
0.0000
 20
0.0000
 30
0.0000
 40
0.0762
 41
0.0762
 70
0
  0
VERTEX
  8
20
 10
52.9800
 20
0.8088
 30
0.0000
 42
0.4142
  0
VERTEX
  8
20
 10
53.7588
 20
0.0300
 30
0.0000
  0
SEQEND
  8
0
  0
POLYLINE
  8
20
 66
1
 10
0.0000
 20
0.0000
 30
0.0000
 40
0.0381
 41
0.0381
 70
0
  0
VERTEX
  8
20
 10
52.9991
 20
0.8088
 30
0.0000
 42
1.0000
  0
VERTEX
  8
20
 10
52.9610
 20
0.8088
 30
0.0000
  0
SEQEND
  8
0
  0
POLYLINE
  8
20
 66
1
 10
0.0000
 20
0.0000
 30
0.0000
 40
0.0381
 41
0.0381
 70
0
  0
VERTEX
  8
20
 10
53.7588
 20
0.0110
 30
0.0000
 42
1.0000
  0
VERTEX
  8
20
 10
53.7588
 20
0.0491
 30
0.0000
  0
SEQEND
  8
0
  0
POLYLINE
  8
20
 66
1
 10
0.0000
 20
0.0000
 30
0.0000
 40
0.0762
 41
0.0762
 70
0
  0
VERTEX
  8
20
 10
53.7588
 20
0.0300
 30
0.0000
  0
VERTEX
  8
20
 10
76.9980
 20
0.0300
 30
0.0000
  0
SEQEND
  8
0
  0
POLYLINE
  8
20
 66
1
 10
0.0000
 20
0.0000
 30
0.0000
 40
0.0381
 41
0.0381
 70
0
  0
VERTEX
  8
20
 10
76.9980
 20
0.0110
 30
0.0000
 42
1.0000
  0
VERTEX
  8
20
 10
76.9980
 20
0.0491
 30
0.0000
  0
SEQEND
  8
0
  0
POLYLINE
  8
20
 66
1
 10
0.0000
 20
0.0000
 30
0.0000
 40
0.0381
 41
0.0381
 70
0
  0
VERTEX
  8
20
 10
53.7588
 20
0.0491
 30
0.0000
 42
1.0000
  0
VERTEX
  8
20
 10
53.7588
 20
0.0110
 30
0.0000
  0
SEQEND
  8
0
  0
POLYLINE
  8
20
 66
1
 10
0.0000
 20
0.0000
 30
0.0000
 40
0.0762
 41
0.0762
 70
0
  0
VERTEX
  8
20
 10
76.9980
 20
0.0300
 30
0.0000
 42
0.4142
  0
VERTEX
  8
20
 10
77.8400
 20
0.8720
 30
0.0000
  0
SEQEND
  8
0
  0
POLYLINE
  8
20
 66
1
 10
0.0000
 20
0.0000
 30
0.0000
 40
0.0381
 41
0.0381
 70
0
  0
VERTEX
  8
20
 10
76.9980
 20
0.0491
 30
0.0000
 42
1.0000
  0
VERTEX
  8
20
 10
76.9980
 20
0.0110
 30
0.0000
  0
SEQEND
  8
0
  0
POLYLINE
  8
20
 66
1
 10
0.0000
 20
0.0000
 30
0.0000
 40
0.0381
 41
0.0381
 70
0
  0
VERTEX
  8
20
 10
77.8590
 20
0.8720
 30
0.0000
 42
1.0000
  0
VERTEX
  8
20
 10
77.8210
 20
0.8720
 30
0.0000
  0
SEQEND
  8
0
  0
POLYLINE
  8
20
 66
1
 10
0.0000
 20
0.0000
 30
0.0000
 40
0.0762
 41
0.0762
 70
0
  0
VERTEX
  8
20
 10
77.8400
 20
0.8720
 30
0.0000
  0
VERTEX
  8
20
 10
77.8400
 20
3.0619
 30
0.0000
  0
SEQEND
  8
0
  0
POLYLINE
  8
20
 66
1
 10
0.0000
 20
0.0000
 30
0.0000
 40
0.0381
 41
0.0381
 70
0
  0
VERTEX
  8
20
 10
77.8590
 20
3.0619
 30
0.0000
 42
1.0000
  0
VERTEX
  8
20
 10
77.8210
 20
3.0619
 30
0.0000
  0
SEQEND
  8
0
  0
POLYLINE
  8
20
 66
1
 10
0.0000
 20
0.0000
 30
0.0000
 40
0.0381
 41
0.0381
 70
0
  0
VERTEX
  8
20
 10
77.8210
 20
0.8720
 30
0.0000
 42
1.0000
  0
VERTEX
  8
20
 10
77.8590
 20
0.8720
 30
0.0000
  0
SEQEND
  8
0
  0
POLYLINE
  8
20
 66
1
 10
0.0000
 20
0.0000
 30
0.0000
 40
0.0762
 41
0.0762
 70
0
  0
VERTEX
  8
20
 10
77.8400
 20
3.0619
 30
0.0000
 42
0.4142
  0
VERTEX
  8
20
 10
76.9419
 20
3.9600
 30
0.0000
  0
SEQEND
  8
0
  0
POLYLINE
  8
20
 66
1
 10
0.0000
 20
0.0000
 30
0.0000
 40
0.0381
 41
0.0381
 70
0
  0
VERTEX
  8
20
 10
77.8210
 20
3.0619
 30
0.0000
 42
1.0000
  0
VERTEX
  8
20
 10
77.8590
 20
3.0619
 30
0.0000
  0
SEQEND
  8
0
  0
POLYLINE
  8
20
 66
1
 10
0.0000
 20
0.0000
 30
0.0000
 40
0.0381
 41
0.0381
 70
0
  0
VERTEX
  8
20
 10
76.9419
 20
3.9791
 30
0.0000
 42
1.0000
  0
VERTEX
  8
20
 10
76.9419
 20
3.9410
 30
0.0000
  0
SEQEND
  8
0
  0
POLYLINE
  8
20
 66
1
 10
0.0000
 20
0.0000
 30
0.0000
 40
0.0762
 41
0.0762
 70
0
  0
VERTEX
  8
20
 10
76.9419
 20
3.9600
 30
0.0000
  0
VERTEX
  8
20
 10
70.7832
 20
3.9600
 30
0.0000
  0
SEQEND
  8
0
  0
POLYLINE
  8
20
 66
1
 10
0.0000
 20
0.0000
 30
0.0000
 40
0.0381
 41
0.0381
 70
0
  0
VERTEX
  8
20
 10
70.7832
 20
3.9791
 30
0.0000
 42
1.0000
  0
VERTEX
  8
20
 10
70.7832
 20
3.9410
 30
0.0000
  0
SEQEND
  8
0
  0
POLYLINE
  8
20
 66
1
 10
0.0000
 20
0.0000
 30
0.0000
 40
0.0381
 41
0.0381
 70
0
  0
VERTEX
  8
20
 10
76.9419
 20
3.9410
 30
0.0000
 42
1.0000
  0
VERTEX
  8
20
 10
76.9419
 20
3.9791
 30
0.0000
  0
SEQEND
  8
0
  0
POLYLINE
  8
20
 66
1
 10
0.0000
 20
0.0000
 30
0.0000
 40
0.0762
 41
0.0762
 70
0
  0
VERTEX
  8
20
 10
70.0700
 20
4.6732
 30
0.0000
 42
0.4142
  0
VERTEX
  8
20
 10
70.7832
 20
3.9600
 30
0.0000
  0
SEQEND
  8
0
  0
POLYLINE
  8
20
 66
1
 10
0.0000
 20
0.0000
 30
0.0000
 40
0.0381
 41
0.0381
 70
0
  0
VERTEX
  8
20
 10
70.0891
 20
4.6732
 30
0.0000
 42
1.0000
  0
VERTEX
  8
20
 10
70.0510
 20
4.6732
 30
0.0000
  0
SEQEND
  8
0
  0
POLYLINE
  8
20
 66
1
 10
0.0000
 20
0.0000
 30
0.0000
 40
0.0381
 41
0.0381
 70
0
  0
VERTEX
  8
20
 10
70.7832
 20
3.9410
 30
0.0000
 42
1.0000
  0
VERTEX
  8
20
 10
70.7832
 20
3.9791
 30
0.0000
  0
SEQEND
  8
0
  0
POLYLINE
  8
20
 66
1
 10
0.0000
 20
0.0000
 30
0.0000
 40
0.0762
 41
0.0762
 70
0
  0
VERTEX
  8
20
 10
70.0700
 20
4.6732
 30
0.0000
  0
VERTEX
  8
20
 10
70.0700
 20
59.0177
 30
0.0000
  0
SEQEND
  8
0
  0
POLYLINE
  8
20
 66
1
 10
0.0000
 20
0.0000
 30
0.0000
 40
0.0381
 41
0.0381
 70
0
  0
VERTEX
  8
20
 10
70.0891
 20
59.0177
 30
0.0000
 42
1.0000
  0
VERTEX
  8
20
 10
70.0510
 20
59.0177
 30
0.0000
  0
SEQEND
  8
0
  0
POLYLINE
  8
20
 66
1
 10
0.0000
 20
0.0000
 30
0.0000
 40
0.0381
 41
0.0381
 70
0
  0
VERTEX
  8
20
 10
70.0510
 20
4.6732
 30
0.0000
 42
1.0000
  0
VERTEX
  8
20
 10
70.0891
 20
4.6732
 30
0.0000
  0
SEQEND
  8
0
  0
POLYLINE
  8
20
 66
1
 10
0.0000
 20
0.0000
 30
0.0000
 40
0.0762
 41
0.0762
 70
0
  0
VERTEX
  8
20
 10
21.2550
 20
7.7370
 30
0.0000
  0
VERTEX
  8
20
 10
28.7700
 20
6.7800
 30
0.0000
  0
SEQEND
  8
0
  0
POLYLINE
  8
20
 66
1
 10
0.0000
 20
0.0000
 30
0.0000
 40
0.0381
 41
0.0381
 70
0
  0
VERTEX
  8
20
 10
28.7676
 20
6.7611
 30
0.0000
 42
1.0000
  0
VERTEX
  8
20
 10
28.7724
 20
6.7989
 30
0.0000
  0
SEQEND
  8
0
  0
POLYLINE
  8
20
 66
1
 10
0.0000
 20
0.0000
 30
0.0000
 40
0.0381
 41
0.0381
 70
0
  0
VERTEX
  8
20
 10
21.2574
 20
7.7559
 30
0.0000
 42
1.0000
  0
VERTEX
  8
20
 10
21.2526
 20
7.7181
 30
0.0000
  0
SEQEND
  8
0
  0
POLYLINE
  8
20
 66
1
 10
0.0000
 20
0.0000
 30
0.0000
 40
0.0762
 41
0.0762
 70
0
  0
VERTEX
  8
20
 10
28.7700
 20
6.7800
 30
0.0000
 42
0.0303
  0
VERTEX
  8
20
 10
33.9700
 20
6.4400
 30
0.0000
  0
SEQEND
  8
0
  0
POLYLINE
  8
20
 66
1
 10
0.0000
 20
0.0000
 30
0.0000
 40
0.0381
 41
0.0381
 70
0
  0
VERTEX
  8
20
 10
28.7724
 20
6.7989
 30
0.0000
 42
1.0000
  0
VERTEX
  8
20
 10
28.7676
 20
6.7611
 30
0.0000
  0
SEQEND
  8
0
  0
POLYLINE
  8
20
 66
1
 10
0.0000
 20
0.0000
 30
0.0000
 40
0.0381
 41
0.0381
 70
0
  0
VERTEX
  8
20
 10
33.9699
 20
6.4210
 30
0.0000
 42
1.0000
  0
VERTEX
  8
20
 10
33.9701
 20
6.4590
 30
0.0000
  0
SEQEND
  8
0
  0
POLYLINE
  8
20
 66
1
 10
0.0000
 20
0.0000
 30
0.0000
 40
0.0762
 41
0.0762
 70
0
  0
VERTEX
  8
20
 10
35.6800
 20
6.3700
 30
0.0000
 42
0.0181
  0
VERTEX
  8
20
 10
33.9700
 20
6.4400
 30
0.0000
  0
SEQEND
  8
0
  0
POLYLINE
  8
20
 66
1
 10
0.0000
 20
0.0000
 30
0.0000
 40
0.0381
 41
0.0381
 70
0
  0
VERTEX
  8
20
 10
35.6785
 20
6.3510
 30
0.0000
 42
1.0000
  0
VERTEX
  8
20
 10
35.6815
 20
6.3890
 30
0.0000
  0
SEQEND
  8
0
  0
POLYLINE
  8
20
 66
1
 10
0.0000
 20
0.0000
 30
0.0000
 40
0.0381
 41
0.0381
 70
0
  0
VERTEX
  8
20
 10
33.9701
 20
6.4590
 30
0.0000
 42
1.0000
  0
VERTEX
  8
20
 10
33.9699
 20
6.4210
 30
0.0000
  0
SEQEND
  8
0
  0
POLYLINE
  8
20
 66
1
 10
0.0000
 20
0.0000
 30
0.0000
 40
0.0762
 41
0.0762
 70
0
  0
VERTEX
  8
20
 10
35.6800
 20
6.3700
 30
0.0000
 42
0.0332
  0
VERTEX
  8
20
 10
39.4200
 20
6.3300
 30
0.0000
  0
SEQEND
  8
0
  0
POLYLINE
  8
20
 66
1
 10
0.0000
 20
0.0000
 30
0.0000
 40
0.0381
 41
0.0381
 70
0
  0
VERTEX
  8
20
 10
35.6815
 20
6.3890
 30
0.0000
 42
1.0000
  0
VERTEX
  8
20
 10
35.6785
 20
6.3510
 30
0.0000
  0
SEQEND
  8
0
  0
POLYLINE
  8
20
 66
1
 10
0.0000
 20
0.0000
 30
0.0000
 40
0.0381
 41
0.0381
 70
0
  0
VERTEX
  8
20
 10
39.4211
 20
6.3110
 30
0.0000
 42
1.0000
  0
VERTEX
  8
20
 10
39.4189
 20
6.3490
 30
0.0000
  0
SEQEND
  8
0
  0
POLYLINE
  8
20
 66
1
 10
0.0000
 20
0.0000
 30
0.0000
 40
0.0762
 41
0.0762
 70
0
  0
VERTEX
  8
20
 10
40.5000
 20
6.3200
 30
0.0000
 42
0.0325
  0
VERTEX
  8
20
 10
39.4200
 20
6.3300
 30
0.0000
  0
SEQEND
  8
0
  0
POLYLINE
  8
20
 66
1
 10
0.0000
 20
0.0000
 30
0.0000
 40
0.0381
 41
0.0381
 70
0
  0
VERTEX
  8
20
 10
40.4986
 20
6.3010
 30
0.0000
 42
1.0000
  0
VERTEX
  8
20
 10
40.5014
 20
6.3390
 30
0.0000
  0
SEQEND
  8
0
  0
POLYLINE
  8
20
 66
1
 10
0.0000
 20
0.0000
 30
0.0000
 40
0.0381
 41
0.0381
 70
0
  0
VERTEX
  8
20
 10
39.4189
 20
6.3490
 30
0.0000
 42
1.0000
  0
VERTEX
  8
20
 10
39.4211
 20
6.3110
 30
0.0000
  0
SEQEND
  8
0
  0
POLYLINE
  8
20
 66
1
 10
0.0000
 20
0.0000
 30
0.0000
 40
0.0762
 41
0.0762
 70
0
  0
VERTEX
  8
20
 10
40.5000
 20
6.3200
 30
0.0000
 42
0.0371
  0
VERTEX
  8
20
 10
41.2400
 20
6.3200
 30
0.0000
  0
SEQEND
  8
0
  0
POLYLINE
  8
20
 66
1
 10
0.0000
 20
0.0000
 30
0.0000
 40
0.0381
 41
0.0381
 70
0
  0
VERTEX
  8
20
 10
40.5014
 20
6.3390
 30
0.0000
 42
1.0000
  0
VERTEX
  8
20
 10
40.4986
 20
6.3010
 30
0.0000
  0
SEQEND
  8
0
  0
POLYLINE
  8
20
 66
1
 10
0.0000
 20
0.0000
 30
0.0000
 40
0.0381
 41
0.0381
 70
0
  0
VERTEX
  8
20
 10
41.2414
 20
6.3010
 30
0.0000
 42
1.0000
  0
VERTEX
  8
20
 10
41.2386
 20
6.3390
 30
0.0000
  0
SEQEND
  8
0
  0
POLYLINE
  8
20
 66
1
 10
0.0000
 20
0.0000
 30
0.0000
 40
0.0762
 41
0.0762
 70
0
  0
VERTEX
  8
20
 10
42.8500
 20
6.3700
 30
0.0000
 42
0.0216
  0
VERTEX
  8
20
 10
41.2400
 20
6.3200
 30
0.0000
  0
SEQEND
  8
0
  0
POLYLINE
  8
20
 66
1
 10
0.0000
 20
0.0000
 30
0.0000
 40
0.0381
 41
0.0381
 70
0
  0
VERTEX
  8
20
 10
42.8498
 20
6.3510
 30
0.0000
 42
1.0000
  0
VERTEX
  8
20
 10
42.8502
 20
6.3890
 30
0.0000
  0
SEQEND
  8
0
  0
POLYLINE
  8
20
 66
1
 10
0.0000
 20
0.0000
 30
0.0000
 40
0.0381
 41
0.0381
 70
0
  0
VERTEX
  8
20
 10
41.2386
 20
6.3390
 30
0.0000
 42
1.0000
  0
VERTEX
  8
20
 10
41.2414
 20
6.3010
 30
0.0000
  0
SEQEND
  8
0
  0
POLYLINE
  8
20
 66
1
 10
0.0000
 20
0.0000
 30
0.0000
 40
0.0762
 41
0.0762
 70
0
  0
VERTEX
  8
20
 10
42.8500
 20
6.3700
 30
0.0000
 42
0.0239
  0
VERTEX
  8
20
 10
44.8100
 20
6.4400
 30
0.0000
  0
SEQEND
  8
0
  0
POLYLINE
  8
20
 66
1
 10
0.0000
 20
0.0000
 30
0.0000
 40
0.0381
 41
0.0381
 70
0
  0
VERTEX
  8
20
 10
42.8502
 20
6.3890
 30
0.0000
 42
1.0000
  0
VERTEX
  8
20
 10
42.8498
 20
6.3510
 30
0.0000
  0
SEQEND
  8
0
  0
POLYLINE
  8
20
 66
1
 10
0.0000
 20
0.0000
 30
0.0000
 40
0.0381
 41
0.0381
 70
0
  0
VERTEX
  8
20
 10
44.8116
 20
6.4210
 30
0.0000
 42
1.0000
  0
VERTEX
  8
20
 10
44.8084
 20
6.4590
 30
0.0000
  0
SEQEND
  8
0
  0
POLYLINE
  8
20
 66
1
 10
0.0000
 20
0.0000
 30
0.0000
 40
0.0762
 41
0.0762
 70
0
  0
VERTEX
  8
20
 10
45.8500
 20
6.5000
 30
0.0000
 42
0.0129
  0
VERTEX
  8
20
 10
44.8100
 20
6.4400
 30
0.0000
  0
SEQEND
  8
0
  0
POLYLINE
  8
20
 66
1
 10
0.0000
 20
0.0000
 30
0.0000
 40
0.0381
 41
0.0381
 70
0
  0
VERTEX
  8
20
 10
45.8506
 20
6.4810
 30
0.0000
 42
1.0000
  0
VERTEX
  8
20
 10
45.8494
 20
6.5190
 30
0.0000
  0
SEQEND
  8
0
  0
POLYLINE
  8
20
 66
1
 10
0.0000
 20
0.0000
 30
0.0000
 40
0.0381
 41
0.0381
 70
0
  0
VERTEX
  8
20
 10
44.8084
 20
6.4590
 30
0.0000
 42
1.0000
  0
VERTEX
  8
20
 10
44.8116
 20
6.4210
 30
0.0000
  0
SEQEND
  8
0
  0
POLYLINE
  8
20
 66
1
 10
0.0000
 20
0.0000
 30
0.0000
 40
0.0762
 41
0.0762
 70
0
  0
VERTEX
  8
20
 10
45.8500
 20
6.5000
 30
0.0000
 42
0.0244
  0
VERTEX
  8
20
 10
50.0600
 20
6.8400
 30
0.0000
  0
SEQEND
  8
0
  0
POLYLINE
  8
20
 66
1
 10
0.0000
 20
0.0000
 30
0.0000
 40
0.0381
 41
0.0381
 70
0
  0
VERTEX
  8
20
 10
45.8494
 20
6.5190
 30
0.0000
 42
1.0000
  0
VERTEX
  8
20
 10
45.8506
 20
6.4810
 30
0.0000
  0
SEQEND
  8
0
  0
POLYLINE
  8
20
 66
1
 10
0.0000
 20
0.0000
 30
0.0000
 40
0.0381
 41
0.0381
 70
0
  0
VERTEX
  8
20
 10
50.0625
 20
6.8211
 30
0.0000
 42
1.0000
  0
VERTEX
  8
20
 10
50.0575
 20
6.8589
 30
0.0000
  0
SEQEND
  8
0
  0
POLYLINE
  8
20
 66
1
 10
0.0000
 20
0.0000
 30
0.0000
 40
0.0762
 41
0.0762
 70
0
  0
VERTEX
  8
20
 10
51.1400
 20
6.9400
 30
0.0000
 42
0.0186
  0
VERTEX
  8
20
 10
50.0600
 20
6.8400
 30
0.0000
  0
SEQEND
  8
0
  0
POLYLINE
  8
20
 66
1
 10
0.0000
 20
0.0000
 30
0.0000
 40
0.0381
 41
0.0381
 70
0
  0
VERTEX
  8
20
 10
51.1411
 20
6.9210
 30
0.0000
 42
1.0000
  0
VERTEX
  8
20
 10
51.1389
 20
6.9590
 30
0.0000
  0
SEQEND
  8
0
  0
POLYLINE
  8
20
 66
1
 10
0.0000
 20
0.0000
 30
0.0000
 40
0.0381
 41
0.0381
 70
0
  0
VERTEX
  8
20
 10
50.0575
 20
6.8589
 30
0.0000
 42
1.0000
  0
VERTEX
  8
20
 10
50.0625
 20
6.8211
 30
0.0000
  0
SEQEND
  8
0
  0
POLYLINE
  8
20
 66
1
 10
0.0000
 20
0.0000
 30
0.0000
 40
0.0762
 41
0.0762
 70
0
  0
VERTEX
  8
20
 10
51.1500
 20
6.9400
 30
0.0000
  0
VERTEX
  8
20
 10
54.6700
 20
7.4200
 30
0.0000
  0
SEQEND
  8
0
  0
POLYLINE
  8
20
 66
1
 10
0.0000
 20
0.0000
 30
0.0000
 40
0.0381
 41
0.0381
 70
0
  0
VERTEX
  8
20
 10
54.6726
 20
7.4011
 30
0.0000
 42
1.0000
  0
VERTEX
  8
20
 10
54.6674
 20
7.4389
 30
0.0000
  0
SEQEND
  8
0
  0
POLYLINE
  8
20
 66
1
 10
0.0000
 20
0.0000
 30
0.0000
 40
0.0381
 41
0.0381
 70
0
  0
VERTEX
  8
20
 10
51.1474
 20
6.9589
 30
0.0000
 42
1.0000
  0
VERTEX
  8
20
 10
51.1526
 20
6.9211
 30
0.0000
  0
SEQEND
  8
0
  0
POLYLINE
  8
20
 66
1
 10
0.0000
 20
0.0000
 30
0.0000
 40
0.0762
 41
0.0762
 70
0
  0
VERTEX
  8
20
 10
54.6700
 20
7.4200
 30
0.0000
 42
0.0075
  0
VERTEX
  8
20
 10
56.7800
 20
7.7400
 30
0.0000
  0
SEQEND
  8
0
  0
POLYLINE
  8
20
 66
1
 10
0.0000
 20
0.0000
 30
0.0000
 40
0.0381
 41
0.0381
 70
0
  0
VERTEX
  8
20
 10
54.6674
 20
7.4389
 30
0.0000
 42
1.0000
  0
VERTEX
  8
20
 10
54.6726
 20
7.4011
 30
0.0000
  0
SEQEND
  8
0
  0
POLYLINE
  8
20
 66
1
 10
0.0000
 20
0.0000
 30
0.0000
 40
0.0381
 41
0.0381
 70
0
  0
VERTEX
  8
20
 10
56.7831
 20
7.7212
 30
0.0000
 42
1.0000
  0
VERTEX
  8
20
 10
56.7769
 20
7.7588
 30
0.0000
  0
SEQEND
  8
0
  0
CIRCLE
  8
20
 10
10.7389
 20
59.1468
 30
0.0000
 40
1.4500
  0
CIRCLE
  8
20
 10
67.2365
 20
59.0877
 30
0.0000
 40
1.4500
  0
CIRCLE
  8
20
 10
67.2365
 20
8.7638
 30
0.0000
 40
1.4500
  0
CIRCLE
  8
20
 10
10.4195
 20
7.8388
 30
0.0000
 40
1.4500
  0
ENDSEC
  0
EOF
