G75*
%MOIN*%
%OFA0B0*%
%FSLAX25Y25*%
%IPPOS*%
%LPD*%
%AMOC8*
5,1,8,0,0,1.08239X$1,22.5*
%
%ADD10C,0.00000*%
%ADD11C,0.00300*%
%ADD12R,0.07000X0.07000*%
%ADD13C,0.07000*%
%ADD14C,0.06000*%
%ADD15OC8,0.05200*%
%ADD16OC8,0.08500*%
%ADD17C,0.15800*%
%ADD18C,0.06600*%
%ADD19OC8,0.06000*%
%ADD20C,0.00800*%
%ADD21C,0.01600*%
%ADD22C,0.03562*%
%ADD23C,0.01772*%
D10*
X0035911Y0031893D02*
X0035913Y0032044D01*
X0035919Y0032194D01*
X0035929Y0032345D01*
X0035943Y0032495D01*
X0035961Y0032644D01*
X0035982Y0032794D01*
X0036008Y0032942D01*
X0036038Y0033090D01*
X0036071Y0033237D01*
X0036109Y0033383D01*
X0036150Y0033528D01*
X0036195Y0033672D01*
X0036244Y0033814D01*
X0036297Y0033955D01*
X0036353Y0034095D01*
X0036413Y0034233D01*
X0036476Y0034370D01*
X0036544Y0034505D01*
X0036614Y0034638D01*
X0036688Y0034769D01*
X0036766Y0034898D01*
X0036847Y0035025D01*
X0036931Y0035150D01*
X0037019Y0035273D01*
X0037110Y0035393D01*
X0037204Y0035511D01*
X0037301Y0035626D01*
X0037401Y0035739D01*
X0037504Y0035849D01*
X0037610Y0035956D01*
X0037719Y0036061D01*
X0037830Y0036162D01*
X0037944Y0036261D01*
X0038060Y0036356D01*
X0038180Y0036449D01*
X0038301Y0036538D01*
X0038425Y0036624D01*
X0038551Y0036707D01*
X0038679Y0036786D01*
X0038809Y0036862D01*
X0038941Y0036935D01*
X0039075Y0037003D01*
X0039211Y0037069D01*
X0039349Y0037131D01*
X0039488Y0037189D01*
X0039628Y0037243D01*
X0039770Y0037294D01*
X0039913Y0037341D01*
X0040058Y0037384D01*
X0040203Y0037423D01*
X0040350Y0037459D01*
X0040497Y0037490D01*
X0040645Y0037518D01*
X0040794Y0037542D01*
X0040943Y0037562D01*
X0041093Y0037578D01*
X0041243Y0037590D01*
X0041394Y0037598D01*
X0041545Y0037602D01*
X0041695Y0037602D01*
X0041846Y0037598D01*
X0041997Y0037590D01*
X0042147Y0037578D01*
X0042297Y0037562D01*
X0042446Y0037542D01*
X0042595Y0037518D01*
X0042743Y0037490D01*
X0042890Y0037459D01*
X0043037Y0037423D01*
X0043182Y0037384D01*
X0043327Y0037341D01*
X0043470Y0037294D01*
X0043612Y0037243D01*
X0043752Y0037189D01*
X0043891Y0037131D01*
X0044029Y0037069D01*
X0044165Y0037003D01*
X0044299Y0036935D01*
X0044431Y0036862D01*
X0044561Y0036786D01*
X0044689Y0036707D01*
X0044815Y0036624D01*
X0044939Y0036538D01*
X0045060Y0036449D01*
X0045180Y0036356D01*
X0045296Y0036261D01*
X0045410Y0036162D01*
X0045521Y0036061D01*
X0045630Y0035956D01*
X0045736Y0035849D01*
X0045839Y0035739D01*
X0045939Y0035626D01*
X0046036Y0035511D01*
X0046130Y0035393D01*
X0046221Y0035273D01*
X0046309Y0035150D01*
X0046393Y0035025D01*
X0046474Y0034898D01*
X0046552Y0034769D01*
X0046626Y0034638D01*
X0046696Y0034505D01*
X0046764Y0034370D01*
X0046827Y0034233D01*
X0046887Y0034095D01*
X0046943Y0033955D01*
X0046996Y0033814D01*
X0047045Y0033672D01*
X0047090Y0033528D01*
X0047131Y0033383D01*
X0047169Y0033237D01*
X0047202Y0033090D01*
X0047232Y0032942D01*
X0047258Y0032794D01*
X0047279Y0032644D01*
X0047297Y0032495D01*
X0047311Y0032345D01*
X0047321Y0032194D01*
X0047327Y0032044D01*
X0047329Y0031893D01*
X0047327Y0031742D01*
X0047321Y0031592D01*
X0047311Y0031441D01*
X0047297Y0031291D01*
X0047279Y0031142D01*
X0047258Y0030992D01*
X0047232Y0030844D01*
X0047202Y0030696D01*
X0047169Y0030549D01*
X0047131Y0030403D01*
X0047090Y0030258D01*
X0047045Y0030114D01*
X0046996Y0029972D01*
X0046943Y0029831D01*
X0046887Y0029691D01*
X0046827Y0029553D01*
X0046764Y0029416D01*
X0046696Y0029281D01*
X0046626Y0029148D01*
X0046552Y0029017D01*
X0046474Y0028888D01*
X0046393Y0028761D01*
X0046309Y0028636D01*
X0046221Y0028513D01*
X0046130Y0028393D01*
X0046036Y0028275D01*
X0045939Y0028160D01*
X0045839Y0028047D01*
X0045736Y0027937D01*
X0045630Y0027830D01*
X0045521Y0027725D01*
X0045410Y0027624D01*
X0045296Y0027525D01*
X0045180Y0027430D01*
X0045060Y0027337D01*
X0044939Y0027248D01*
X0044815Y0027162D01*
X0044689Y0027079D01*
X0044561Y0027000D01*
X0044431Y0026924D01*
X0044299Y0026851D01*
X0044165Y0026783D01*
X0044029Y0026717D01*
X0043891Y0026655D01*
X0043752Y0026597D01*
X0043612Y0026543D01*
X0043470Y0026492D01*
X0043327Y0026445D01*
X0043182Y0026402D01*
X0043037Y0026363D01*
X0042890Y0026327D01*
X0042743Y0026296D01*
X0042595Y0026268D01*
X0042446Y0026244D01*
X0042297Y0026224D01*
X0042147Y0026208D01*
X0041997Y0026196D01*
X0041846Y0026188D01*
X0041695Y0026184D01*
X0041545Y0026184D01*
X0041394Y0026188D01*
X0041243Y0026196D01*
X0041093Y0026208D01*
X0040943Y0026224D01*
X0040794Y0026244D01*
X0040645Y0026268D01*
X0040497Y0026296D01*
X0040350Y0026327D01*
X0040203Y0026363D01*
X0040058Y0026402D01*
X0039913Y0026445D01*
X0039770Y0026492D01*
X0039628Y0026543D01*
X0039488Y0026597D01*
X0039349Y0026655D01*
X0039211Y0026717D01*
X0039075Y0026783D01*
X0038941Y0026851D01*
X0038809Y0026924D01*
X0038679Y0027000D01*
X0038551Y0027079D01*
X0038425Y0027162D01*
X0038301Y0027248D01*
X0038180Y0027337D01*
X0038060Y0027430D01*
X0037944Y0027525D01*
X0037830Y0027624D01*
X0037719Y0027725D01*
X0037610Y0027830D01*
X0037504Y0027937D01*
X0037401Y0028047D01*
X0037301Y0028160D01*
X0037204Y0028275D01*
X0037110Y0028393D01*
X0037019Y0028513D01*
X0036931Y0028636D01*
X0036847Y0028761D01*
X0036766Y0028888D01*
X0036688Y0029017D01*
X0036614Y0029148D01*
X0036544Y0029281D01*
X0036476Y0029416D01*
X0036413Y0029553D01*
X0036353Y0029691D01*
X0036297Y0029831D01*
X0036244Y0029972D01*
X0036195Y0030114D01*
X0036150Y0030258D01*
X0036109Y0030403D01*
X0036071Y0030549D01*
X0036038Y0030696D01*
X0036008Y0030844D01*
X0035982Y0030992D01*
X0035961Y0031142D01*
X0035943Y0031291D01*
X0035929Y0031441D01*
X0035919Y0031592D01*
X0035913Y0031742D01*
X0035911Y0031893D01*
X0259600Y0035535D02*
X0259602Y0035686D01*
X0259608Y0035836D01*
X0259618Y0035987D01*
X0259632Y0036137D01*
X0259650Y0036286D01*
X0259671Y0036436D01*
X0259697Y0036584D01*
X0259727Y0036732D01*
X0259760Y0036879D01*
X0259798Y0037025D01*
X0259839Y0037170D01*
X0259884Y0037314D01*
X0259933Y0037456D01*
X0259986Y0037597D01*
X0260042Y0037737D01*
X0260102Y0037875D01*
X0260165Y0038012D01*
X0260233Y0038147D01*
X0260303Y0038280D01*
X0260377Y0038411D01*
X0260455Y0038540D01*
X0260536Y0038667D01*
X0260620Y0038792D01*
X0260708Y0038915D01*
X0260799Y0039035D01*
X0260893Y0039153D01*
X0260990Y0039268D01*
X0261090Y0039381D01*
X0261193Y0039491D01*
X0261299Y0039598D01*
X0261408Y0039703D01*
X0261519Y0039804D01*
X0261633Y0039903D01*
X0261749Y0039998D01*
X0261869Y0040091D01*
X0261990Y0040180D01*
X0262114Y0040266D01*
X0262240Y0040349D01*
X0262368Y0040428D01*
X0262498Y0040504D01*
X0262630Y0040577D01*
X0262764Y0040645D01*
X0262900Y0040711D01*
X0263038Y0040773D01*
X0263177Y0040831D01*
X0263317Y0040885D01*
X0263459Y0040936D01*
X0263602Y0040983D01*
X0263747Y0041026D01*
X0263892Y0041065D01*
X0264039Y0041101D01*
X0264186Y0041132D01*
X0264334Y0041160D01*
X0264483Y0041184D01*
X0264632Y0041204D01*
X0264782Y0041220D01*
X0264932Y0041232D01*
X0265083Y0041240D01*
X0265234Y0041244D01*
X0265384Y0041244D01*
X0265535Y0041240D01*
X0265686Y0041232D01*
X0265836Y0041220D01*
X0265986Y0041204D01*
X0266135Y0041184D01*
X0266284Y0041160D01*
X0266432Y0041132D01*
X0266579Y0041101D01*
X0266726Y0041065D01*
X0266871Y0041026D01*
X0267016Y0040983D01*
X0267159Y0040936D01*
X0267301Y0040885D01*
X0267441Y0040831D01*
X0267580Y0040773D01*
X0267718Y0040711D01*
X0267854Y0040645D01*
X0267988Y0040577D01*
X0268120Y0040504D01*
X0268250Y0040428D01*
X0268378Y0040349D01*
X0268504Y0040266D01*
X0268628Y0040180D01*
X0268749Y0040091D01*
X0268869Y0039998D01*
X0268985Y0039903D01*
X0269099Y0039804D01*
X0269210Y0039703D01*
X0269319Y0039598D01*
X0269425Y0039491D01*
X0269528Y0039381D01*
X0269628Y0039268D01*
X0269725Y0039153D01*
X0269819Y0039035D01*
X0269910Y0038915D01*
X0269998Y0038792D01*
X0270082Y0038667D01*
X0270163Y0038540D01*
X0270241Y0038411D01*
X0270315Y0038280D01*
X0270385Y0038147D01*
X0270453Y0038012D01*
X0270516Y0037875D01*
X0270576Y0037737D01*
X0270632Y0037597D01*
X0270685Y0037456D01*
X0270734Y0037314D01*
X0270779Y0037170D01*
X0270820Y0037025D01*
X0270858Y0036879D01*
X0270891Y0036732D01*
X0270921Y0036584D01*
X0270947Y0036436D01*
X0270968Y0036286D01*
X0270986Y0036137D01*
X0271000Y0035987D01*
X0271010Y0035836D01*
X0271016Y0035686D01*
X0271018Y0035535D01*
X0271016Y0035384D01*
X0271010Y0035234D01*
X0271000Y0035083D01*
X0270986Y0034933D01*
X0270968Y0034784D01*
X0270947Y0034634D01*
X0270921Y0034486D01*
X0270891Y0034338D01*
X0270858Y0034191D01*
X0270820Y0034045D01*
X0270779Y0033900D01*
X0270734Y0033756D01*
X0270685Y0033614D01*
X0270632Y0033473D01*
X0270576Y0033333D01*
X0270516Y0033195D01*
X0270453Y0033058D01*
X0270385Y0032923D01*
X0270315Y0032790D01*
X0270241Y0032659D01*
X0270163Y0032530D01*
X0270082Y0032403D01*
X0269998Y0032278D01*
X0269910Y0032155D01*
X0269819Y0032035D01*
X0269725Y0031917D01*
X0269628Y0031802D01*
X0269528Y0031689D01*
X0269425Y0031579D01*
X0269319Y0031472D01*
X0269210Y0031367D01*
X0269099Y0031266D01*
X0268985Y0031167D01*
X0268869Y0031072D01*
X0268749Y0030979D01*
X0268628Y0030890D01*
X0268504Y0030804D01*
X0268378Y0030721D01*
X0268250Y0030642D01*
X0268120Y0030566D01*
X0267988Y0030493D01*
X0267854Y0030425D01*
X0267718Y0030359D01*
X0267580Y0030297D01*
X0267441Y0030239D01*
X0267301Y0030185D01*
X0267159Y0030134D01*
X0267016Y0030087D01*
X0266871Y0030044D01*
X0266726Y0030005D01*
X0266579Y0029969D01*
X0266432Y0029938D01*
X0266284Y0029910D01*
X0266135Y0029886D01*
X0265986Y0029866D01*
X0265836Y0029850D01*
X0265686Y0029838D01*
X0265535Y0029830D01*
X0265384Y0029826D01*
X0265234Y0029826D01*
X0265083Y0029830D01*
X0264932Y0029838D01*
X0264782Y0029850D01*
X0264632Y0029866D01*
X0264483Y0029886D01*
X0264334Y0029910D01*
X0264186Y0029938D01*
X0264039Y0029969D01*
X0263892Y0030005D01*
X0263747Y0030044D01*
X0263602Y0030087D01*
X0263459Y0030134D01*
X0263317Y0030185D01*
X0263177Y0030239D01*
X0263038Y0030297D01*
X0262900Y0030359D01*
X0262764Y0030425D01*
X0262630Y0030493D01*
X0262498Y0030566D01*
X0262368Y0030642D01*
X0262240Y0030721D01*
X0262114Y0030804D01*
X0261990Y0030890D01*
X0261869Y0030979D01*
X0261749Y0031072D01*
X0261633Y0031167D01*
X0261519Y0031266D01*
X0261408Y0031367D01*
X0261299Y0031472D01*
X0261193Y0031579D01*
X0261090Y0031689D01*
X0260990Y0031802D01*
X0260893Y0031917D01*
X0260799Y0032035D01*
X0260708Y0032155D01*
X0260620Y0032278D01*
X0260536Y0032403D01*
X0260455Y0032530D01*
X0260377Y0032659D01*
X0260303Y0032790D01*
X0260233Y0032923D01*
X0260165Y0033058D01*
X0260102Y0033195D01*
X0260042Y0033333D01*
X0259986Y0033473D01*
X0259933Y0033614D01*
X0259884Y0033756D01*
X0259839Y0033900D01*
X0259798Y0034045D01*
X0259760Y0034191D01*
X0259727Y0034338D01*
X0259697Y0034486D01*
X0259671Y0034634D01*
X0259650Y0034784D01*
X0259632Y0034933D01*
X0259618Y0035083D01*
X0259608Y0035234D01*
X0259602Y0035384D01*
X0259600Y0035535D01*
X0259600Y0233661D02*
X0259602Y0233812D01*
X0259608Y0233962D01*
X0259618Y0234113D01*
X0259632Y0234263D01*
X0259650Y0234412D01*
X0259671Y0234562D01*
X0259697Y0234710D01*
X0259727Y0234858D01*
X0259760Y0235005D01*
X0259798Y0235151D01*
X0259839Y0235296D01*
X0259884Y0235440D01*
X0259933Y0235582D01*
X0259986Y0235723D01*
X0260042Y0235863D01*
X0260102Y0236001D01*
X0260165Y0236138D01*
X0260233Y0236273D01*
X0260303Y0236406D01*
X0260377Y0236537D01*
X0260455Y0236666D01*
X0260536Y0236793D01*
X0260620Y0236918D01*
X0260708Y0237041D01*
X0260799Y0237161D01*
X0260893Y0237279D01*
X0260990Y0237394D01*
X0261090Y0237507D01*
X0261193Y0237617D01*
X0261299Y0237724D01*
X0261408Y0237829D01*
X0261519Y0237930D01*
X0261633Y0238029D01*
X0261749Y0238124D01*
X0261869Y0238217D01*
X0261990Y0238306D01*
X0262114Y0238392D01*
X0262240Y0238475D01*
X0262368Y0238554D01*
X0262498Y0238630D01*
X0262630Y0238703D01*
X0262764Y0238771D01*
X0262900Y0238837D01*
X0263038Y0238899D01*
X0263177Y0238957D01*
X0263317Y0239011D01*
X0263459Y0239062D01*
X0263602Y0239109D01*
X0263747Y0239152D01*
X0263892Y0239191D01*
X0264039Y0239227D01*
X0264186Y0239258D01*
X0264334Y0239286D01*
X0264483Y0239310D01*
X0264632Y0239330D01*
X0264782Y0239346D01*
X0264932Y0239358D01*
X0265083Y0239366D01*
X0265234Y0239370D01*
X0265384Y0239370D01*
X0265535Y0239366D01*
X0265686Y0239358D01*
X0265836Y0239346D01*
X0265986Y0239330D01*
X0266135Y0239310D01*
X0266284Y0239286D01*
X0266432Y0239258D01*
X0266579Y0239227D01*
X0266726Y0239191D01*
X0266871Y0239152D01*
X0267016Y0239109D01*
X0267159Y0239062D01*
X0267301Y0239011D01*
X0267441Y0238957D01*
X0267580Y0238899D01*
X0267718Y0238837D01*
X0267854Y0238771D01*
X0267988Y0238703D01*
X0268120Y0238630D01*
X0268250Y0238554D01*
X0268378Y0238475D01*
X0268504Y0238392D01*
X0268628Y0238306D01*
X0268749Y0238217D01*
X0268869Y0238124D01*
X0268985Y0238029D01*
X0269099Y0237930D01*
X0269210Y0237829D01*
X0269319Y0237724D01*
X0269425Y0237617D01*
X0269528Y0237507D01*
X0269628Y0237394D01*
X0269725Y0237279D01*
X0269819Y0237161D01*
X0269910Y0237041D01*
X0269998Y0236918D01*
X0270082Y0236793D01*
X0270163Y0236666D01*
X0270241Y0236537D01*
X0270315Y0236406D01*
X0270385Y0236273D01*
X0270453Y0236138D01*
X0270516Y0236001D01*
X0270576Y0235863D01*
X0270632Y0235723D01*
X0270685Y0235582D01*
X0270734Y0235440D01*
X0270779Y0235296D01*
X0270820Y0235151D01*
X0270858Y0235005D01*
X0270891Y0234858D01*
X0270921Y0234710D01*
X0270947Y0234562D01*
X0270968Y0234412D01*
X0270986Y0234263D01*
X0271000Y0234113D01*
X0271010Y0233962D01*
X0271016Y0233812D01*
X0271018Y0233661D01*
X0271016Y0233510D01*
X0271010Y0233360D01*
X0271000Y0233209D01*
X0270986Y0233059D01*
X0270968Y0232910D01*
X0270947Y0232760D01*
X0270921Y0232612D01*
X0270891Y0232464D01*
X0270858Y0232317D01*
X0270820Y0232171D01*
X0270779Y0232026D01*
X0270734Y0231882D01*
X0270685Y0231740D01*
X0270632Y0231599D01*
X0270576Y0231459D01*
X0270516Y0231321D01*
X0270453Y0231184D01*
X0270385Y0231049D01*
X0270315Y0230916D01*
X0270241Y0230785D01*
X0270163Y0230656D01*
X0270082Y0230529D01*
X0269998Y0230404D01*
X0269910Y0230281D01*
X0269819Y0230161D01*
X0269725Y0230043D01*
X0269628Y0229928D01*
X0269528Y0229815D01*
X0269425Y0229705D01*
X0269319Y0229598D01*
X0269210Y0229493D01*
X0269099Y0229392D01*
X0268985Y0229293D01*
X0268869Y0229198D01*
X0268749Y0229105D01*
X0268628Y0229016D01*
X0268504Y0228930D01*
X0268378Y0228847D01*
X0268250Y0228768D01*
X0268120Y0228692D01*
X0267988Y0228619D01*
X0267854Y0228551D01*
X0267718Y0228485D01*
X0267580Y0228423D01*
X0267441Y0228365D01*
X0267301Y0228311D01*
X0267159Y0228260D01*
X0267016Y0228213D01*
X0266871Y0228170D01*
X0266726Y0228131D01*
X0266579Y0228095D01*
X0266432Y0228064D01*
X0266284Y0228036D01*
X0266135Y0228012D01*
X0265986Y0227992D01*
X0265836Y0227976D01*
X0265686Y0227964D01*
X0265535Y0227956D01*
X0265384Y0227952D01*
X0265234Y0227952D01*
X0265083Y0227956D01*
X0264932Y0227964D01*
X0264782Y0227976D01*
X0264632Y0227992D01*
X0264483Y0228012D01*
X0264334Y0228036D01*
X0264186Y0228064D01*
X0264039Y0228095D01*
X0263892Y0228131D01*
X0263747Y0228170D01*
X0263602Y0228213D01*
X0263459Y0228260D01*
X0263317Y0228311D01*
X0263177Y0228365D01*
X0263038Y0228423D01*
X0262900Y0228485D01*
X0262764Y0228551D01*
X0262630Y0228619D01*
X0262498Y0228692D01*
X0262368Y0228768D01*
X0262240Y0228847D01*
X0262114Y0228930D01*
X0261990Y0229016D01*
X0261869Y0229105D01*
X0261749Y0229198D01*
X0261633Y0229293D01*
X0261519Y0229392D01*
X0261408Y0229493D01*
X0261299Y0229598D01*
X0261193Y0229705D01*
X0261090Y0229815D01*
X0260990Y0229928D01*
X0260893Y0230043D01*
X0260799Y0230161D01*
X0260708Y0230281D01*
X0260620Y0230404D01*
X0260536Y0230529D01*
X0260455Y0230656D01*
X0260377Y0230785D01*
X0260303Y0230916D01*
X0260233Y0231049D01*
X0260165Y0231184D01*
X0260102Y0231321D01*
X0260042Y0231459D01*
X0259986Y0231599D01*
X0259933Y0231740D01*
X0259884Y0231882D01*
X0259839Y0232026D01*
X0259798Y0232171D01*
X0259760Y0232317D01*
X0259727Y0232464D01*
X0259697Y0232612D01*
X0259671Y0232760D01*
X0259650Y0232910D01*
X0259632Y0233059D01*
X0259618Y0233209D01*
X0259608Y0233360D01*
X0259602Y0233510D01*
X0259600Y0233661D01*
X0037169Y0233893D02*
X0037171Y0234044D01*
X0037177Y0234194D01*
X0037187Y0234345D01*
X0037201Y0234495D01*
X0037219Y0234644D01*
X0037240Y0234794D01*
X0037266Y0234942D01*
X0037296Y0235090D01*
X0037329Y0235237D01*
X0037367Y0235383D01*
X0037408Y0235528D01*
X0037453Y0235672D01*
X0037502Y0235814D01*
X0037555Y0235955D01*
X0037611Y0236095D01*
X0037671Y0236233D01*
X0037734Y0236370D01*
X0037802Y0236505D01*
X0037872Y0236638D01*
X0037946Y0236769D01*
X0038024Y0236898D01*
X0038105Y0237025D01*
X0038189Y0237150D01*
X0038277Y0237273D01*
X0038368Y0237393D01*
X0038462Y0237511D01*
X0038559Y0237626D01*
X0038659Y0237739D01*
X0038762Y0237849D01*
X0038868Y0237956D01*
X0038977Y0238061D01*
X0039088Y0238162D01*
X0039202Y0238261D01*
X0039318Y0238356D01*
X0039438Y0238449D01*
X0039559Y0238538D01*
X0039683Y0238624D01*
X0039809Y0238707D01*
X0039937Y0238786D01*
X0040067Y0238862D01*
X0040199Y0238935D01*
X0040333Y0239003D01*
X0040469Y0239069D01*
X0040607Y0239131D01*
X0040746Y0239189D01*
X0040886Y0239243D01*
X0041028Y0239294D01*
X0041171Y0239341D01*
X0041316Y0239384D01*
X0041461Y0239423D01*
X0041608Y0239459D01*
X0041755Y0239490D01*
X0041903Y0239518D01*
X0042052Y0239542D01*
X0042201Y0239562D01*
X0042351Y0239578D01*
X0042501Y0239590D01*
X0042652Y0239598D01*
X0042803Y0239602D01*
X0042953Y0239602D01*
X0043104Y0239598D01*
X0043255Y0239590D01*
X0043405Y0239578D01*
X0043555Y0239562D01*
X0043704Y0239542D01*
X0043853Y0239518D01*
X0044001Y0239490D01*
X0044148Y0239459D01*
X0044295Y0239423D01*
X0044440Y0239384D01*
X0044585Y0239341D01*
X0044728Y0239294D01*
X0044870Y0239243D01*
X0045010Y0239189D01*
X0045149Y0239131D01*
X0045287Y0239069D01*
X0045423Y0239003D01*
X0045557Y0238935D01*
X0045689Y0238862D01*
X0045819Y0238786D01*
X0045947Y0238707D01*
X0046073Y0238624D01*
X0046197Y0238538D01*
X0046318Y0238449D01*
X0046438Y0238356D01*
X0046554Y0238261D01*
X0046668Y0238162D01*
X0046779Y0238061D01*
X0046888Y0237956D01*
X0046994Y0237849D01*
X0047097Y0237739D01*
X0047197Y0237626D01*
X0047294Y0237511D01*
X0047388Y0237393D01*
X0047479Y0237273D01*
X0047567Y0237150D01*
X0047651Y0237025D01*
X0047732Y0236898D01*
X0047810Y0236769D01*
X0047884Y0236638D01*
X0047954Y0236505D01*
X0048022Y0236370D01*
X0048085Y0236233D01*
X0048145Y0236095D01*
X0048201Y0235955D01*
X0048254Y0235814D01*
X0048303Y0235672D01*
X0048348Y0235528D01*
X0048389Y0235383D01*
X0048427Y0235237D01*
X0048460Y0235090D01*
X0048490Y0234942D01*
X0048516Y0234794D01*
X0048537Y0234644D01*
X0048555Y0234495D01*
X0048569Y0234345D01*
X0048579Y0234194D01*
X0048585Y0234044D01*
X0048587Y0233893D01*
X0048585Y0233742D01*
X0048579Y0233592D01*
X0048569Y0233441D01*
X0048555Y0233291D01*
X0048537Y0233142D01*
X0048516Y0232992D01*
X0048490Y0232844D01*
X0048460Y0232696D01*
X0048427Y0232549D01*
X0048389Y0232403D01*
X0048348Y0232258D01*
X0048303Y0232114D01*
X0048254Y0231972D01*
X0048201Y0231831D01*
X0048145Y0231691D01*
X0048085Y0231553D01*
X0048022Y0231416D01*
X0047954Y0231281D01*
X0047884Y0231148D01*
X0047810Y0231017D01*
X0047732Y0230888D01*
X0047651Y0230761D01*
X0047567Y0230636D01*
X0047479Y0230513D01*
X0047388Y0230393D01*
X0047294Y0230275D01*
X0047197Y0230160D01*
X0047097Y0230047D01*
X0046994Y0229937D01*
X0046888Y0229830D01*
X0046779Y0229725D01*
X0046668Y0229624D01*
X0046554Y0229525D01*
X0046438Y0229430D01*
X0046318Y0229337D01*
X0046197Y0229248D01*
X0046073Y0229162D01*
X0045947Y0229079D01*
X0045819Y0229000D01*
X0045689Y0228924D01*
X0045557Y0228851D01*
X0045423Y0228783D01*
X0045287Y0228717D01*
X0045149Y0228655D01*
X0045010Y0228597D01*
X0044870Y0228543D01*
X0044728Y0228492D01*
X0044585Y0228445D01*
X0044440Y0228402D01*
X0044295Y0228363D01*
X0044148Y0228327D01*
X0044001Y0228296D01*
X0043853Y0228268D01*
X0043704Y0228244D01*
X0043555Y0228224D01*
X0043405Y0228208D01*
X0043255Y0228196D01*
X0043104Y0228188D01*
X0042953Y0228184D01*
X0042803Y0228184D01*
X0042652Y0228188D01*
X0042501Y0228196D01*
X0042351Y0228208D01*
X0042201Y0228224D01*
X0042052Y0228244D01*
X0041903Y0228268D01*
X0041755Y0228296D01*
X0041608Y0228327D01*
X0041461Y0228363D01*
X0041316Y0228402D01*
X0041171Y0228445D01*
X0041028Y0228492D01*
X0040886Y0228543D01*
X0040746Y0228597D01*
X0040607Y0228655D01*
X0040469Y0228717D01*
X0040333Y0228783D01*
X0040199Y0228851D01*
X0040067Y0228924D01*
X0039937Y0229000D01*
X0039809Y0229079D01*
X0039683Y0229162D01*
X0039559Y0229248D01*
X0039438Y0229337D01*
X0039318Y0229430D01*
X0039202Y0229525D01*
X0039088Y0229624D01*
X0038977Y0229725D01*
X0038868Y0229830D01*
X0038762Y0229937D01*
X0038659Y0230047D01*
X0038559Y0230160D01*
X0038462Y0230275D01*
X0038368Y0230393D01*
X0038277Y0230513D01*
X0038189Y0230636D01*
X0038105Y0230761D01*
X0038024Y0230888D01*
X0037946Y0231017D01*
X0037872Y0231148D01*
X0037802Y0231281D01*
X0037734Y0231416D01*
X0037671Y0231553D01*
X0037611Y0231691D01*
X0037555Y0231831D01*
X0037502Y0231972D01*
X0037453Y0232114D01*
X0037408Y0232258D01*
X0037367Y0232403D01*
X0037329Y0232549D01*
X0037296Y0232696D01*
X0037266Y0232844D01*
X0037240Y0232992D01*
X0037219Y0233142D01*
X0037201Y0233291D01*
X0037187Y0233441D01*
X0037177Y0233592D01*
X0037171Y0233742D01*
X0037169Y0233893D01*
D11*
X0004425Y0001268D02*
X0096163Y0001268D01*
X0096267Y0001270D01*
X0096372Y0001276D01*
X0096476Y0001285D01*
X0096580Y0001298D01*
X0096683Y0001316D01*
X0096785Y0001336D01*
X0096887Y0001361D01*
X0096987Y0001389D01*
X0097087Y0001421D01*
X0097185Y0001457D01*
X0097282Y0001496D01*
X0097377Y0001539D01*
X0097471Y0001585D01*
X0097563Y0001634D01*
X0097653Y0001687D01*
X0097742Y0001743D01*
X0097828Y0001802D01*
X0097912Y0001865D01*
X0097993Y0001930D01*
X0098072Y0001998D01*
X0098149Y0002069D01*
X0098223Y0002143D01*
X0098294Y0002220D01*
X0098362Y0002299D01*
X0098427Y0002380D01*
X0098490Y0002464D01*
X0098549Y0002550D01*
X0098605Y0002639D01*
X0098658Y0002729D01*
X0098707Y0002821D01*
X0098753Y0002915D01*
X0098796Y0003010D01*
X0098835Y0003107D01*
X0098871Y0003205D01*
X0098903Y0003305D01*
X0098931Y0003405D01*
X0098956Y0003507D01*
X0098976Y0003609D01*
X0098994Y0003712D01*
X0099007Y0003816D01*
X0099016Y0003920D01*
X0099022Y0004025D01*
X0099024Y0004129D01*
X0099024Y0013457D01*
X0099022Y0013569D01*
X0099016Y0013680D01*
X0099006Y0013791D01*
X0098992Y0013902D01*
X0098974Y0014012D01*
X0098953Y0014121D01*
X0098927Y0014230D01*
X0098897Y0014338D01*
X0098864Y0014444D01*
X0098827Y0014549D01*
X0098786Y0014653D01*
X0098742Y0014756D01*
X0098693Y0014856D01*
X0098642Y0014955D01*
X0098586Y0015052D01*
X0098528Y0015147D01*
X0098466Y0015240D01*
X0098400Y0015330D01*
X0098332Y0015418D01*
X0098260Y0015504D01*
X0098186Y0015587D01*
X0098108Y0015667D01*
X0098028Y0015745D01*
X0097945Y0015819D01*
X0097859Y0015891D01*
X0097771Y0015959D01*
X0097681Y0016025D01*
X0097588Y0016087D01*
X0097493Y0016145D01*
X0097396Y0016201D01*
X0097297Y0016252D01*
X0097197Y0016301D01*
X0097094Y0016345D01*
X0096990Y0016386D01*
X0096885Y0016423D01*
X0096779Y0016456D01*
X0096671Y0016486D01*
X0096562Y0016512D01*
X0096453Y0016533D01*
X0096343Y0016551D01*
X0096232Y0016565D01*
X0096121Y0016575D01*
X0096010Y0016581D01*
X0095898Y0016583D01*
X0083792Y0016583D01*
X0083682Y0016585D01*
X0083573Y0016591D01*
X0083463Y0016601D01*
X0083354Y0016614D01*
X0083246Y0016632D01*
X0083138Y0016653D01*
X0083032Y0016679D01*
X0082926Y0016708D01*
X0082821Y0016740D01*
X0082717Y0016777D01*
X0082615Y0016817D01*
X0082515Y0016861D01*
X0082416Y0016908D01*
X0082318Y0016959D01*
X0082223Y0017013D01*
X0082130Y0017071D01*
X0082038Y0017132D01*
X0081949Y0017196D01*
X0081863Y0017264D01*
X0081778Y0017334D01*
X0081697Y0017407D01*
X0081618Y0017484D01*
X0081541Y0017563D01*
X0081468Y0017644D01*
X0081398Y0017729D01*
X0081330Y0017815D01*
X0081266Y0017904D01*
X0081205Y0017996D01*
X0081147Y0018089D01*
X0081093Y0018184D01*
X0081042Y0018282D01*
X0080995Y0018381D01*
X0080951Y0018481D01*
X0080911Y0018583D01*
X0080874Y0018687D01*
X0080842Y0018792D01*
X0080813Y0018898D01*
X0080787Y0019004D01*
X0080766Y0019112D01*
X0080748Y0019220D01*
X0080735Y0019329D01*
X0080725Y0019439D01*
X0080719Y0019548D01*
X0080717Y0019658D01*
X0080717Y0028000D01*
X0080719Y0028117D01*
X0080725Y0028234D01*
X0080735Y0028351D01*
X0080748Y0028467D01*
X0080766Y0028583D01*
X0080787Y0028698D01*
X0080812Y0028813D01*
X0080842Y0028926D01*
X0080874Y0029038D01*
X0080911Y0029150D01*
X0080951Y0029260D01*
X0080995Y0029368D01*
X0081043Y0029475D01*
X0081094Y0029581D01*
X0081148Y0029684D01*
X0081206Y0029786D01*
X0081268Y0029886D01*
X0081332Y0029984D01*
X0081400Y0030079D01*
X0081471Y0030172D01*
X0081545Y0030263D01*
X0081623Y0030351D01*
X0081703Y0030437D01*
X0081785Y0030519D01*
X0081871Y0030599D01*
X0081959Y0030677D01*
X0082050Y0030751D01*
X0082143Y0030822D01*
X0082238Y0030890D01*
X0082336Y0030954D01*
X0082436Y0031016D01*
X0082538Y0031074D01*
X0082641Y0031128D01*
X0082747Y0031179D01*
X0082854Y0031227D01*
X0082962Y0031271D01*
X0083072Y0031311D01*
X0083184Y0031348D01*
X0083296Y0031380D01*
X0083409Y0031410D01*
X0083524Y0031435D01*
X0083639Y0031456D01*
X0083755Y0031474D01*
X0083871Y0031487D01*
X0083988Y0031497D01*
X0084105Y0031503D01*
X0084222Y0031505D01*
X0084280Y0031493D02*
X0113867Y0027725D01*
X0134339Y0026387D02*
X0136585Y0026349D01*
X0138830Y0026257D01*
X0141072Y0026111D01*
X0160047Y0025914D02*
X0160463Y0025888D01*
X0160879Y0025870D01*
X0161296Y0025861D01*
X0161712Y0025861D01*
X0162129Y0025870D01*
X0162545Y0025888D01*
X0162961Y0025914D01*
X0160048Y0025914D02*
X0159340Y0025959D01*
X0158631Y0025988D01*
X0157922Y0026003D01*
X0157213Y0026001D01*
X0156504Y0025985D01*
X0155796Y0025953D01*
X0162961Y0025914D02*
X0164544Y0026014D01*
X0166128Y0026081D01*
X0167714Y0026113D01*
X0169300Y0026111D01*
X0177016Y0026387D02*
X0178380Y0026489D01*
X0179745Y0026568D01*
X0181111Y0026623D01*
X0201977Y0028355D02*
X0215835Y0030244D01*
X0224101Y0031504D02*
X0224216Y0031502D01*
X0224330Y0031496D01*
X0224444Y0031487D01*
X0224558Y0031473D01*
X0224671Y0031456D01*
X0224784Y0031435D01*
X0224895Y0031411D01*
X0225006Y0031382D01*
X0225116Y0031350D01*
X0225225Y0031314D01*
X0225333Y0031275D01*
X0225439Y0031232D01*
X0225544Y0031186D01*
X0225647Y0031136D01*
X0225748Y0031082D01*
X0225847Y0031026D01*
X0225945Y0030966D01*
X0226041Y0030902D01*
X0226134Y0030836D01*
X0226225Y0030767D01*
X0226314Y0030694D01*
X0226400Y0030619D01*
X0226483Y0030540D01*
X0226564Y0030459D01*
X0226643Y0030376D01*
X0226718Y0030290D01*
X0226791Y0030201D01*
X0226860Y0030110D01*
X0226926Y0030017D01*
X0226990Y0029921D01*
X0227050Y0029823D01*
X0227106Y0029724D01*
X0227160Y0029623D01*
X0227210Y0029520D01*
X0227256Y0029415D01*
X0227299Y0029309D01*
X0227338Y0029201D01*
X0227374Y0029092D01*
X0227406Y0028982D01*
X0227435Y0028871D01*
X0227459Y0028760D01*
X0227480Y0028647D01*
X0227497Y0028534D01*
X0227511Y0028420D01*
X0227520Y0028306D01*
X0227526Y0028192D01*
X0227528Y0028077D01*
X0227528Y0019513D01*
X0227526Y0019407D01*
X0227520Y0019302D01*
X0227511Y0019197D01*
X0227497Y0019092D01*
X0227480Y0018988D01*
X0227459Y0018885D01*
X0227434Y0018782D01*
X0227405Y0018680D01*
X0227373Y0018580D01*
X0227337Y0018481D01*
X0227298Y0018383D01*
X0227255Y0018286D01*
X0227208Y0018192D01*
X0227158Y0018099D01*
X0227105Y0018007D01*
X0227048Y0017918D01*
X0226988Y0017831D01*
X0226925Y0017747D01*
X0226859Y0017664D01*
X0226790Y0017584D01*
X0226719Y0017507D01*
X0226644Y0017432D01*
X0226567Y0017361D01*
X0226487Y0017292D01*
X0226404Y0017226D01*
X0226320Y0017163D01*
X0226233Y0017103D01*
X0226144Y0017046D01*
X0226052Y0016993D01*
X0225959Y0016943D01*
X0225865Y0016896D01*
X0225768Y0016853D01*
X0225670Y0016814D01*
X0225571Y0016778D01*
X0225471Y0016746D01*
X0225369Y0016717D01*
X0225266Y0016692D01*
X0225163Y0016671D01*
X0225059Y0016654D01*
X0224954Y0016640D01*
X0224849Y0016631D01*
X0224744Y0016625D01*
X0224638Y0016623D01*
X0224638Y0016622D02*
X0212410Y0016622D01*
X0212410Y0016623D02*
X0212297Y0016621D01*
X0212185Y0016615D01*
X0212072Y0016605D01*
X0211961Y0016592D01*
X0211849Y0016574D01*
X0211739Y0016552D01*
X0211629Y0016527D01*
X0211520Y0016498D01*
X0211412Y0016465D01*
X0211306Y0016428D01*
X0211200Y0016388D01*
X0211097Y0016344D01*
X0210994Y0016296D01*
X0210894Y0016245D01*
X0210796Y0016190D01*
X0210699Y0016132D01*
X0210604Y0016071D01*
X0210512Y0016006D01*
X0210422Y0015938D01*
X0210334Y0015868D01*
X0210249Y0015794D01*
X0210167Y0015717D01*
X0210087Y0015637D01*
X0210010Y0015555D01*
X0209936Y0015470D01*
X0209866Y0015382D01*
X0209798Y0015292D01*
X0209733Y0015200D01*
X0209672Y0015105D01*
X0209614Y0015008D01*
X0209559Y0014910D01*
X0209508Y0014810D01*
X0209460Y0014707D01*
X0209416Y0014604D01*
X0209376Y0014498D01*
X0209339Y0014392D01*
X0209306Y0014284D01*
X0209277Y0014175D01*
X0209252Y0014065D01*
X0209230Y0013955D01*
X0209212Y0013843D01*
X0209199Y0013732D01*
X0209189Y0013619D01*
X0209183Y0013507D01*
X0209181Y0013394D01*
X0209181Y0013355D01*
X0209181Y0013276D02*
X0209181Y0004216D01*
X0209182Y0004216D02*
X0209184Y0004107D01*
X0209190Y0003997D01*
X0209200Y0003888D01*
X0209213Y0003780D01*
X0209231Y0003672D01*
X0209252Y0003564D01*
X0209277Y0003458D01*
X0209306Y0003352D01*
X0209339Y0003248D01*
X0209375Y0003145D01*
X0209415Y0003043D01*
X0209459Y0002942D01*
X0209506Y0002844D01*
X0209557Y0002747D01*
X0209611Y0002652D01*
X0209669Y0002558D01*
X0209730Y0002467D01*
X0209794Y0002379D01*
X0209861Y0002292D01*
X0209931Y0002208D01*
X0210004Y0002127D01*
X0210080Y0002048D01*
X0210159Y0001972D01*
X0210240Y0001899D01*
X0210324Y0001829D01*
X0210411Y0001762D01*
X0210499Y0001698D01*
X0210590Y0001637D01*
X0210684Y0001579D01*
X0210779Y0001525D01*
X0210876Y0001474D01*
X0210974Y0001427D01*
X0211075Y0001383D01*
X0211177Y0001343D01*
X0211280Y0001307D01*
X0211384Y0001274D01*
X0211490Y0001245D01*
X0211596Y0001220D01*
X0211704Y0001199D01*
X0211812Y0001181D01*
X0211920Y0001168D01*
X0212029Y0001158D01*
X0212139Y0001152D01*
X0212248Y0001150D01*
X0303740Y0001150D01*
X0303853Y0001152D01*
X0303966Y0001158D01*
X0304079Y0001167D01*
X0304191Y0001181D01*
X0304303Y0001198D01*
X0304414Y0001219D01*
X0304525Y0001244D01*
X0304634Y0001273D01*
X0304743Y0001305D01*
X0304850Y0001341D01*
X0304956Y0001381D01*
X0305061Y0001424D01*
X0305164Y0001471D01*
X0305265Y0001522D01*
X0305365Y0001575D01*
X0305462Y0001633D01*
X0305558Y0001693D01*
X0305652Y0001757D01*
X0305743Y0001824D01*
X0305832Y0001894D01*
X0305919Y0001966D01*
X0306003Y0002042D01*
X0306084Y0002121D01*
X0306163Y0002202D01*
X0306239Y0002286D01*
X0306311Y0002373D01*
X0306381Y0002462D01*
X0306448Y0002553D01*
X0306512Y0002647D01*
X0306572Y0002743D01*
X0306630Y0002840D01*
X0306683Y0002940D01*
X0306734Y0003041D01*
X0306781Y0003144D01*
X0306824Y0003249D01*
X0306864Y0003355D01*
X0306900Y0003462D01*
X0306932Y0003571D01*
X0306961Y0003680D01*
X0306986Y0003791D01*
X0307007Y0003902D01*
X0307024Y0004014D01*
X0307038Y0004126D01*
X0307047Y0004239D01*
X0307053Y0004352D01*
X0307055Y0004465D01*
X0307056Y0004465D02*
X0307056Y0013087D01*
X0307054Y0013205D01*
X0307048Y0013323D01*
X0307038Y0013441D01*
X0307024Y0013558D01*
X0307007Y0013675D01*
X0306985Y0013791D01*
X0306960Y0013907D01*
X0306930Y0014021D01*
X0306897Y0014135D01*
X0306860Y0014247D01*
X0306820Y0014358D01*
X0306775Y0014467D01*
X0306727Y0014575D01*
X0306676Y0014682D01*
X0306621Y0014786D01*
X0306562Y0014889D01*
X0306500Y0014990D01*
X0306435Y0015088D01*
X0306367Y0015184D01*
X0306295Y0015278D01*
X0306220Y0015370D01*
X0306142Y0015459D01*
X0306062Y0015545D01*
X0305978Y0015629D01*
X0305892Y0015709D01*
X0305803Y0015787D01*
X0305711Y0015862D01*
X0305617Y0015934D01*
X0305521Y0016002D01*
X0305423Y0016067D01*
X0305322Y0016129D01*
X0305219Y0016188D01*
X0305115Y0016243D01*
X0305008Y0016294D01*
X0304900Y0016342D01*
X0304791Y0016387D01*
X0304680Y0016427D01*
X0304568Y0016464D01*
X0304454Y0016497D01*
X0304340Y0016527D01*
X0304224Y0016552D01*
X0304108Y0016574D01*
X0303991Y0016591D01*
X0303874Y0016605D01*
X0303756Y0016615D01*
X0303638Y0016621D01*
X0303520Y0016623D01*
X0303520Y0016622D02*
X0279273Y0016622D01*
X0279168Y0016624D01*
X0279063Y0016630D01*
X0278959Y0016640D01*
X0278854Y0016653D01*
X0278751Y0016671D01*
X0278648Y0016692D01*
X0278546Y0016718D01*
X0278445Y0016747D01*
X0278346Y0016780D01*
X0278247Y0016816D01*
X0278150Y0016856D01*
X0278055Y0016900D01*
X0277961Y0016947D01*
X0277869Y0016998D01*
X0277779Y0017052D01*
X0277691Y0017110D01*
X0277606Y0017171D01*
X0277522Y0017235D01*
X0277441Y0017302D01*
X0277363Y0017372D01*
X0277287Y0017444D01*
X0277215Y0017520D01*
X0277145Y0017598D01*
X0277078Y0017679D01*
X0277014Y0017763D01*
X0276953Y0017848D01*
X0276895Y0017936D01*
X0276841Y0018026D01*
X0276790Y0018118D01*
X0276743Y0018212D01*
X0276699Y0018307D01*
X0276659Y0018404D01*
X0276623Y0018503D01*
X0276590Y0018602D01*
X0276561Y0018703D01*
X0276535Y0018805D01*
X0276514Y0018908D01*
X0276496Y0019011D01*
X0276483Y0019116D01*
X0276473Y0019220D01*
X0276467Y0019325D01*
X0276465Y0019430D01*
X0276465Y0233385D01*
X0276461Y0233684D01*
X0276451Y0233983D01*
X0276433Y0234281D01*
X0276407Y0234579D01*
X0276375Y0234876D01*
X0276335Y0235172D01*
X0276288Y0235468D01*
X0276235Y0235762D01*
X0276174Y0236054D01*
X0276106Y0236346D01*
X0276030Y0236635D01*
X0275948Y0236922D01*
X0275860Y0237208D01*
X0275764Y0237491D01*
X0275661Y0237772D01*
X0275552Y0238050D01*
X0275436Y0238326D01*
X0275313Y0238598D01*
X0275184Y0238868D01*
X0275048Y0239134D01*
X0274906Y0239397D01*
X0274757Y0239657D01*
X0274603Y0239912D01*
X0274442Y0240164D01*
X0274275Y0240413D01*
X0274102Y0240656D01*
X0273924Y0240896D01*
X0273739Y0241132D01*
X0273549Y0241362D01*
X0273354Y0241588D01*
X0273153Y0241810D01*
X0272947Y0242026D01*
X0272735Y0242238D01*
X0272519Y0242444D01*
X0272297Y0242645D01*
X0272071Y0242840D01*
X0271841Y0243030D01*
X0271605Y0243215D01*
X0271365Y0243393D01*
X0271122Y0243566D01*
X0270873Y0243733D01*
X0270621Y0243894D01*
X0270366Y0244048D01*
X0270106Y0244197D01*
X0269843Y0244339D01*
X0269577Y0244475D01*
X0269307Y0244604D01*
X0269035Y0244727D01*
X0268759Y0244843D01*
X0268481Y0244952D01*
X0268200Y0245055D01*
X0267917Y0245151D01*
X0267631Y0245239D01*
X0267344Y0245321D01*
X0267055Y0245397D01*
X0266763Y0245465D01*
X0266471Y0245526D01*
X0266177Y0245579D01*
X0265881Y0245626D01*
X0265585Y0245666D01*
X0265288Y0245698D01*
X0264990Y0245724D01*
X0264692Y0245742D01*
X0264393Y0245752D01*
X0264094Y0245756D01*
X0044338Y0245756D01*
X0044338Y0245757D02*
X0044029Y0245753D01*
X0043721Y0245742D01*
X0043413Y0245723D01*
X0043106Y0245696D01*
X0042800Y0245662D01*
X0042494Y0245620D01*
X0042190Y0245571D01*
X0041887Y0245515D01*
X0041585Y0245451D01*
X0041285Y0245379D01*
X0040987Y0245301D01*
X0040691Y0245215D01*
X0040397Y0245122D01*
X0040105Y0245021D01*
X0039816Y0244914D01*
X0039530Y0244799D01*
X0039246Y0244678D01*
X0038966Y0244549D01*
X0038689Y0244414D01*
X0038415Y0244272D01*
X0038145Y0244123D01*
X0037879Y0243968D01*
X0037616Y0243806D01*
X0037358Y0243638D01*
X0037104Y0243463D01*
X0036854Y0243282D01*
X0036608Y0243096D01*
X0036368Y0242903D01*
X0036132Y0242704D01*
X0035901Y0242500D01*
X0035675Y0242290D01*
X0035454Y0242075D01*
X0035239Y0241854D01*
X0035029Y0241628D01*
X0034825Y0241397D01*
X0034626Y0241161D01*
X0034434Y0240920D01*
X0034247Y0240675D01*
X0034066Y0240425D01*
X0033892Y0240171D01*
X0033724Y0239912D01*
X0033562Y0239649D01*
X0033407Y0239383D01*
X0033258Y0239113D01*
X0033116Y0238839D01*
X0032981Y0238562D01*
X0032853Y0238282D01*
X0032731Y0237998D01*
X0032617Y0237712D01*
X0032509Y0237423D01*
X0032409Y0237131D01*
X0032316Y0236837D01*
X0032230Y0236541D01*
X0032151Y0236243D01*
X0032080Y0235943D01*
X0032016Y0235641D01*
X0031960Y0235338D01*
X0031911Y0235034D01*
X0031869Y0234728D01*
X0031835Y0234422D01*
X0031809Y0234114D01*
X0031790Y0233807D01*
X0031779Y0233498D01*
X0031775Y0233190D01*
X0031776Y0233190D02*
X0031702Y0019200D01*
X0031702Y0019201D02*
X0031700Y0019100D01*
X0031695Y0018999D01*
X0031685Y0018898D01*
X0031672Y0018799D01*
X0031654Y0018699D01*
X0031633Y0018601D01*
X0031608Y0018503D01*
X0031579Y0018406D01*
X0031546Y0018311D01*
X0031509Y0018217D01*
X0031469Y0018124D01*
X0031425Y0018033D01*
X0031378Y0017944D01*
X0031327Y0017857D01*
X0031273Y0017772D01*
X0031216Y0017689D01*
X0031155Y0017608D01*
X0031091Y0017530D01*
X0031025Y0017454D01*
X0030955Y0017381D01*
X0030882Y0017311D01*
X0030807Y0017244D01*
X0030729Y0017180D01*
X0030649Y0017119D01*
X0030567Y0017061D01*
X0030482Y0017006D01*
X0030395Y0016955D01*
X0030306Y0016907D01*
X0030215Y0016863D01*
X0030123Y0016822D01*
X0030029Y0016785D01*
X0029934Y0016751D01*
X0029838Y0016722D01*
X0029740Y0016696D01*
X0029642Y0016674D01*
X0029542Y0016656D01*
X0029442Y0016642D01*
X0029342Y0016632D01*
X0029241Y0016625D01*
X0029140Y0016623D01*
X0029140Y0016622D02*
X0004940Y0016622D01*
X0004940Y0016623D02*
X0004819Y0016621D01*
X0004697Y0016615D01*
X0004576Y0016605D01*
X0004455Y0016592D01*
X0004335Y0016574D01*
X0004216Y0016553D01*
X0004097Y0016528D01*
X0003979Y0016499D01*
X0003862Y0016466D01*
X0003746Y0016430D01*
X0003631Y0016390D01*
X0003518Y0016346D01*
X0003406Y0016299D01*
X0003296Y0016248D01*
X0003187Y0016193D01*
X0003080Y0016135D01*
X0002975Y0016074D01*
X0002872Y0016009D01*
X0002772Y0015941D01*
X0002673Y0015870D01*
X0002577Y0015796D01*
X0002483Y0015719D01*
X0002392Y0015639D01*
X0002303Y0015556D01*
X0002217Y0015470D01*
X0002134Y0015381D01*
X0002054Y0015290D01*
X0001977Y0015196D01*
X0001903Y0015100D01*
X0001832Y0015001D01*
X0001764Y0014901D01*
X0001699Y0014798D01*
X0001638Y0014693D01*
X0001580Y0014586D01*
X0001525Y0014477D01*
X0001474Y0014367D01*
X0001427Y0014255D01*
X0001383Y0014142D01*
X0001343Y0014027D01*
X0001307Y0013911D01*
X0001274Y0013794D01*
X0001245Y0013676D01*
X0001220Y0013557D01*
X0001199Y0013438D01*
X0001181Y0013318D01*
X0001168Y0013197D01*
X0001158Y0013076D01*
X0001152Y0012954D01*
X0001150Y0012833D01*
X0001150Y0004543D01*
X0001152Y0004431D01*
X0001158Y0004320D01*
X0001167Y0004208D01*
X0001181Y0004097D01*
X0001198Y0003987D01*
X0001218Y0003877D01*
X0001243Y0003768D01*
X0001271Y0003659D01*
X0001303Y0003552D01*
X0001339Y0003446D01*
X0001378Y0003342D01*
X0001421Y0003238D01*
X0001467Y0003136D01*
X0001517Y0003036D01*
X0001570Y0002938D01*
X0001627Y0002841D01*
X0001687Y0002747D01*
X0001749Y0002654D01*
X0001815Y0002564D01*
X0001885Y0002476D01*
X0001957Y0002391D01*
X0002032Y0002308D01*
X0002109Y0002227D01*
X0002190Y0002150D01*
X0002273Y0002075D01*
X0002358Y0002003D01*
X0002446Y0001933D01*
X0002536Y0001867D01*
X0002629Y0001805D01*
X0002723Y0001745D01*
X0002820Y0001688D01*
X0002918Y0001635D01*
X0003018Y0001585D01*
X0003120Y0001539D01*
X0003224Y0001496D01*
X0003328Y0001457D01*
X0003434Y0001421D01*
X0003541Y0001389D01*
X0003650Y0001361D01*
X0003759Y0001336D01*
X0003869Y0001316D01*
X0003979Y0001299D01*
X0004090Y0001285D01*
X0004202Y0001276D01*
X0004313Y0001270D01*
X0004425Y0001268D01*
X0169300Y0026111D02*
X0171231Y0026111D01*
X0173161Y0026156D01*
X0175090Y0026248D01*
X0177016Y0026387D01*
X0197685Y0027962D02*
X0198745Y0028090D01*
X0199808Y0028198D01*
X0200872Y0028286D01*
X0201937Y0028355D01*
X0155796Y0025953D02*
X0153342Y0025844D01*
X0150887Y0025788D01*
X0148431Y0025787D01*
X0145976Y0025841D01*
X0143522Y0025949D01*
X0141072Y0026111D01*
X0134339Y0026386D02*
X0130234Y0026455D01*
X0126132Y0026624D01*
X0122035Y0026892D01*
X0117946Y0027259D01*
X0113866Y0027724D01*
X0181110Y0026623D02*
X0185265Y0026805D01*
X0189414Y0027090D01*
X0193555Y0027475D01*
X0197685Y0027961D01*
X0215835Y0030244D02*
X0219993Y0030843D01*
X0224142Y0031504D01*
D12*
X0200561Y0175485D03*
D13*
X0190561Y0175485D03*
X0180561Y0175485D03*
X0170561Y0175485D03*
X0160561Y0175485D03*
X0150561Y0175485D03*
X0140561Y0175485D03*
X0130561Y0175485D03*
X0120561Y0175485D03*
X0110561Y0175485D03*
X0100561Y0175485D03*
X0090561Y0175485D03*
X0080561Y0175485D03*
X0070561Y0175485D03*
X0060561Y0175485D03*
X0060561Y0115485D03*
X0070561Y0115485D03*
X0080561Y0115485D03*
X0090561Y0115485D03*
X0100561Y0115485D03*
X0110561Y0115485D03*
X0120561Y0115485D03*
X0130561Y0115485D03*
X0140561Y0115485D03*
X0150561Y0115485D03*
X0160561Y0115485D03*
X0170561Y0115485D03*
X0180561Y0115485D03*
X0190561Y0115485D03*
X0200561Y0115485D03*
D14*
X0195867Y0044052D02*
X0195867Y0038052D01*
X0205867Y0038052D02*
X0205867Y0044052D01*
X0215867Y0044052D02*
X0215867Y0038052D01*
X0225867Y0038052D02*
X0225867Y0044052D01*
X0235867Y0044052D02*
X0235867Y0038052D01*
X0245867Y0038052D02*
X0245867Y0044052D01*
X0175867Y0044052D02*
X0175867Y0038052D01*
X0165867Y0038052D02*
X0165867Y0044052D01*
X0155867Y0044052D02*
X0155867Y0038052D01*
X0145867Y0038052D02*
X0145867Y0044052D01*
X0135867Y0044052D02*
X0135867Y0038052D01*
X0125867Y0038052D02*
X0125867Y0044052D01*
X0129882Y0228012D02*
X0129882Y0234012D01*
X0139882Y0234012D02*
X0139882Y0228012D01*
X0149882Y0228012D02*
X0149882Y0234012D01*
X0159882Y0234012D02*
X0159882Y0228012D01*
X0175867Y0228012D02*
X0175867Y0234012D01*
X0185867Y0234012D02*
X0185867Y0228012D01*
X0195867Y0228012D02*
X0195867Y0234012D01*
X0205867Y0234012D02*
X0205867Y0228012D01*
X0215867Y0228012D02*
X0215867Y0234012D01*
X0225867Y0234012D02*
X0225867Y0228012D01*
X0235867Y0228012D02*
X0235867Y0234012D01*
X0245867Y0234012D02*
X0245867Y0228012D01*
X0119882Y0228012D02*
X0119882Y0234012D01*
X0109882Y0234012D02*
X0109882Y0228012D01*
X0099882Y0228012D02*
X0099882Y0234012D01*
X0089882Y0234012D02*
X0089882Y0228012D01*
D15*
X0224126Y0118896D03*
X0264126Y0118896D03*
X0156201Y0074174D03*
X0146201Y0074174D03*
X0120377Y0102612D03*
X0080377Y0102612D03*
D16*
X0229984Y0082932D03*
X0259984Y0082932D03*
D17*
X0076056Y0068624D03*
X0064245Y0050120D03*
X0052434Y0068624D03*
D18*
X0080484Y0088900D03*
X0120484Y0088900D03*
D19*
X0241077Y0136191D03*
X0251077Y0136191D03*
X0251077Y0146191D03*
X0241077Y0146191D03*
X0241077Y0156191D03*
X0251077Y0156191D03*
X0251380Y0182238D03*
X0241380Y0182238D03*
X0241380Y0192238D03*
X0251380Y0192238D03*
X0251380Y0202238D03*
X0241380Y0202238D03*
D20*
X0251380Y0202238D02*
X0254170Y0205028D01*
X0254170Y0209709D01*
X0254134Y0209744D01*
X0254134Y0237665D01*
X0251525Y0240274D01*
X0250989Y0240496D02*
X0221130Y0240496D01*
X0216319Y0235685D01*
X0216024Y0230855D02*
X0216024Y0220166D01*
X0182674Y0186815D01*
X0157918Y0186815D01*
X0150561Y0179459D01*
X0150561Y0175485D01*
X0140561Y0175485D02*
X0140561Y0181644D01*
X0148780Y0189863D01*
X0174654Y0189863D01*
X0205792Y0221000D01*
X0205792Y0230937D01*
X0195835Y0230981D02*
X0195835Y0220012D01*
X0168603Y0192780D01*
X0136969Y0192780D01*
X0130561Y0186372D01*
X0130561Y0175485D01*
X0120561Y0175485D02*
X0120561Y0189896D01*
X0127284Y0196619D01*
X0160370Y0196619D01*
X0185961Y0222209D01*
X0185961Y0230918D01*
X0175359Y0230504D02*
X0175359Y0221477D01*
X0153607Y0199725D01*
X0121067Y0199725D01*
X0110561Y0189219D01*
X0110561Y0175485D01*
X0100561Y0175485D02*
X0100561Y0190569D01*
X0113390Y0203398D01*
X0143008Y0203398D01*
X0159819Y0220209D01*
X0159819Y0230949D01*
X0150134Y0230760D02*
X0150134Y0220949D01*
X0136607Y0207422D01*
X0103150Y0207422D01*
X0090561Y0194833D01*
X0090561Y0175485D01*
X0080561Y0175485D02*
X0080561Y0203112D01*
X0089075Y0211626D01*
X0130024Y0211626D01*
X0139713Y0221315D01*
X0139713Y0230843D01*
X0130024Y0230870D02*
X0130024Y0222957D01*
X0122713Y0215646D01*
X0078292Y0215646D01*
X0070561Y0207915D01*
X0070561Y0175485D01*
X0060561Y0175485D02*
X0060561Y0205963D01*
X0073536Y0218937D01*
X0115764Y0218937D01*
X0119969Y0223142D01*
X0119969Y0230926D01*
X0109961Y0234701D02*
X0104761Y0239901D01*
X0104508Y0240154D01*
X0103864Y0240273D02*
X0070862Y0240273D01*
X0045193Y0214603D01*
X0044461Y0212836D02*
X0044461Y0163213D01*
X0060910Y0146764D01*
X0060910Y0119032D01*
X0080561Y0115485D02*
X0080561Y0136593D01*
X0051437Y0165717D01*
X0051437Y0213615D01*
X0068815Y0230993D01*
X0089863Y0230993D01*
X0103864Y0240273D02*
X0103935Y0240271D01*
X0104006Y0240265D01*
X0104077Y0240255D01*
X0104146Y0240241D01*
X0104215Y0240223D01*
X0104283Y0240202D01*
X0104350Y0240176D01*
X0104415Y0240147D01*
X0104478Y0240115D01*
X0104539Y0240078D01*
X0104598Y0240039D01*
X0104655Y0239996D01*
X0104710Y0239950D01*
X0104761Y0239901D01*
X0045193Y0214604D02*
X0045125Y0214533D01*
X0045060Y0214460D01*
X0044998Y0214384D01*
X0044938Y0214305D01*
X0044882Y0214225D01*
X0044829Y0214142D01*
X0044780Y0214058D01*
X0044733Y0213971D01*
X0044691Y0213883D01*
X0044651Y0213793D01*
X0044616Y0213701D01*
X0044583Y0213609D01*
X0044555Y0213515D01*
X0044530Y0213420D01*
X0044509Y0213324D01*
X0044492Y0213227D01*
X0044478Y0213130D01*
X0044469Y0213032D01*
X0044463Y0212934D01*
X0044461Y0212836D01*
X0160561Y0179018D02*
X0160561Y0175485D01*
X0160561Y0179018D02*
X0164930Y0183386D01*
X0188189Y0183386D01*
X0225823Y0221020D01*
X0225823Y0230969D01*
X0235563Y0230709D02*
X0235563Y0223300D01*
X0200561Y0188297D01*
X0200561Y0175485D01*
X0205622Y0166973D02*
X0209426Y0170776D01*
X0209426Y0190945D01*
X0232646Y0214166D01*
X0239622Y0214166D01*
X0245965Y0220508D01*
X0245965Y0230914D01*
X0250989Y0240497D02*
X0251043Y0240495D01*
X0251097Y0240489D01*
X0251150Y0240480D01*
X0251203Y0240466D01*
X0251254Y0240449D01*
X0251304Y0240428D01*
X0251353Y0240404D01*
X0251399Y0240377D01*
X0251444Y0240346D01*
X0251486Y0240312D01*
X0251526Y0240275D01*
X0251380Y0192238D02*
X0255252Y0192238D01*
X0257863Y0189628D01*
X0257863Y0176556D01*
X0247307Y0171367D02*
X0247307Y0159961D01*
X0251077Y0156191D01*
X0247307Y0171367D02*
X0244115Y0174559D01*
X0230890Y0174559D01*
X0225201Y0180248D01*
X0225146Y0180248D01*
X0205622Y0166973D02*
X0195599Y0166973D01*
X0190561Y0172011D01*
X0190561Y0175485D01*
X0195698Y0148078D02*
X0177911Y0148078D01*
X0140561Y0115485D02*
X0140561Y0109902D01*
X0147272Y0103191D01*
X0180611Y0103191D01*
X0208549Y0075253D01*
X0208549Y0075207D01*
X0223030Y0060726D01*
X0237418Y0060726D01*
X0245846Y0052298D01*
X0245846Y0041072D01*
X0245867Y0041052D01*
X0235867Y0041052D02*
X0235788Y0041130D01*
X0235788Y0050575D01*
X0229456Y0056907D01*
X0219352Y0056907D01*
X0175908Y0100351D01*
X0139915Y0100351D01*
X0130561Y0109705D01*
X0130561Y0115485D01*
X0120561Y0115485D02*
X0120561Y0109042D01*
X0132838Y0096765D01*
X0171532Y0096765D01*
X0214602Y0053695D01*
X0219352Y0053695D01*
X0225871Y0047176D01*
X0225871Y0041056D01*
X0225867Y0041052D01*
X0215867Y0041052D02*
X0214789Y0042130D01*
X0214789Y0046245D01*
X0167574Y0093459D01*
X0132232Y0093459D01*
X0126878Y0098814D01*
X0116494Y0098814D01*
X0110701Y0104608D01*
X0110561Y0104608D01*
X0110561Y0115485D01*
X0100561Y0115485D02*
X0100561Y0109672D01*
X0113514Y0096719D01*
X0124689Y0096719D01*
X0132046Y0089362D01*
X0162219Y0089362D01*
X0162266Y0089408D01*
X0205476Y0046198D01*
X0205476Y0041442D01*
X0205867Y0041052D01*
X0195867Y0041052D02*
X0195651Y0041267D01*
X0195651Y0049644D01*
X0161497Y0083798D01*
X0161381Y0083914D01*
X0161334Y0083961D01*
X0133396Y0083961D01*
X0123059Y0094298D01*
X0102805Y0094298D01*
X0090233Y0106870D01*
X0090233Y0113249D01*
X0090372Y0113388D01*
X0090372Y0114692D01*
X0090561Y0114503D01*
X0090561Y0113945D01*
X0090561Y0114503D02*
X0090561Y0115485D01*
D21*
X0070561Y0115485D02*
X0070561Y0099038D01*
X0074083Y0095516D01*
X0087756Y0095516D01*
X0095953Y0087319D01*
X0108087Y0087319D01*
X0121563Y0073843D01*
X0121579Y0073843D01*
X0130504Y0064918D01*
X0134819Y0057713D02*
X0122831Y0057713D01*
X0117559Y0062985D01*
X0088500Y0062985D01*
X0082685Y0057170D01*
X0082685Y0043500D01*
X0074241Y0035056D01*
X0074241Y0034898D01*
X0064245Y0050120D02*
X0052434Y0061931D01*
X0052434Y0068624D01*
X0076056Y0068624D02*
X0076056Y0074115D01*
X0080454Y0078513D01*
X0080454Y0088870D01*
X0080484Y0088900D01*
X0060561Y0115485D02*
X0060561Y0118683D01*
X0060910Y0119032D01*
X0120484Y0088900D02*
X0120484Y0083537D01*
X0140563Y0063457D01*
X0134819Y0057713D01*
X0140563Y0063457D02*
X0168552Y0063457D01*
X0175867Y0056142D01*
X0175867Y0041052D01*
X0212623Y0082932D02*
X0190122Y0105432D01*
X0190122Y0115047D01*
X0190561Y0115485D01*
X0170561Y0135485D01*
X0170561Y0175485D01*
X0201500Y0130603D02*
X0218500Y0130603D01*
X0234197Y0146300D01*
X0240969Y0146300D01*
X0241077Y0146191D01*
X0251077Y0146191D01*
X0264126Y0118896D02*
X0264132Y0118896D01*
X0264797Y0118231D01*
X0264797Y0087745D01*
X0259984Y0082932D01*
X0229984Y0082932D02*
X0212623Y0082932D01*
X0241380Y0192238D02*
X0251380Y0192238D01*
X0245965Y0230914D02*
X0245867Y0231012D01*
X0235867Y0231012D02*
X0235563Y0230709D01*
X0225867Y0231012D02*
X0225823Y0230969D01*
X0216319Y0231465D02*
X0215867Y0231012D01*
X0216024Y0230855D01*
X0216319Y0231465D02*
X0216319Y0235685D01*
X0205867Y0231012D02*
X0205792Y0230937D01*
X0195867Y0231012D02*
X0195835Y0230981D01*
X0185961Y0230918D02*
X0185867Y0231012D01*
X0175867Y0231012D02*
X0175359Y0230504D01*
X0159882Y0231012D02*
X0159819Y0230949D01*
X0150134Y0230760D02*
X0149882Y0231012D01*
X0139882Y0231012D02*
X0139713Y0230843D01*
X0130024Y0230870D02*
X0129882Y0231012D01*
X0119969Y0230926D02*
X0119882Y0231012D01*
X0109961Y0231091D02*
X0109882Y0231012D01*
X0109961Y0231091D02*
X0109961Y0234701D01*
X0089882Y0231012D02*
X0089863Y0230993D01*
D22*
X0177911Y0148078D03*
X0195698Y0148078D03*
X0201500Y0130603D03*
X0257863Y0176556D03*
X0225146Y0180248D03*
X0130504Y0064918D03*
X0122831Y0057713D03*
X0074241Y0034898D03*
X0183119Y0052898D03*
D23*
X0183119Y0034634D01*
X0179493Y0031008D01*
X0130894Y0031008D01*
X0125819Y0036083D01*
X0125819Y0041004D01*
X0125867Y0041052D01*
M02*
