%
M48
M72
T01C0.02362
T02C0.03150
T03C0.03200
T04C0.04000
T05C0.04400
T06C0.11417
T07C0.11800
%
T01
X74241Y34898
X122831Y57713
X130504Y64918
X183119Y52898
X201500Y130603
X195698Y148078
X177911Y148078
X225146Y180248
X257863Y176556
T02
X200561Y175485
X190561Y175485
X180561Y175485
X170561Y175485
X160561Y175485
X150561Y175485
X140561Y175485
X130561Y175485
X120561Y175485
X110561Y175485
X100561Y175485
X90561Y175485
X80561Y175485
X70561Y175485
X60561Y175485
X60561Y115485
X70561Y115485
X80561Y115485
X90561Y115485
X100561Y115485
X110561Y115485
X120561Y115485
X130561Y115485
X140561Y115485
X150561Y115485
X160561Y115485
X170561Y115485
X180561Y115485
X190561Y115485
X200561Y115485
T03
X224126Y118896
X264126Y118896
X156201Y74174
X146201Y74174
X120377Y102612
X80377Y102612
T04
X125867Y41052
X135867Y41052
X145867Y41052
X155867Y41052
X165867Y41052
X175867Y41052
X195867Y41052
X205867Y41052
X215867Y41052
X225867Y41052
X235867Y41052
X245867Y41052
X259984Y82932
X229984Y82932
X241077Y136191
X251077Y136191
X251077Y146191
X241077Y146191
X241077Y156191
X251077Y156191
X251380Y182238
X241380Y182238
X241380Y192238
X251380Y192238
X251380Y202238
X241380Y202238
X245867Y231012
X235867Y231012
X225867Y231012
X215867Y231012
X205867Y231012
X195867Y231012
X185867Y231012
X175867Y231012
X159882Y231012
X149882Y231012
X139882Y231012
X129882Y231012
X119882Y231012
X109882Y231012
X99882Y231012
X89882Y231012
T05
X80484Y88900
X120484Y88900
T06
X41620Y31893
X265309Y35535
X265309Y233661
X42878Y233893
T07
X52434Y68624
X64245Y50120
X76056Y68624
M30
